<svg width="170" height="32" viewBox="0 0 170 32" fill="none" xmlns="http://www.w3.org/2000/svg">
<path fill-rule="evenodd" clip-rule="evenodd" d="M1.35484 4.26805L0.384277 6.78557V12.45L1.1122 24.0935L1.75924 29.4432L2.7298 29.9153L6.45028 30.2299L13.0016 29.4432L17.7735 27.8698L20.4425 25.5883L22.9498 21.4186L23.8395 16.8556V13.9448L22.9498 9.61778L22.3028 7.5723L21.0896 7.96566H19.472L19.0676 7.10026L18.1779 6.78557L17.2882 6.62823L16.4794 6.31354L16.2368 5.2908L15.9132 4.50407L15.0236 3.56V2.93062L15.2662 2.61593L13.5677 1.59319L11.1413 1.2785L7.74436 1.59319L3.943 2.61593L1.35484 4.26805ZM9.52368 11.6633L9.0384 13.7874L8.39136 17.721L8.87664 19.7665L9.8472 20.7893L11.1413 20.5532L12.7589 19.7665L13.6486 18.1931L14.2147 16.6196L14.053 15.5182L13.6486 14.2595L12.7589 12.7647L11.1413 11.6633L10.2516 11.4272L9.52368 11.6633Z" fill="#8AFAB7"/>
<path d="M1.23342 5.44811C2.74318 6.15616 3.82158 6.57575 4.46862 6.70687C4.98086 6.81176 5.4931 6.87732 6.00534 6.90355C6.54454 6.92977 7.13766 6.91666 7.7847 6.86421C8.43175 6.81176 8.93051 6.75932 9.28098 6.70687C9.65843 6.65442 10.2246 6.56263 10.9795 6.43151C13.1632 6.0906 14.8347 5.95948 15.994 6.03815L15.7918 5.25143C15.7918 5.19898 15.7783 5.14653 15.7514 5.09408C15.7244 5.04163 15.684 5.0023 15.6301 4.97607C15.5761 4.92362 15.5357 4.88429 15.5087 4.85806C15.4818 4.83184 15.4144 4.79251 15.3066 4.74006C15.2257 4.68761 15.1583 4.63516 15.1044 4.58271C14.8347 4.42537 14.6595 4.22868 14.5786 3.99267C14.4708 3.7042 14.4708 3.33706 14.5786 2.89125C14.6056 2.81258 14.673 2.73391 14.7808 2.65524C13.325 1.76362 11.1143 1.51449 8.14866 1.90785C6.61194 2.11764 5.2235 2.49789 3.98334 3.0486C2.77014 3.57308 1.94786 4.17624 1.5165 4.85806C1.40866 5.01541 1.3143 5.21209 1.23342 5.44811ZM12.5162 19.2945C12.7319 19.1109 12.8936 18.9404 13.0015 18.7831C13.3519 18.2062 13.5676 17.3801 13.6485 16.3049C13.7024 15.6231 13.5002 14.9019 13.0419 14.1414C12.6105 13.3547 12.0713 12.7253 11.4243 12.2533C10.8581 11.8075 10.3998 11.6239 10.0493 11.7026C9.72583 11.7812 9.56406 12.1615 9.56406 12.8433C9.56406 12.9482 9.52363 13.04 9.44275 13.1187C9.41579 13.3285 9.37535 13.5907 9.32143 13.9054C9.15967 14.9281 9.06531 15.61 9.03835 15.9509C8.82267 17.603 8.87659 18.8486 9.20011 19.6878C9.36187 20.0812 9.59103 20.3172 9.88759 20.3959C10.1033 20.3696 10.3189 20.3303 10.5346 20.2779C10.6155 20.2516 10.6829 20.2779 10.7368 20.3565C10.8177 20.3303 10.8851 20.3041 10.939 20.2779C11.3973 20.1205 11.8422 19.8714 12.2735 19.5305V19.4911C12.3005 19.36 12.3814 19.2945 12.5162 19.2945ZM15.8323 19.8452C14.7808 19.9763 13.8642 19.9894 13.0823 19.8845C12.5162 20.409 11.8961 20.7892 11.2221 21.0252C10.629 21.235 10.1033 21.2744 9.64495 21.1433C9.51015 21.117 9.37535 21.0646 9.24055 20.9859C8.62047 21.0646 7.93298 21.117 7.1781 21.1433C7.20506 22.0873 7.5825 22.8478 8.31043 23.4248C8.71483 23.7132 9.10575 23.805 9.48319 23.7001C9.56407 23.6739 9.65843 23.6345 9.76627 23.5821L10.0493 23.4641C10.3189 23.3592 10.5616 23.2936 10.7773 23.2674C11.0469 23.2412 11.3165 23.3199 11.5861 23.5034C11.7748 23.6345 11.9635 23.6739 12.1522 23.6214C12.3409 23.569 12.5431 23.3985 12.7588 23.1101C12.8127 23.0576 12.9071 22.9265 13.0419 22.7167C13.1497 22.5594 13.2441 22.4413 13.325 22.3627C13.5137 22.1791 13.8777 21.93 14.4169 21.6153C14.8752 21.353 15.1718 21.1301 15.3066 20.9466C15.4953 20.6581 15.6705 20.291 15.8323 19.8452ZM16.2771 16.6589L14.4169 17.013C14.2821 17.8783 14.0259 18.5995 13.6485 19.1764C13.5946 19.2813 13.5407 19.3731 13.4867 19.4518C14.1877 19.5305 15.0235 19.5042 15.994 19.3731C16.2367 18.4815 16.331 17.5768 16.2771 16.6589ZM7.50162 17.5637V17.7603C7.50162 17.8128 7.47466 17.8521 7.42074 17.8783C7.4477 18.1406 7.3803 18.9535 7.21854 20.3172V20.6712C7.7847 20.645 8.29694 20.6057 8.75527 20.5532C8.64743 20.3959 8.55307 20.2123 8.47219 20.0025C8.09474 19.0322 8.01387 17.6554 8.22955 15.8722C8.25651 15.5051 8.35087 14.8101 8.51263 13.7874C8.64743 12.922 8.7283 12.2926 8.75527 11.8992C8.75527 11.7419 8.84963 11.6239 9.03835 11.5452C9.22707 11.2305 9.49667 11.0338 9.84715 10.9552C10.4672 10.8241 11.1682 11.047 11.95 11.6239C12.651 12.1746 13.2576 12.8958 13.7698 13.7874C14.2821 14.6528 14.5112 15.5182 14.4573 16.3836V16.5016L16.2367 16.1869C16.1828 15.8984 16.1154 15.6231 16.0345 15.3608C15.9266 14.9937 15.6435 14.5741 15.1852 14.1021C14.4573 13.3416 14.0799 12.9482 14.0529 12.922C13.7833 12.5811 13.5002 12.109 13.2037 11.5059C12.8801 10.8503 12.6645 10.4307 12.5566 10.2471C12.0713 9.51285 11.3165 9.11949 10.292 9.06704C9.64495 9.17193 9.07879 9.25061 8.59351 9.30306C8.32391 9.43418 8.09475 9.61775 7.90602 9.85376C7.4477 10.4569 7.2455 11.7026 7.29942 13.5907C7.29942 14.1414 7.33986 14.915 7.42074 15.9115C7.4477 16.4622 7.47466 16.8556 7.50162 17.0916H7.82514C7.9869 17.0916 8.06778 17.1703 8.06778 17.3276C8.06778 17.485 7.9869 17.5637 7.82514 17.5637H7.50162ZM16.3176 19.3338C16.5063 19.3076 16.7085 19.2682 16.9242 19.2158C19.2697 18.8224 20.766 18.6257 21.413 18.6257C21.6556 18.6257 22.0331 18.7044 22.5453 18.8618C22.788 18.9142 22.9767 18.9535 23.1115 18.9798C23.2732 17.957 23.3541 16.8949 23.3541 15.7935C21.7635 15.8198 19.5123 16.0951 16.6006 16.6196C16.6546 17.5112 16.5602 18.4159 16.3176 19.3338ZM6.9759 17.0916C6.94894 16.9343 6.89502 16.7769 6.81414 16.6196C6.78718 16.5147 6.81414 16.436 6.89502 16.3836C7.00286 16.3573 7.08374 16.3836 7.13766 16.4622L7.09722 15.9115C7.01634 14.8101 6.9759 14.0496 6.9759 13.63C6.92198 11.637 7.15114 10.3258 7.66338 9.69642L7.90602 9.38173H7.86558C4.9539 9.72264 2.62186 9.57841 0.86946 8.94903C0.86946 11.0207 0.92338 13.6038 1.03122 16.6983C2.37922 16.9605 4.36078 17.0916 6.9759 17.0916ZM7.09722 17.5637C4.42818 17.5637 2.41966 17.4325 1.07166 17.1703C1.07166 17.6423 1.08514 18.1144 1.1121 18.5864C1.13906 19.3731 1.1795 20.1336 1.23342 20.8679C1.69174 20.8417 3.18802 20.7892 5.72226 20.7106C6.15362 20.7106 6.54454 20.6974 6.89502 20.6712V20.2779C7.05678 18.8093 7.12418 17.9046 7.09722 17.5637ZM11.8287 28.7351L11.9905 28.8138C12.0713 28.84 12.1253 28.8531 12.1522 28.8531C12.1792 28.8794 12.314 28.9712 12.5566 29.1285C14.6595 28.7614 16.4658 28.0926 17.9756 27.1224C15.8727 26.8077 13.0284 26.6241 9.44275 26.5716C7.52858 26.5192 5.88402 26.5454 4.50906 26.6503C3.2689 26.729 2.3253 26.8601 1.67826 27.0437L1.7187 27.3584C3.44414 27.1224 4.99434 27.1092 6.3693 27.319C7.77122 27.5288 9.53711 27.9353 11.6669 28.5385C11.7478 28.5647 11.8017 28.6302 11.8287 28.7351ZM11.3434 28.9712L9.36187 28.4205C8.84963 28.2631 8.24302 28.1189 7.54206 27.9878C6.86806 27.8566 6.24798 27.7648 5.68182 27.7124C5.14262 27.66 4.53602 27.6468 3.86202 27.6731C3.18802 27.6731 2.50054 27.7255 1.79958 27.8304L1.84002 28.1058C1.89394 28.3942 1.94786 28.6302 2.00178 28.8138L2.08266 29.0892C2.3253 29.3776 2.83754 29.5743 3.61938 29.6792C4.32034 29.7841 5.2235 29.8103 6.32886 29.7579C6.65238 29.7579 8.29695 29.6005 11.2625 29.2858C11.4513 29.2596 11.6265 29.2465 11.7883 29.2465L11.5052 29.1285C11.4243 29.0761 11.3704 29.0236 11.3434 28.9712ZM18.4204 19.4518L17.005 19.6878C16.7085 19.7403 16.4389 19.7796 16.1962 19.8058C16.0075 20.3303 15.7918 20.763 15.5492 21.1039C15.3874 21.3399 15.0504 21.6022 14.5382 21.8906C14.0529 22.1791 13.7294 22.4151 13.5676 22.5987C13.5137 22.6511 13.4328 22.756 13.325 22.9134C13.1902 23.1232 13.0958 23.2543 13.0419 23.3067C12.7723 23.6477 12.5027 23.8575 12.2331 23.9361C11.9365 24.0148 11.6535 23.9623 11.3839 23.7788C11.1951 23.6214 11.0199 23.5559 10.8581 23.5821C10.6425 23.6083 10.4133 23.6739 10.1707 23.7788L9.88759 23.8968C9.75279 23.9492 9.65843 23.9886 9.60451 24.0148C9.11923 24.1459 8.63395 24.0279 8.14866 23.6608C7.3129 23.0576 6.88154 22.2184 6.85458 21.1433C6.53106 21.1695 6.15362 21.1826 5.72226 21.1826C3.18802 21.2613 1.69174 21.3137 1.23342 21.3399C1.3143 22.7036 1.42214 24.1459 1.55694 25.6669C1.5839 26.1127 1.61086 26.4143 1.63782 26.5716C2.31182 26.3881 3.25542 26.257 4.46862 26.1783C5.84358 26.0734 7.50163 26.0472 9.44275 26.0996C13.1902 26.1521 16.1019 26.3487 18.1778 26.6897C18.2856 26.7159 18.353 26.7814 18.38 26.8863C20.1863 25.6014 21.5074 23.8968 22.3431 21.7726C22.6127 21.117 22.8284 20.4352 22.9902 19.7271C21.777 19.3862 20.3481 19.36 18.7035 19.6485C18.5417 19.6747 18.4474 19.6091 18.4204 19.4518ZM17.005 16.0689C17.032 15.9902 17.0859 15.9509 17.1668 15.9509C17.3016 15.9246 18.4069 15.6886 20.4829 15.2428C21.6691 14.9806 22.6127 14.8626 23.3137 14.8888C23.2058 12.7646 22.7745 10.5618 22.0196 8.28031C20.7255 8.62123 19.8224 8.55567 19.3101 8.08363C19.2562 8.05741 19.2157 8.01807 19.1888 7.96562C18.7305 8.14919 18.0969 8.2672 17.2881 8.31965C17.0724 8.34588 16.722 8.35899 16.2367 8.35899C15.7783 8.35899 15.4279 8.3721 15.1852 8.39832C14.4303 8.45077 13.2711 8.60812 11.7074 8.87036L11.303 8.9097C11.9231 9.09326 12.4353 9.48662 12.8397 10.0898C12.9475 10.2733 13.1632 10.706 13.4867 11.3879C13.7563 11.991 14.0259 12.45 14.2955 12.7646L15.4279 13.9054C15.9131 14.4037 16.2232 14.8626 16.358 15.2822C16.4389 15.5444 16.4928 15.8329 16.5198 16.1476L17.005 16.0689ZM22.6262 7.57226C23.5428 10.1685 24.0416 12.686 24.1225 15.1248C24.2303 17.5374 23.8933 19.8452 23.1115 22.048C22.2488 24.277 20.8468 26.0865 18.9057 27.4764C16.9376 28.8925 14.4169 29.7579 11.3434 30.0726C8.3239 30.3873 6.66586 30.5446 6.3693 30.5446C5.21002 30.5971 4.25294 30.5708 3.49806 30.4659C2.50054 30.3086 1.81306 30.007 1.43562 29.5612C1.35474 29.4563 1.27386 29.2727 1.19298 29.0105C1.13906 28.8007 1.08514 28.5385 1.03122 28.2238C0.92338 27.6468 0.82902 26.8208 0.74814 25.7456C0.58638 23.6739 0.4381 21.2875 0.3033 18.5864C0.0336999 12.2664 -0.0337001 8.39832 0.1011 6.98222C0.15502 6.48396 0.2359 6.01193 0.34374 5.56612L0.18198 5.52678C0.02022 5.44811 -0.0337 5.34321 0.02022 5.21209C0.1011 5.05475 0.20894 5.0023 0.34374 5.05475L0.5055 5.13342C0.58638 4.87118 0.68074 4.64827 0.788581 4.4647C1.32778 3.62553 2.2579 2.91748 3.57894 2.34055C4.92694 1.76362 6.40974 1.37026 8.02734 1.16046C9.48319 0.898221 10.966 0.885109 12.4757 1.12113C13.9855 1.33092 15.1043 1.78984 15.8323 2.49789C16.021 2.68146 16.021 2.86503 15.8323 3.0486C15.6975 3.17972 15.5492 3.20594 15.3874 3.12727C15.3065 3.38951 15.2931 3.58619 15.347 3.71732C15.3739 3.79599 15.4413 3.87466 15.5492 3.95333L15.7109 4.03201L15.994 4.18935C16.0479 4.2418 16.1153 4.32047 16.1962 4.42537C16.3041 4.50404 16.385 4.59582 16.4389 4.70072C16.5198 4.80562 16.5737 4.93674 16.6006 5.09408C16.6276 5.19898 16.6546 5.3301 16.6815 5.48744C16.7085 5.64479 16.7354 5.77591 16.7624 5.88081C16.7894 5.95948 16.8163 6.03815 16.8433 6.11682C17.1129 6.16927 17.369 6.22172 17.6116 6.27417C17.7195 6.30039 17.7869 6.35284 17.8138 6.43151C18.0565 6.43151 18.3126 6.45774 18.5822 6.51018C18.9327 6.56263 19.2292 6.73309 19.4719 7.02156L19.6336 7.29691C19.7145 7.40181 19.7819 7.48048 19.8358 7.53293C20.1594 7.79517 20.8468 7.78206 21.8983 7.49359C21.9522 7.41492 22.0331 7.36247 22.1409 7.33625C22.3836 7.23135 22.5453 7.31002 22.6262 7.57226ZM0.990781 8.477C2.58142 8.71301 4.06422 8.8048 5.43918 8.75235C5.60094 8.75235 5.68182 8.83102 5.68182 8.98837C5.68182 9.01459 5.66834 9.05393 5.64138 9.10638C6.31538 9.08015 7.0433 9.01459 7.82514 8.9097C8.58003 8.83102 9.84715 8.66057 11.6265 8.39832C13.1902 8.13608 14.3764 7.97874 15.1852 7.92629C15.4009 7.90006 15.7379 7.88695 16.1962 7.88695C16.6815 7.88695 17.032 7.87384 17.2477 7.84762C17.9486 7.82139 18.4878 7.72961 18.8653 7.57226C18.8653 7.54604 18.8518 7.53293 18.8248 7.53293C18.717 7.40181 18.5822 7.32313 18.4204 7.29691C18.043 7.24446 17.679 7.21824 17.3286 7.21824C17.3016 7.21824 17.2477 7.23135 17.1668 7.25757C17.0859 7.25757 17.032 7.25757 17.005 7.25757C16.8433 7.25757 16.7219 7.23135 16.6411 7.1789C16.3984 7.10023 16.2232 6.89044 16.1154 6.54952V6.51018C14.983 6.40529 13.298 6.53641 11.0603 6.90355C10.1707 7.06089 9.60451 7.15268 9.36187 7.1789C9.01139 7.20513 8.49915 7.25757 7.82514 7.33625C7.1781 7.38869 6.5715 7.40181 6.00534 7.37558C5.46614 7.34936 4.92694 7.2838 4.38774 7.1789C3.65982 7.02156 2.56794 6.60197 1.1121 5.92014C1.00426 6.26106 0.936861 6.64131 0.909901 7.06089C0.88294 7.29691 0.86946 7.75583 0.86946 8.43766L0.950341 8.477H0.990781ZM12.0713 3.79599L11.7074 4.34669C11.6265 4.47782 11.5187 4.50404 11.3839 4.42537C11.2491 4.34669 11.2221 4.2418 11.303 4.11068L11.6669 3.55997C11.7478 3.42885 11.8557 3.40263 11.9905 3.4813C12.1253 3.55997 12.1522 3.66487 12.0713 3.79599ZM18.6226 11.8992C18.8383 11.6632 19.2832 11.2436 19.9572 10.6405C20.092 10.5618 20.1998 10.588 20.2807 10.7192C20.3885 10.8241 20.3885 10.929 20.2807 11.0338C19.6067 11.5846 19.1888 11.9779 19.027 12.2139C18.9192 12.3188 18.7979 12.3319 18.6631 12.2533C18.5552 12.1484 18.5418 12.0304 18.6226 11.8992ZM3.5385 11.7419C3.5385 12.3451 3.55198 12.7778 3.57894 13.04C3.6059 13.1973 3.5385 13.2891 3.37674 13.3153C3.21498 13.3416 3.12062 13.276 3.09366 13.1187C3.0667 12.804 3.05322 12.3451 3.05322 11.7419C3.05322 11.5846 3.1341 11.5059 3.29586 11.5059C3.45762 11.5059 3.5385 11.5846 3.5385 11.7419ZM17.0455 23.0707V24.6048C17.0455 24.7622 16.9646 24.8409 16.8028 24.8409C16.6411 24.8409 16.5602 24.7622 16.5602 24.6048V23.0707C16.5602 22.9134 16.6411 22.8347 16.8028 22.8347C16.9646 22.8347 17.0455 22.9134 17.0455 23.0707ZM3.5385 24.0935L3.49806 23.4641C3.49806 23.3067 3.57894 23.2281 3.7407 23.2281C3.90246 23.2281 3.98334 23.3067 3.98334 23.4641L4.02378 24.0935C4.02378 24.2508 3.9429 24.3295 3.78114 24.3295C3.61938 24.3295 3.5385 24.2508 3.5385 24.0935ZM8.26998 3.44196C8.43175 3.44196 8.51263 3.52063 8.51263 3.67798C8.51263 3.83532 8.43175 3.914 8.26998 3.914C8.10822 3.914 8.02734 3.83532 8.02734 3.67798C8.02734 3.52063 8.10822 3.44196 8.26998 3.44196ZM19.4719 23.5034C19.6336 23.5034 19.7145 23.5821 19.7145 23.7394C19.7145 23.8968 19.6336 23.9755 19.4719 23.9755C19.3101 23.9755 19.2292 23.8968 19.2292 23.7394C19.2292 23.5821 19.3101 23.5034 19.4719 23.5034ZM4.10466 18.7044C4.26642 18.7044 4.3473 18.7831 4.3473 18.9404C4.3473 19.0978 4.26642 19.1764 4.10466 19.1764C3.9429 19.1764 3.86202 19.0978 3.86202 18.9404C3.86202 18.7831 3.9429 18.7044 4.10466 18.7044Z" fill="black"/>
<path fill-rule="evenodd" clip-rule="evenodd" d="M31.1997 8.51619L29.1777 13.3939L28.6924 17.0915V21.4185L30.3909 25.1161L33.3025 27.5549L37.023 29.5217L42.9273 30.6231L47.2948 29.7577L51.7432 26.7682L54.4122 22.4412L56.1916 16.3048L55.4637 10.955L53.1182 6.23469L48.5889 3.0878L42.5229 1.82904L37.5083 2.77311L33.8687 5.29063L31.1997 8.51619ZM40.7436 13.7872L39.6922 15.1247L39.3687 16.4621L39.6922 18.1929L40.7436 19.7663L43.3318 20.3957L45.0303 19.7663L46.4052 18.5076L47.2949 17.3275V15.9901L45.5964 14.1019L44.3832 13.3939L43.0083 13.1579H41.6333L40.7436 13.7872Z" fill="#FAEADB"/>
<path d="M35.8905 3.79592C35.9174 3.69102 35.9848 3.59923 36.0927 3.52056C39.0852 1.84222 42.2126 1.35707 45.4748 2.06512C47.2272 2.45848 48.7369 2.99608 50.004 3.67791C51.2981 4.35973 52.4844 5.31692 53.5628 6.54945C54.9916 8.20157 55.8948 10.2471 56.2722 12.6859C56.6766 15.1247 56.5688 17.4718 55.9487 19.7271C55.3556 22.1397 54.3311 24.3032 52.8753 26.2175C51.4464 28.1319 49.721 29.4956 47.699 30.3085C46.3779 30.833 44.9356 31.1346 43.3719 31.2132C41.8352 31.2657 40.3119 31.0952 38.8022 30.7019C37.2924 30.3085 35.85 29.7447 34.4751 29.0104C33.1271 28.2761 31.9408 27.3452 30.9163 26.2175C29.8919 25.0899 29.1639 23.8574 28.7326 22.5199C28.0047 20.422 28.0721 17.4849 28.9348 13.7086C29.474 11.3747 30.5254 9.18497 32.0891 7.13949C33.2484 5.56604 34.5155 4.45152 35.8905 3.79592ZM40.1771 15.2034C40.0962 15.3345 40.0288 15.4657 39.9749 15.5968C39.6244 16.5408 39.7053 17.4849 40.2176 18.429C40.7568 19.3993 41.5251 19.9631 42.5226 20.1204C43.7089 20.304 44.9356 19.8451 46.2027 18.7437C46.7958 18.1667 47.025 17.5111 46.8902 16.7769C46.7823 16.0426 46.3644 15.387 45.6365 14.8101C45.1782 14.4167 44.666 14.1544 44.0998 14.0233C43.5336 13.866 42.927 13.866 42.28 14.0233C41.6599 14.1807 41.0803 14.5347 40.5411 15.0854C40.4602 15.1903 40.3389 15.2296 40.1771 15.2034ZM43.0079 13.1186C44.1402 13.0661 45.1917 13.4202 46.1622 14.1807C46.7014 14.6265 47.1193 15.1379 47.4159 15.7148C47.7124 16.2917 47.8203 16.908 47.7394 17.5636C47.6585 18.2192 47.335 18.7961 46.7688 19.2944C45.313 20.5794 43.8572 21.117 42.4013 20.9072C41.1342 20.6974 40.1771 20.0024 39.5301 18.8223C38.883 17.6423 38.7887 16.4753 39.247 15.3214C39.7323 14.0364 40.8242 13.1842 42.5226 12.7646C42.7653 12.7121 42.927 12.817 43.0079 13.0793V13.1186ZM38.4382 20.4351C38.5191 20.3827 38.5865 20.3958 38.6404 20.4745C38.7213 20.5269 38.8156 20.6056 38.9235 20.7105C39.0313 20.7892 39.1257 20.8416 39.2066 20.8678C39.7458 20.9727 40.0693 21.0514 40.1771 21.1038C40.3928 21.235 40.7837 21.5234 41.3499 21.9692C41.7543 22.3102 42.1452 22.5199 42.5226 22.5986H42.5631C42.617 22.5986 42.6844 22.5855 42.7653 22.5593C42.927 22.5068 43.1292 22.4282 43.3719 22.3233C43.8841 22.1397 44.4772 21.9037 45.1512 21.6152C45.8252 21.3267 46.4049 21.0645 46.8902 20.8285C47.1328 20.6974 47.335 20.5925 47.4968 20.5138C47.6316 20.4089 47.7124 20.3565 47.7394 20.3565C47.8742 20.1729 47.9416 19.9106 47.9416 19.5697C47.9146 19.1239 47.9551 18.783 48.0629 18.547L48.346 18.193C48.4538 18.0618 48.5886 17.9045 48.7504 17.7209C48.9391 17.5374 49.0604 17.4062 49.1144 17.3276C49.5457 16.8293 49.721 16.4228 49.6401 16.1081C49.5862 15.8984 49.4109 15.6492 49.1144 15.3608C48.7369 14.9936 48.5078 14.7445 48.4269 14.6134C48.2651 14.4036 48.1168 13.9971 47.982 13.3939C47.8472 12.8695 47.699 12.5286 47.5372 12.3712C47.4294 12.2401 47.2272 12.1352 46.9306 12.0565C46.5801 11.9254 46.324 11.8074 46.1622 11.7025L45.3939 10.9551C45.0704 10.6142 44.8142 10.3782 44.6255 10.2471C44.0594 9.85369 43.4123 9.81435 42.6844 10.129C42.307 10.2864 41.9969 10.6404 41.7543 11.1911C41.4308 11.9254 41.1612 12.3974 40.9455 12.6072C40.622 12.8957 40.2984 13.053 39.9749 13.0793C39.948 13.0793 39.7323 13.053 39.3279 13.0006C39.274 13.0006 39.2335 13.0137 39.2066 13.0399C39.1526 13.0399 39.0987 13.0661 39.0448 13.1186C38.937 13.3022 38.8291 13.6824 38.7213 14.2593C38.6943 14.3642 38.6269 14.4036 38.5191 14.3774C38.4921 14.3774 38.4651 14.3642 38.4382 14.338C38.4112 14.574 38.3169 14.9018 38.1551 15.3214C37.9394 15.8459 37.8316 16.2524 37.8316 16.5408C37.8316 16.672 37.9394 17.3669 38.1551 18.6257L38.3573 19.9238C38.3843 20.1335 38.4112 20.2778 38.4382 20.3565V20.4351ZM38.4786 13.866C38.5595 13.4464 38.6674 13.1448 38.8022 12.9612C38.883 12.8564 38.9774 12.7777 39.0852 12.7252C39.1661 12.699 39.2605 12.6859 39.3683 12.6859C39.7458 12.7383 39.948 12.7646 39.9749 12.7646C40.2176 12.7383 40.4602 12.6072 40.7028 12.3712C40.8916 12.1876 41.1342 11.7549 41.4308 11.0731C41.7273 10.4175 42.0913 9.99792 42.5226 9.81435C43.4123 9.47344 44.1807 9.539 44.8277 10.011C45.0164 10.1422 45.2726 10.3782 45.5961 10.7191C45.9466 11.0862 46.2162 11.3354 46.4049 11.4665C46.5127 11.5451 46.7284 11.6369 47.0519 11.7418C47.3754 11.8467 47.6181 11.9778 47.7798 12.1352C47.9686 12.3712 48.1438 12.7646 48.3056 13.3153C48.4404 13.8922 48.5617 14.2725 48.6695 14.456C48.7504 14.5609 48.9796 14.7969 49.357 15.1641C49.6805 15.4788 49.8827 15.7672 49.9636 16.0295C50.0714 16.4491 49.8692 16.9473 49.357 17.5242C49.2761 17.6291 49.1548 17.7734 48.993 17.9569C48.8313 18.1143 48.6965 18.2585 48.5886 18.3896C48.5078 18.4945 48.4404 18.5994 48.3864 18.7043C48.3056 18.8617 48.2651 19.1501 48.2651 19.5697C48.2651 19.9893 48.1708 20.304 47.982 20.5138C47.9551 20.5925 47.8472 20.6843 47.6585 20.7892C47.4968 20.8678 47.2946 20.9727 47.0519 21.1038L45.2726 21.8906C44.5986 22.2053 44.0054 22.4544 43.4932 22.638C43.2236 22.7166 43.0079 22.7822 42.8462 22.8346C42.7653 22.8609 42.6979 22.8871 42.644 22.9133H42.4418C42.0374 22.8084 41.606 22.5724 41.1477 22.2053C40.6085 21.7594 40.231 21.4972 40.0154 21.4185C39.9345 21.3661 39.6379 21.2874 39.1257 21.1825C38.6943 21.0776 38.3843 20.9072 38.1955 20.6711L38.1551 20.5925V20.5531C38.1551 20.5269 38.1416 20.4745 38.1147 20.3958C38.0877 20.3171 38.0608 20.1729 38.0338 19.9631L37.8316 18.665C37.6159 17.38 37.5081 16.672 37.5081 16.5408C37.5081 16.2262 37.6159 15.7803 37.8316 15.2034C38.0473 14.6789 38.1551 14.2593 38.1551 13.9447C38.1551 13.8398 38.209 13.7873 38.3169 13.7873C38.3977 13.7873 38.4517 13.8135 38.4786 13.866ZM38.1147 25.9029C38.2764 25.7193 38.5865 25.4702 39.0448 25.1555C39.3953 24.8932 39.6649 24.6572 39.8536 24.4474C40.0154 24.2638 40.1906 24.2638 40.3793 24.4474C40.595 24.6048 40.6085 24.7883 40.4198 24.9981C40.231 25.2079 39.9345 25.4702 39.5301 25.7848C39.1257 26.0733 38.8426 26.2962 38.6808 26.4536C38.4921 26.6371 38.3034 26.6371 38.1147 26.4536C37.926 26.27 37.926 26.0864 38.1147 25.9029ZM34.3537 20.5138C34.9469 20.6449 35.5265 20.7105 36.0927 20.7105C36.3623 20.7105 36.4971 20.8416 36.4971 21.1038C36.4971 21.3661 36.3623 21.4972 36.0927 21.4972C35.4726 21.4972 34.839 21.4316 34.192 21.3005C33.9224 21.2481 33.8145 21.0907 33.8685 20.8285C33.9224 20.5662 34.0841 20.4613 34.3537 20.5138ZM35.1625 11.3485C35.2434 11.1124 35.4187 10.7715 35.6883 10.3257C35.9309 9.90614 36.0927 9.60456 36.1735 9.42099C36.2544 9.15875 36.4162 9.08008 36.6588 9.18497C36.9284 9.26365 37.0093 9.42099 36.9015 9.65701C36.8206 9.91925 36.6453 10.2733 36.3757 10.7191C36.1331 11.1387 35.9713 11.4534 35.8905 11.6632C35.8096 11.8992 35.6343 11.9778 35.3647 11.8992C35.1221 11.7943 35.0547 11.6107 35.1625 11.3485ZM44.2616 5.33003C44.1807 5.85451 44.1402 6.64123 44.1402 7.6902C44.1402 7.95244 44.0054 8.08356 43.7358 8.08356C43.4662 8.08356 43.3314 7.95244 43.3314 7.6902C43.3314 6.58878 43.3719 5.77584 43.4528 5.25135C43.5067 4.98911 43.655 4.88422 43.8976 4.93666C44.1672 4.96289 44.2885 5.09401 44.2616 5.33003ZM51.7834 10.4831C52.026 10.3782 52.2013 10.4437 52.3091 10.6797C52.417 10.9158 52.3496 11.0862 52.1069 11.1911C50.9476 11.7156 50.2062 12.0172 49.8827 12.0959C49.6131 12.1483 49.4514 12.0434 49.3974 11.7812C49.3435 11.5189 49.4514 11.3616 49.721 11.3091C49.9906 11.2567 50.678 10.9813 51.7834 10.4831ZM50.2467 21.8906C50.8128 22.6511 51.2442 23.1755 51.5408 23.464C51.7295 23.6476 51.7295 23.8312 51.5408 24.0147C51.352 24.1983 51.1633 24.1983 50.9746 24.0147C50.6511 23.7 50.1928 23.1493 49.5996 22.3626C49.4379 22.1528 49.4648 21.9692 49.6805 21.8119C49.8962 21.6545 50.0849 21.6808 50.2467 21.8906ZM51.2172 17.8783C51.8912 17.6947 52.6461 17.3538 53.4819 16.8555C53.6976 16.6982 53.8728 16.7375 54.0076 16.9735C54.1694 17.1833 54.1289 17.3538 53.8863 17.4849C52.9966 18.0618 52.1878 18.4552 51.4599 18.665C51.1903 18.7174 51.015 18.6257 50.9342 18.3896C50.8802 18.1274 50.9746 17.9569 51.2172 17.8783ZM47.2137 6.70679C47.9416 7.02148 48.4943 7.30995 48.8717 7.57219C49.0874 7.72953 49.1144 7.9131 48.9526 8.1229C48.7908 8.33269 48.6021 8.35891 48.3864 8.20157C48.0629 7.96555 47.5642 7.70331 46.8902 7.41485C46.6475 7.30995 46.5801 7.13949 46.688 6.90347C46.7958 6.66746 46.971 6.6019 47.2137 6.70679ZM32.0487 13.4333C32.2374 13.7217 32.6687 14.1544 33.3427 14.7314C33.5315 14.8887 33.5315 15.0723 33.3427 15.2821C33.181 15.4657 32.9923 15.4657 32.7766 15.2821C32.0756 14.6789 31.6173 14.22 31.4016 13.9053C31.2399 13.6693 31.2668 13.4857 31.4825 13.3546C31.7251 13.1973 31.9139 13.2235 32.0487 13.4333ZM39.9749 3.79592C40.0558 3.71724 40.3119 3.42878 40.7433 2.93052C40.8242 2.7994 40.905 2.6945 40.9859 2.61583C40.1771 2.74695 39.3548 2.95674 38.5191 3.24521C38.6 3.32388 38.6404 3.40255 38.6404 3.48123C38.6674 3.74347 38.546 3.8877 38.2764 3.91392C36.3083 4.09749 34.4616 5.33003 32.7361 7.61153C31.2533 9.57834 30.2558 11.6632 29.7436 13.866C28.9078 17.5111 28.8135 20.3171 29.4605 22.2839C29.8919 23.5165 30.5928 24.6572 31.5634 25.7062C32.5339 26.7551 33.6528 27.6336 34.9199 28.3417C36.187 29.0235 37.535 29.5611 38.9639 29.9545C40.3928 30.3216 41.8352 30.479 43.291 30.4265C44.7738 30.3741 46.1353 30.0987 47.3754 29.6005C49.2626 28.84 50.8937 27.555 52.2687 25.7455C53.6436 23.936 54.6142 21.8643 55.1804 19.5304C55.7735 17.3276 55.8813 15.0723 55.5039 12.7646C55.1264 10.4831 54.2637 8.56871 52.9157 7.02148C51.9452 5.89385 50.8533 5.00222 49.6401 4.34662C48.4269 3.71724 46.9845 3.21898 45.313 2.85185C44.2616 2.61583 43.291 2.51093 42.4013 2.53716C42.3474 2.66828 42.253 2.76006 42.1182 2.81251C41.9026 2.86496 41.6599 3.06164 41.3903 3.40255C40.905 3.97948 40.595 4.3204 40.4602 4.42529C40.2715 4.58264 40.0828 4.56953 39.894 4.38596C39.7323 4.17616 39.7592 3.97948 39.9749 3.79592ZM46.0814 27.201L46.6475 26.4536C46.8093 26.2438 46.998 26.2175 47.2137 26.3749C47.4294 26.5322 47.4563 26.7158 47.2946 26.9256L46.7284 27.673C46.5666 27.8828 46.3779 27.909 46.1622 27.7517C45.9466 27.5943 45.9196 27.4107 46.0814 27.201ZM32.3722 23.5033L33.181 24.7228L33.9493 25.8242C34.0841 26.0602 34.0302 26.2569 33.7876 26.4142C33.5719 26.5453 33.3832 26.506 33.2214 26.2962L32.4935 25.1555C32.17 24.631 31.9139 24.2376 31.7251 23.9754C31.5634 23.7394 31.5903 23.5558 31.806 23.4247C32.0487 23.2673 32.2374 23.2936 32.3722 23.5033ZM39.6514 7.72953L39.894 7.17883C39.9749 7.02148 40.0828 6.98215 40.2176 7.06082C40.3793 7.11327 40.4332 7.20505 40.3793 7.33617L40.1367 7.88688C40.0558 8.04422 39.9345 8.09667 39.7727 8.04422C39.6379 7.96555 39.5975 7.86065 39.6514 7.72953ZM43.6954 27.909C43.8572 27.909 43.938 27.9877 43.938 28.145C43.938 28.3024 43.8572 28.381 43.6954 28.381C43.5336 28.381 43.4528 28.3024 43.4528 28.145C43.4528 27.9877 43.5336 27.909 43.6954 27.909ZM47.9012 22.0872C48.0629 22.0872 48.1438 22.1659 48.1438 22.3233C48.1438 22.4806 48.0629 22.5593 47.9012 22.5593C47.7394 22.5593 47.6585 22.4806 47.6585 22.3233C47.6585 22.1659 47.7394 22.0872 47.9012 22.0872Z" fill="black"/>
<path d="M62.9851 30.7019L64.6836 31.4886L67.1909 31.0952L69.4555 29.0498L69.9408 27.1616L68.8085 22.756V15.5968L69.9408 16.0688L72.0437 18.7437L74.1466 23.7L76.8965 29.0498L78.9994 30.7019L80.9405 31.0952L83.2051 29.6005L84.3375 27.7123V23.7V19.7664L85.4698 12.8432L85.7124 5.29069L84.9845 3.95326L83.5287 2.30114L81.9111 2.06512L78.9994 2.85185L77.4627 5.29069V9.46033L78.6759 17.4062L77.9479 18.7437L75.3598 16.0688L71.5584 9.46033L68.0806 3.95326L66.1395 3.32388L63.4704 4.58264L61.5293 6.78547V11.1124L62.0955 15.5968L61.8528 18.7437L61.5293 24.6441V27.7123L62.2572 30.1512L62.9851 30.7019Z" fill="#FA8596"/>
<path d="M74.0256 24.4081C72.6776 21.4448 71.8823 19.714 71.6396 19.2157C71.1004 18.2192 70.6017 17.4718 70.1433 16.9736C69.7929 16.5802 69.4559 16.3311 69.1323 16.2262C69.1863 16.9343 69.2132 17.9832 69.2132 19.3731C69.2402 20.999 69.2941 22.2315 69.375 23.0707C69.4019 23.3592 69.4559 23.6739 69.5367 24.0148C69.5907 24.3295 69.6715 24.6966 69.7794 25.1162C69.9142 25.5358 70.0085 25.8636 70.0625 26.0996C70.359 27.437 70.3186 28.5515 69.9411 29.4432C69.6715 30.0725 69.1863 30.6101 68.4853 31.0559C67.7843 31.4755 67.016 31.764 66.1802 31.9213C65.3175 32.0525 64.4952 32.0131 63.7134 31.8033C62.9315 31.5935 62.3384 31.1608 61.934 30.5052C61.5566 29.9021 61.3274 28.9056 61.2465 27.5157C61.2465 27.3583 61.2331 27.201 61.2061 27.0437C61.0713 26.9912 61.0174 26.8994 61.0443 26.7683C61.0713 26.6896 61.1252 26.6241 61.2061 26.5716C61.1791 25.6276 61.26 24.0541 61.4487 21.8513C61.5835 20.2516 61.6644 19.1109 61.6914 18.429C61.6644 18.4028 61.6509 18.3766 61.6509 18.3504C61.6509 18.2717 61.6644 18.2192 61.6914 18.193C61.7183 17.485 61.7183 16.8294 61.6914 16.2262C61.6644 15.8066 61.624 15.3608 61.5701 14.8888L61.3679 13.2366C61.3139 12.6335 61.26 12.1615 61.2061 11.8205C61.1791 11.3747 61.1522 10.9683 61.1252 10.6011C61.0713 10.5487 61.0443 10.4831 61.0443 10.4044C61.0443 10.352 61.0713 10.3127 61.1252 10.2864C61.0713 9.13257 61.1387 8.12294 61.3274 7.25755C61.5161 6.41838 62.1093 5.5792 63.1068 4.74003C64.0773 3.92708 65.0075 3.45505 65.8971 3.32393C66.8947 3.19281 67.7709 3.46816 68.5257 4.14999C68.7145 4.33356 69.1593 4.94982 69.8603 5.99879L71.9227 9.3817C73.729 12.3713 74.7939 14.2201 75.1175 14.9281C75.2792 15.2952 75.778 15.9902 76.6137 17.0129C76.9912 17.485 77.3147 17.8521 77.5843 18.1143C77.7461 18.2455 77.8674 18.3504 77.9483 18.429C78.0561 18.3241 78.137 18.1406 78.1909 17.8783C78.2448 17.5374 78.2448 17.0129 78.1909 16.3049C78.137 15.7804 78.0157 14.9412 77.8269 13.7874C77.6382 12.6073 77.5169 11.8337 77.463 11.4665C77.1664 9.23747 77.1125 7.46734 77.3012 6.15613C77.5439 4.268 78.3122 2.98301 79.6063 2.30119C80.6847 1.75048 81.7631 1.56691 82.8415 1.75048C83.9469 1.96027 84.8096 2.76011 85.4297 4.14999C85.8341 5.01538 86.0767 5.98568 86.1576 7.06087C86.2115 7.08709 86.252 7.12643 86.2789 7.17887C86.3059 7.28377 86.2789 7.37556 86.198 7.45423V7.49356C86.252 8.59498 86.198 9.78817 86.0363 11.0732C85.9015 12.3581 85.7128 13.7742 85.4701 15.3215C85.2275 16.8425 85.0657 18.0094 84.9848 18.8224C85.0657 18.8486 85.1466 18.8879 85.2275 18.9404C85.3623 19.0191 85.3892 19.124 85.3084 19.2551C85.2275 19.3862 85.1196 19.4124 84.9848 19.3338L84.904 19.2944C84.85 20.1598 84.8635 21.4841 84.9444 23.2674C84.9714 23.687 84.9848 24.0148 84.9848 24.2508C85.1196 24.3032 85.2275 24.3557 85.3084 24.4081C85.4701 24.4606 85.5106 24.5655 85.4297 24.7228C85.3758 24.8539 85.2814 24.8802 85.1466 24.8015L85.0253 24.7622C85.0522 25.8111 85.0253 26.729 84.9444 27.5157C84.8635 28.3286 84.3782 29.194 83.4886 30.1119C82.5719 31.0822 81.6688 31.6329 80.7791 31.764C79.9433 31.9213 79.121 31.7115 78.3122 31.1346C77.1799 30.2954 75.9667 28.5122 74.6726 25.7849L74.2278 24.8408C74.066 24.8671 73.9717 24.8015 73.9447 24.6441C73.9177 24.5655 73.9447 24.4868 74.0256 24.4081ZM78.0696 9.73573C78.9053 9.73573 80.132 9.7095 81.7496 9.65705C83.3672 9.57838 84.567 9.53905 85.3488 9.53905C85.4027 8.90967 85.4162 8.2934 85.3892 7.69024C84.7422 7.87381 84.0547 8.01805 83.3268 8.12294C82.5989 8.20162 81.7362 8.28029 80.7386 8.35896C79.7411 8.41141 79.0671 8.45074 78.7166 8.47697C78.5549 8.50319 78.4605 8.43763 78.4335 8.28029C78.4066 8.12294 78.474 8.03116 78.6357 8.00493L80.7791 7.88693C81.7766 7.80825 82.6258 7.72958 83.3268 7.65091C84.0547 7.54601 84.7422 7.40178 85.3892 7.21821C85.3084 6.22169 85.0792 5.30385 84.7018 4.46468C84.1895 3.33704 83.5155 2.69455 82.6798 2.5372C81.7901 2.37986 80.9004 2.5372 80.0107 3.00924C78.9593 3.55994 78.3122 4.64825 78.0696 6.27414C77.9348 7.19199 77.9348 8.34585 78.0696 9.73573ZM78.9188 15.7542C79.3502 15.7279 80.2129 15.5313 81.507 15.1641C82.882 14.7708 83.9604 14.5741 84.7422 14.5741C85.0657 12.6073 85.2679 11.0863 85.3488 10.0111C84.567 10.0111 83.3672 10.0504 81.7496 10.1291C80.159 10.1815 78.9458 10.2078 78.11 10.2078C78.1639 10.5487 78.2179 10.9289 78.2718 11.3485C78.3527 11.8992 78.4605 12.6335 78.5953 13.5513C78.7571 14.5479 78.8649 15.2821 78.9188 15.7542ZM61.934 10.2864C62.2845 10.3127 62.6485 10.3258 63.0259 10.3258C63.4303 10.3258 63.7943 10.3127 64.1178 10.2864C64.4683 10.2602 64.8457 10.2209 65.2501 10.1684C65.6815 10.0898 66.0319 10.0242 66.3015 9.97175L67.4339 9.77506C67.8922 9.67017 68.2427 9.59149 68.4853 9.53905L69.6176 9.22436C70.1299 9.09324 70.4938 9.00145 70.7095 8.949L69.1728 6.43149C68.5257 5.40875 68.1213 4.83182 67.9596 4.7007C67.4204 4.20244 66.7599 4.00576 65.978 4.11065C65.2501 4.21555 64.4683 4.62202 63.6325 5.33007C62.7698 6.03812 62.271 6.73306 62.1362 7.41489C61.9475 8.22784 61.8801 9.18502 61.934 10.2864ZM62.1767 12.922C65.2231 11.873 68.3909 11.0732 71.6801 10.5225L71.2352 9.77506L70.9926 9.3817C70.723 9.43415 70.2916 9.53905 69.6985 9.69639L68.4449 10.0111L67.1912 10.2864C66.5981 10.4176 66.1667 10.5093 65.8971 10.5618C65.6275 10.588 65.1962 10.6405 64.6031 10.7191C64.0099 10.7978 63.5651 10.824 63.2685 10.7978C62.9989 10.7716 62.5541 10.7585 61.934 10.7585C61.961 11.0469 61.9879 11.3747 62.0149 11.7419C62.0688 12.0566 62.1227 12.4499 62.1767 12.922ZM68.4044 17.721C68.3775 16.9605 68.337 16.2918 68.2831 15.7148C68.2561 15.4526 68.3775 15.3084 68.6471 15.2821C68.7819 15.2821 68.8897 15.3215 68.9706 15.4001C69.5907 15.4526 70.1838 15.8066 70.7499 16.4622C71.0195 16.7507 71.2891 17.1047 71.5587 17.5243C72.6102 17.5243 73.7964 17.3407 75.1175 16.9736C75.2792 16.9474 75.3736 17.0129 75.4005 17.1703C75.4545 17.3014 75.414 17.3932 75.2792 17.4456C74.0121 17.7865 72.8798 17.9701 71.8823 17.9963C72.0171 18.2586 72.1788 18.547 72.3675 18.8617L72.408 18.9797C73.5942 18.3504 74.9018 18.0094 76.3307 17.957L75.9667 17.485C75.104 16.4098 74.5783 15.6624 74.3895 15.2428C74.1469 14.7445 73.3246 13.3153 71.9227 10.9551C68.5527 11.5059 65.3175 12.3188 62.2171 13.394C62.3789 14.6265 62.4732 15.5706 62.5002 16.2262C62.5271 16.8031 62.5271 17.4063 62.5002 18.0357C64.6839 17.8259 66.6385 17.721 68.364 17.721H68.4044ZM66.8677 26.0602C66.652 26.1127 66.0993 26.27 65.2097 26.5323C63.8886 26.8994 62.8237 27.083 62.0149 27.083C62.0419 27.2141 62.0553 27.3321 62.0553 27.437C62.0553 27.6206 62.0688 27.7779 62.0958 27.909C62.2575 28.4598 62.5137 28.8138 62.8641 28.9711C62.972 29.0236 63.1607 29.0367 63.4303 29.0105C63.7538 28.9842 63.983 28.9974 64.1178 29.0498C64.3874 29.1547 64.5626 29.2465 64.6435 29.3252C64.6974 29.3776 64.7109 29.43 64.6839 29.4825V29.5218C64.7648 29.5743 64.8861 29.6267 65.0479 29.6792C65.5332 29.8365 65.9106 29.7185 66.1802 29.3252C66.4229 28.9842 66.5981 28.4204 66.7059 27.6337C66.7868 27.2666 66.8407 26.7421 66.8677 26.0602ZM68.3235 19.9238V19.6091C68.3235 19.5304 68.3505 19.478 68.4044 19.4518V18.193H68.364C66.6385 18.193 64.6839 18.2979 62.5002 18.5077C62.4732 19.2157 62.3923 20.2909 62.2575 21.7333C62.8507 21.6808 63.7943 21.3924 65.0883 20.8679C66.4903 20.2909 67.5687 19.9762 68.3235 19.9238ZM68.364 20.3958C67.663 20.4483 66.6385 20.7499 65.2905 21.3006C63.9425 21.8513 62.9181 22.1529 62.2171 22.2053C62.0553 24.0934 61.9879 25.562 62.0149 26.611C62.7698 26.6372 63.7943 26.4536 65.0883 26.0602L66.9081 25.5489C66.9351 25.208 66.9621 24.9457 66.989 24.7622C67.016 24.4999 67.0699 24.3163 67.1508 24.2114C67.2317 24.0803 67.4473 23.923 67.7978 23.7394C68.0405 23.6083 68.1887 23.4772 68.2427 23.3461C68.3775 22.9789 68.4314 22.3758 68.4044 21.5366C68.4044 21.353 68.3909 20.9728 68.364 20.3958ZM67.2317 25.4702C67.8787 25.3391 68.4583 25.2735 68.9706 25.2735H69.011C68.7684 24.4344 68.6336 23.7919 68.6066 23.3461C68.5797 23.3723 68.5662 23.3985 68.5662 23.4247C68.4853 23.6607 68.2696 23.8574 67.9191 24.0148C67.6226 24.1721 67.4473 24.2901 67.3934 24.3688C67.3665 24.4475 67.3395 24.5917 67.3125 24.8015C67.2856 24.9588 67.2586 25.1817 67.2317 25.4702ZM64.3604 29.4825C64.3065 29.4563 64.1987 29.4169 64.0369 29.3645C63.9291 29.312 63.7403 29.2989 63.4707 29.3252C63.1472 29.3514 62.8911 29.3383 62.7024 29.2858C62.5137 29.1809 62.3519 29.0498 62.2171 28.8925C62.298 29.3907 62.4463 29.7972 62.6619 30.1119C62.9315 30.5577 63.3764 30.8724 63.9965 31.0559C64.6165 31.2395 65.304 31.2657 66.0589 31.1346C66.7868 31.0035 67.4339 30.7544 68 30.3872C68.5931 30.0201 68.9975 29.6005 69.2132 29.1285C69.5098 28.4204 69.5233 27.4764 69.2537 26.2963C69.2267 26.1127 69.1863 25.916 69.1323 25.7062C69.0784 25.7324 69.0245 25.7456 68.9706 25.7456C68.4583 25.7456 67.8652 25.8242 67.1912 25.9816C67.1373 26.6896 67.0834 27.2534 67.0295 27.673C66.9216 28.5122 66.7329 29.1285 66.4633 29.5218C66.1128 30.0463 65.6141 30.2037 64.967 29.9939C64.6974 29.889 64.5222 29.8103 64.4413 29.7579C64.3874 29.7054 64.3469 29.6398 64.32 29.5612L64.3604 29.4825ZM83.2864 24.2114C82.6663 24.1066 82.0327 24.041 81.3857 24.0148C80.7386 23.9623 80.0377 23.9754 79.2828 24.0541C78.5279 24.1328 77.8809 24.2114 77.3417 24.2901C76.8294 24.3688 76.1419 24.4868 75.2792 24.6441C76.1689 26.5323 77.3147 27.6337 78.7166 27.9484C79.0132 28.0271 79.2558 27.9746 79.4445 27.791C79.795 27.5026 80.0646 27.3452 80.2533 27.319C80.4421 27.2928 80.6173 27.3583 80.7791 27.5157C80.806 27.5419 80.9274 27.6861 81.143 27.9484C81.2778 28.1057 81.3992 28.1975 81.507 28.2237C81.6148 28.2762 81.7496 28.2631 81.9114 28.1844C82.7741 27.791 83.2324 26.8207 83.2864 25.2735V24.2114ZM84.0143 18.9404C83.4212 18.7306 82.491 18.547 81.2239 18.3897C79.9568 18.2323 79.2289 18.1406 79.0401 18.1143C79.0132 18.1143 78.9862 18.1012 78.9593 18.075C78.8514 18.6519 78.5953 19.0191 78.1909 19.1764C78.0022 19.2551 77.7865 19.2289 77.5439 19.0977C77.3821 18.9928 77.2069 18.8617 77.0181 18.7044C76.9373 18.5995 76.8429 18.4946 76.7351 18.3897C75.1983 18.4421 73.8369 18.7831 72.6506 19.4124L74.8344 24.2508C75.8049 24.0672 76.5194 23.9361 76.9777 23.8574C77.463 23.7787 78.1235 23.7001 78.9593 23.6214C79.795 23.5165 80.5499 23.4772 81.2239 23.5034C81.9249 23.5296 82.6124 23.6083 83.2864 23.7394L83.2459 23.3067C83.219 22.5462 83.2324 21.9824 83.2864 21.6153C83.4212 20.8285 83.6638 19.9369 84.0143 18.9404ZM84.176 18.5077L84.2165 18.429C84.2974 17.6423 84.4591 16.5147 84.7018 15.0461C83.9738 15.0461 82.9494 15.2428 81.6283 15.6362C80.3342 16.0033 79.458 16.2 78.9997 16.2262C79.0536 16.8031 79.0536 17.2752 78.9997 17.6423H79.121C79.2289 17.6685 79.9298 17.7603 81.2239 17.9177C82.545 18.075 83.529 18.2717 84.176 18.5077ZM83.6099 23.8181L84.176 23.9754C84.176 23.7919 84.1626 23.569 84.1356 23.3067C84.0547 21.707 84.0412 20.5138 84.0952 19.7271C83.8795 20.4089 83.7177 21.0646 83.6099 21.6939C83.556 22.0086 83.5425 22.5462 83.5694 23.3067L83.6099 23.8181ZM83.6099 24.2901V25.2735C83.556 26.9519 83.0437 28.0271 82.0732 28.4991C81.8036 28.604 81.5609 28.6171 81.3452 28.5384C81.2104 28.4598 81.0621 28.3286 80.9004 28.1451L80.5769 27.7517C80.469 27.673 80.3881 27.6337 80.3342 27.6337C80.1725 27.6599 79.9433 27.791 79.6467 28.0271C79.3771 28.2631 79.0401 28.3417 78.6357 28.2631C77.4225 27.9746 76.4115 27.1748 75.6027 25.8636C76.762 28.25 77.8269 29.7972 78.7975 30.5052C79.4176 30.951 80.0242 31.1215 80.6173 31.0166C81.3452 30.8855 82.1136 30.4003 82.9224 29.5612C83.6503 28.7744 84.0547 28.0664 84.1356 27.437C84.2165 26.6503 84.2434 25.6669 84.2165 24.4868C84.0008 24.4081 83.7986 24.3426 83.6099 24.2901ZM70.4669 13.63L70.9117 13.9447C71.0195 14.0496 71.0195 14.1676 70.9117 14.2987C70.8308 14.4036 70.723 14.4167 70.5882 14.3381L70.1433 14.0234C70.0355 13.9185 70.022 13.8136 70.1029 13.7087C70.2107 13.5776 70.3321 13.5513 70.4669 13.63ZM82.8011 3.87463V5.2514C82.8011 5.40875 82.7202 5.48742 82.5584 5.48742C82.3967 5.48742 82.3158 5.40875 82.3158 5.2514V3.87463C82.3158 3.71729 82.3967 3.63862 82.5584 3.63862C82.7202 3.63862 82.8011 3.71729 82.8011 3.87463ZM65.2905 6.78551C65.5332 6.81174 65.8297 6.89041 66.1802 7.02153L67.0295 7.33622C67.1912 7.38867 67.2451 7.49357 67.1912 7.65091C67.1373 7.80825 67.0295 7.8607 66.8677 7.80825C66.8677 7.78203 66.5846 7.66402 66.0185 7.45423C65.7219 7.34933 65.4523 7.28377 65.2097 7.25755C65.0479 7.23132 64.9805 7.13954 65.0075 6.98219C65.0344 6.82485 65.1288 6.75929 65.2905 6.78551ZM65.978 13.1186L66.1398 13.3547L66.2207 13.394C66.2207 13.4202 66.2207 13.4464 66.2207 13.4727C66.2207 13.4727 66.2476 13.4858 66.3015 13.512C66.3555 13.5382 66.4229 13.5776 66.5037 13.63C66.6116 13.7349 66.6116 13.8529 66.5037 13.984C66.4229 14.0889 66.315 14.102 66.1802 14.0234C65.9645 13.8398 65.8432 13.748 65.8163 13.748L65.5736 13.3547C65.4927 13.2235 65.5197 13.1186 65.6545 13.04C65.7893 12.9613 65.8971 12.9875 65.978 13.1186ZM63.8347 24.1721L64.1582 23.8968C64.293 23.8181 64.4009 23.8443 64.4817 23.9754C64.5896 24.0803 64.5896 24.1852 64.4817 24.2901L64.1582 24.5655C64.0234 24.6441 63.9021 24.631 63.7943 24.5261C63.7134 24.395 63.7269 24.277 63.8347 24.1721ZM80.496 25.2735C80.3612 25.6669 80.2938 26.1127 80.2938 26.611C80.2938 26.7683 80.2129 26.847 80.0511 26.847C79.8894 26.847 79.8085 26.7683 79.8085 26.611C79.8085 26.0602 79.8759 25.562 80.0107 25.1162C80.0646 24.9851 80.159 24.9457 80.2938 24.9982C80.4555 25.0244 80.5229 25.1162 80.496 25.2735ZM78.0291 22.0086C78.1909 22.0086 78.2718 22.0873 78.2718 22.2446C78.2718 22.402 78.1909 22.4807 78.0291 22.4807C77.8674 22.4807 77.7865 22.402 77.7865 22.2446C77.7865 22.0873 77.8674 22.0086 78.0291 22.0086ZM82.2754 11.1518C82.4371 11.1518 82.518 11.2305 82.518 11.3878C82.518 11.5452 82.4371 11.6239 82.2754 11.6239C82.1136 11.6239 82.0327 11.5452 82.0327 11.3878C82.0327 11.2305 82.1136 11.1518 82.2754 11.1518ZM64.8053 15.2821C64.967 15.2821 65.0479 15.3608 65.0479 15.5181C65.0479 15.6755 64.967 15.7542 64.8053 15.7542C64.6435 15.7542 64.5626 15.6755 64.5626 15.5181C64.5626 15.3608 64.6435 15.2821 64.8053 15.2821Z" fill="black"/>
<path d="M97.5211 1.98656L95.2564 1.2785L92.0212 2.45859L90.6463 7.80831L90.3228 14.8888L91.0507 22.3627L92.3448 24.0935H93.9624L95.2564 25.1949L97.5211 25.903L97.8446 27.3977L99.3813 29.2072L98.3299 30.702L100.675 31.4887L104.962 31.0953L109.977 29.6792L113.94 25.903L115.072 22.3627L115.8 13.4727V5.92018L114.829 2.93062L112.322 1.82921H110.462L109.087 2.45859L108.035 4.11071L107.712 9.93247L108.035 17.4063L106.418 21.576L105.852 22.3627L104.962 22.8347H103.425L102.131 22.3627L101.161 20.3172V17.0917L100.675 9.30309L98.8152 3.40266L97.5211 1.98656Z" fill="#82BCC7"/>
<path d="M115.153 22.9921C115.018 23.5428 114.87 24.0542 114.708 24.5262C113.333 28.3287 110.543 30.6233 106.337 31.41C102.59 32.1181 99.8128 32.0263 98.0064 31.1347C97.7638 31.0036 97.6964 30.8331 97.8042 30.6233C97.8582 30.4922 97.9525 30.4135 98.0873 30.3873L98.1278 30.3479C98.4513 29.9546 98.6265 29.6268 98.6535 29.3645C98.6804 29.2072 98.64 29.063 98.5322 28.9318C98.5052 28.8794 98.3165 28.6827 97.966 28.3418C97.6425 28.0271 97.4133 27.7255 97.2785 27.4371C97.2246 27.3584 97.1572 27.0568 97.0763 26.5323C97.0494 26.375 96.955 26.2308 96.7932 26.0996C96.6584 26.0472 96.3349 25.9947 95.8227 25.9423C95.5261 25.9161 95.3104 25.8898 95.1756 25.8636C94.906 25.8112 94.7038 25.7194 94.569 25.5883C94.3534 25.3523 94.1781 25.1162 94.0433 24.8802C93.9624 24.6966 93.9085 24.6049 93.8816 24.6049H93.8007L93.8411 24.6442C93.8681 24.7229 93.8276 24.7884 93.7198 24.8409C93.6389 24.8671 93.5715 24.8278 93.5176 24.7229L93.4772 24.6049C93.3154 24.6049 93.0728 24.618 92.7492 24.6442C92.5605 24.6704 92.4257 24.6049 92.3448 24.4475L92.264 24.5262C92.0483 24.6835 91.8596 24.6573 91.6978 24.4475C90.9429 23.451 90.4576 22.4676 90.242 21.4973C90.0532 20.5795 89.9184 19.1896 89.8376 17.3277C89.7297 15.492 89.7162 13.5907 89.7971 11.6239C89.878 9.39487 90.0667 7.53295 90.3633 6.03818C90.7138 4.20249 91.199 2.96996 91.8191 2.34058C92.1966 1.94721 92.7223 1.64564 93.3963 1.43584C94.0703 1.22605 94.7038 1.12115 95.297 1.12115C96.7798 1.12115 97.993 1.90788 98.9366 3.48133C99.6645 4.68764 100.217 6.39221 100.595 8.59503C100.729 9.32931 100.837 10.1029 100.918 10.9159C100.999 11.7288 101.053 12.5418 101.08 13.3547L101.201 15.4395C101.228 15.9902 101.242 16.6458 101.242 17.4063C101.269 18.1406 101.282 18.5995 101.282 18.7831C101.282 19.1765 101.309 19.5567 101.363 19.9239C101.444 19.9501 101.511 19.9632 101.565 19.9632C101.7 20.0156 101.754 20.1205 101.727 20.2779C101.7 20.3828 101.619 20.4352 101.484 20.4352C101.619 21.0908 101.821 21.6022 102.091 21.9693C102.36 22.3365 102.697 22.5594 103.102 22.6381C103.587 22.743 104.18 22.6512 104.881 22.3627C105.232 22.2054 105.515 21.9956 105.73 21.7333C105.65 21.6809 105.609 21.6153 105.609 21.5366C105.609 21.3793 105.69 21.3006 105.852 21.3006H106.014C106.067 21.1695 106.229 20.8155 106.499 20.2385C107.335 18.298 107.645 15.7542 107.429 12.6073C107.429 12.3189 107.389 11.6895 107.308 10.7192C107.227 9.74889 107.173 9.04084 107.146 8.59503C107.119 8.123 107.105 7.50673 107.105 6.74623C107.132 5.95951 107.186 5.25145 107.267 4.62208C107.375 3.86158 107.699 3.2322 108.238 2.73394C108.777 2.20946 109.424 1.85543 110.179 1.67186C110.853 1.48829 111.581 1.47518 112.363 1.63253C113.144 1.78987 113.818 2.09145 114.385 2.53726C114.951 2.98307 115.382 3.73045 115.679 4.77942C115.921 5.59237 116.083 6.61511 116.164 7.84764C116.245 9.18507 116.231 11.0863 116.124 13.5514C115.962 16.8032 115.827 18.9405 115.719 19.9632C115.746 20.0156 115.76 20.0681 115.76 20.1205C115.733 20.173 115.706 20.2123 115.679 20.2385C115.571 21.1039 115.436 21.9038 115.274 22.6381C115.328 22.7167 115.342 22.7954 115.315 22.8741C115.288 22.9265 115.234 22.9659 115.153 22.9921ZM92.3448 15.3609C94.96 14.3381 97.629 13.8267 100.352 13.8267C100.325 13.6432 100.312 13.4596 100.312 13.276C98.5052 12.804 96.1732 12.686 93.3154 12.922C93.3154 13.1056 93.3019 13.2892 93.275 13.4727C93.221 13.8136 93.0054 14.2857 92.6279 14.8888L92.3448 15.3609ZM92.9919 12.9614L90.5655 13.1974C90.5655 14.1677 90.579 15.138 90.6059 16.1082C91.0373 15.8985 91.4686 15.7149 91.9 15.5575C91.9809 15.374 92.1292 15.0986 92.3448 14.7315C92.6953 14.1808 92.8975 13.735 92.9514 13.394C92.9784 13.2629 92.9919 13.1187 92.9919 12.9614ZM92.7088 23.1494L92.3044 22.5594C92.1966 22.5856 92.1157 22.5594 92.0618 22.4807C91.7382 21.7464 91.5226 20.9859 91.4147 20.1992C91.3338 20.2254 91.2664 20.2385 91.2125 20.2385H91.0103L90.8486 20.0812C90.9025 20.5795 90.9699 20.999 91.0508 21.34C91.1856 22.0218 91.4686 22.6905 91.9 23.3461L92.7088 23.1494ZM92.9919 23.5821L92.1831 23.7395L92.3448 23.9755C92.3448 24.0017 92.3583 24.0148 92.3853 24.0148C92.4392 23.9099 92.5336 23.8575 92.6684 23.8575C92.8571 23.8313 93.0054 23.8181 93.1132 23.8181C93.0862 23.7395 93.0458 23.6608 92.9919 23.5821ZM114.142 20.0419C113.01 19.7796 112.08 19.5961 111.352 19.4912C109.815 19.2814 108.575 19.2814 107.631 19.4912C107.523 19.8583 107.389 20.2123 107.227 20.5532L106.944 21.2613C109.181 21.2088 111.54 21.5235 114.021 22.2054V21.694C114.048 21.0384 114.075 20.5795 114.102 20.3172C114.102 20.2123 114.115 20.1205 114.142 20.0419ZM114.708 19.1371C114.789 19.1634 114.883 19.1765 114.991 19.1765C115.018 18.8618 115.045 18.5209 115.072 18.1537L115.032 18.2717C114.87 18.6651 114.762 18.9536 114.708 19.1371ZM114.546 19.6092V19.6485L114.91 19.7272L114.951 19.6485C114.816 19.6485 114.681 19.6354 114.546 19.6092ZM114.344 22.3234L114.506 22.3627C114.641 21.7071 114.762 20.9859 114.87 20.1992L114.466 20.0812C114.439 20.1599 114.425 20.2385 114.425 20.3172C114.398 20.5795 114.371 21.0384 114.344 21.694V22.3234ZM114.304 22.7954C114.277 22.9003 114.263 23.0052 114.263 23.1101C114.236 23.2937 114.209 23.4641 114.182 23.6215C114.236 23.3592 114.304 23.097 114.385 22.8347L114.304 22.7954ZM92.3448 12.5287C91.6439 12.5287 91.0508 12.5549 90.5655 12.6073V12.7253L92.3448 12.5287ZM113.374 13.5514C113.05 13.5252 112.686 13.5252 112.282 13.5514C111.958 13.5514 111.473 13.5645 110.826 13.5907C110.179 13.617 109.721 13.6301 109.451 13.6301C109.208 13.6301 108.844 13.6038 108.359 13.5514H108.319C108.4 15.492 108.265 17.1572 107.914 18.5471C108.831 18.4422 109.99 18.4946 111.392 18.7044C113.144 18.9667 114.142 19.1109 114.385 19.1371C114.439 18.9273 114.56 18.5995 114.749 18.1537C114.937 17.6292 115.072 17.2359 115.153 16.9736C115.18 16.5541 115.22 15.5838 115.274 14.0628C114.25 13.7743 113.616 13.6038 113.374 13.5514ZM109.572 11.2306C109.545 11.2043 109.532 11.165 109.532 11.1125C109.532 10.9552 109.613 10.8765 109.774 10.8765C111.608 10.8765 113.441 10.7192 115.274 10.4045C115.086 7.3625 114.991 5.78905 114.991 5.68415C114.991 5.63171 115.005 5.59237 115.032 5.56614C114.978 5.35635 114.924 5.15967 114.87 4.9761C114.627 4.11071 114.304 3.50755 113.899 3.16664C112.902 2.35369 111.729 2.11767 110.381 2.45858C109.761 2.61593 109.235 2.89128 108.804 3.28465C108.4 3.65178 108.157 4.12382 108.076 4.70075C107.887 6.09063 107.914 8.35901 108.157 11.5059L109.572 11.2306ZM114.789 10.9552C114.978 10.9814 115.153 11.0208 115.315 11.0732L115.274 10.8765L114.789 10.9552ZM98.3704 20.0812C97.2381 20.0288 95.9844 20.0025 94.6095 20.0025C94.3129 20.0025 93.895 20.0288 93.3558 20.0812C92.8166 20.1074 92.4796 20.1205 92.3448 20.1205C92.237 20.1205 92.0348 20.1468 91.7382 20.1992C91.8191 20.7761 91.9674 21.3531 92.1831 21.93C92.21 21.93 92.2235 21.9431 92.2235 21.9693C92.6549 22.4938 92.938 22.861 93.0728 23.0708C96.3619 22.3889 99.0579 22.0349 101.161 22.0087C100.918 21.5366 100.743 20.9597 100.635 20.2779C100.392 20.2517 100.123 20.2254 99.8262 20.1992C99.7723 20.3041 99.6914 20.3566 99.5836 20.3566C99.2601 20.3303 98.8557 20.2385 98.3704 20.0812ZM98.4513 19.6092C99.287 19.6616 99.988 19.7272 100.554 19.8058C100.5 19.4649 100.473 19.124 100.473 18.7831C100.473 18.5733 100.46 18.1931 100.433 17.6424V15.9902C100.406 15.4133 100.379 14.8495 100.352 14.2988C97.5212 14.2988 94.7443 14.8626 92.0213 15.9902C92.0213 16.0689 92.0078 16.1345 91.9809 16.1869C91.6574 17.3146 91.5495 18.4422 91.6574 19.5698C91.8191 19.5174 91.9944 19.478 92.1831 19.4518C92.6953 19.3994 93.3289 19.3469 94.0838 19.2945C95.6205 19.242 96.7124 19.2551 97.3594 19.3338C97.629 19.36 97.993 19.4518 98.4513 19.6092ZM97.2381 3.48133C96.4562 3.08797 95.7148 2.98307 95.0139 3.16664C94.3129 3.40265 93.8142 3.91402 93.5176 4.70075C93.3558 5.09411 93.4232 5.56614 93.7198 6.11685L93.8007 6.23486C94.2051 6.23486 94.6364 6.22175 95.0948 6.19552C96.2271 6.09063 97.4672 5.92017 98.8152 5.68415C98.977 5.65793 99.0714 5.72349 99.0983 5.88083C99.1253 6.03818 99.0579 6.12996 98.8961 6.15619C97.5481 6.39221 96.2945 6.56266 95.1352 6.66756C94.7308 6.69378 94.3668 6.7069 94.0433 6.7069C94.1512 7.02158 94.1781 7.31005 94.1242 7.57229C94.0433 7.86076 93.8411 8.35902 93.5176 9.06707C93.275 9.67022 93.1267 10.1685 93.0728 10.5618C93.0458 10.8765 93.0862 11.3486 93.1941 11.9779V12.096H93.9624C94.1242 12.096 94.2051 12.1746 94.2051 12.332V12.3713C96.5776 12.214 98.5996 12.3451 100.271 12.7647C100.163 11.2699 100.001 9.93246 99.7858 8.75238C99.4353 6.62822 98.9096 5.00233 98.2086 3.87469C97.4538 2.56348 96.4832 1.90788 95.297 1.90788C94.7847 1.90788 94.2455 1.99966 93.6794 2.18323C93.1132 2.3668 92.6818 2.60282 92.3853 2.89128C91.873 3.38954 91.4686 4.47784 91.1721 6.15619C90.8755 7.65096 90.6868 9.47354 90.6059 11.6239V12.1353C91.1451 12.0828 91.9 12.0697 92.8706 12.096V12.0173C92.7627 11.3617 92.7223 10.8765 92.7492 10.5618C92.8032 10.116 92.9649 9.57844 93.2345 8.94906C93.558 8.24101 93.7468 7.75586 93.8007 7.49362C93.8546 7.2576 93.8142 6.99536 93.6794 6.7069C92.6549 6.73312 91.9 6.65445 91.4147 6.47088C91.253 6.39221 91.199 6.28731 91.253 6.15619C91.3338 5.99884 91.4417 5.94639 91.5765 5.99884C91.9809 6.15619 92.601 6.23486 93.4367 6.23486C93.1132 5.63171 93.0323 5.09411 93.1941 4.62208C93.5446 3.70423 94.1242 3.1273 94.933 2.89128C95.7148 2.65527 96.5371 2.77328 97.3998 3.24531C97.4807 3.27153 97.4942 3.33709 97.4403 3.44199C97.4133 3.52066 97.3459 3.53377 97.2381 3.48133ZM100.756 30.6233C101.97 30.6233 102.671 30.4922 102.859 30.2299C102.859 30.2037 102.9 30.125 102.981 29.9939C103.061 29.889 103.129 29.7972 103.183 29.7186C103.398 29.4826 103.749 29.2728 104.234 29.0892C104.558 28.9581 105.043 28.9581 105.69 29.0892C106.364 29.2203 106.822 29.2596 107.065 29.2072C107.604 29.1285 108.089 28.7352 108.521 28.0271C108.575 27.9747 108.642 27.8829 108.723 27.7518L108.925 27.4764C108.952 27.3977 109.006 27.2928 109.087 27.1617L109.33 26.8864C109.411 26.8077 109.491 26.729 109.572 26.6503C109.68 26.5717 109.788 26.5061 109.896 26.4537C110.165 26.2963 110.678 26.139 111.433 25.9816C112.053 25.8767 112.497 25.6932 112.767 25.4309C113.414 24.8802 113.805 24.0935 113.94 23.0708C113.94 22.9659 113.953 22.8478 113.98 22.7167C111.446 21.9825 109.02 21.6546 106.701 21.7333C106.324 22.3627 105.825 22.8085 105.205 23.0708C104.369 23.4379 103.614 23.5559 102.94 23.4248C102.374 23.2937 101.889 22.979 101.484 22.4807C99.3275 22.5069 96.6045 22.8478 93.3154 23.5035L93.4772 23.8181H93.8007C94.0972 23.8181 94.3264 23.8968 94.4882 24.0542C94.5421 24.1328 94.6364 24.2902 94.7712 24.5262C94.8521 24.7098 94.9734 24.8802 95.1352 25.0376C95.1622 25.0638 95.2296 25.09 95.3374 25.1162C95.4452 25.1425 95.634 25.1556 95.9036 25.1556C96.5506 25.208 96.982 25.3129 97.1976 25.4703C97.602 25.7063 97.8312 26.021 97.8851 26.4143C97.966 26.8601 98.0064 27.0962 98.0064 27.1224C98.1143 27.3322 98.2895 27.5551 98.5322 27.7911C98.9096 28.1582 99.1253 28.3811 99.1792 28.4598C99.4218 28.7745 99.5162 29.1154 99.4623 29.4826C99.4084 29.8235 99.2196 30.2168 98.8961 30.6626C100.541 31.2396 102.967 31.2265 106.175 30.6233C109.977 29.9153 112.524 27.896 113.818 24.5655C113.63 24.9851 113.36 25.3523 113.01 25.6669C112.659 25.9554 112.16 26.1652 111.513 26.2963C110.785 26.4537 110.3 26.5848 110.058 26.6897L109.734 26.9257C109.653 26.9781 109.572 27.0699 109.491 27.2011L109.249 27.4764C109.222 27.5289 109.141 27.66 109.006 27.8698C108.898 28.0796 108.831 28.1845 108.804 28.1845C108.319 28.9712 107.766 29.417 107.146 29.5219C106.849 29.5743 106.351 29.535 105.65 29.4039C105.056 29.299 104.612 29.299 104.315 29.4039C103.911 29.5612 103.614 29.7317 103.425 29.9153L103.264 30.1513C103.183 30.2824 103.129 30.3611 103.102 30.3873C102.859 30.7544 102.077 30.938 100.756 30.938C100.649 30.938 100.595 30.8855 100.595 30.7806C100.595 30.6758 100.649 30.6233 100.756 30.6233ZM108.44 13.0794C108.817 13.1318 109.599 13.1449 110.785 13.1187C110.759 13.0662 110.745 13.0269 110.745 13.0007C110.745 12.8433 110.826 12.7647 110.988 12.7647C111.689 12.7647 112.511 12.8696 113.455 13.0794C113.805 13.1056 114.115 13.1449 114.385 13.1974C114.735 13.276 115.045 13.3809 115.315 13.5121C115.342 12.9614 115.355 12.6204 115.355 12.4893C115.355 12.2009 115.342 11.8862 115.315 11.5452C113.886 11.2043 111.513 11.3486 108.197 11.9779C108.224 12.1877 108.238 12.3844 108.238 12.568C108.265 12.7516 108.278 12.9351 108.278 13.1187C108.332 13.0925 108.386 13.0794 108.44 13.0794ZM96.4293 8.87039C96.4293 9.13263 96.5641 9.56533 96.8337 10.1685C96.9146 10.2996 96.8741 10.4045 96.7124 10.4832C96.5776 10.5356 96.4832 10.4832 96.4293 10.3258C96.1058 9.67022 95.944 9.18508 95.944 8.87039C95.944 8.71304 96.0249 8.63437 96.1866 8.63437C96.3484 8.63437 96.4293 8.71304 96.4293 8.87039ZM96.9146 17.485C97.2111 17.249 97.5886 16.9999 98.0469 16.7376C98.1817 16.659 98.2895 16.6852 98.3704 16.8163C98.4513 16.9474 98.4243 17.0523 98.2895 17.131C97.8851 17.3932 97.5346 17.6424 97.2381 17.8784C97.1033 17.957 96.982 17.9439 96.8741 17.839C96.7932 17.7079 96.8067 17.5899 96.9146 17.485ZM108.642 24.4082C108.804 24.9589 108.885 25.4047 108.885 25.7456C108.885 25.903 108.804 25.9816 108.642 25.9816C108.48 25.9816 108.4 25.903 108.4 25.7456C108.4 25.4571 108.319 25.0638 108.157 24.5655C108.13 24.4082 108.184 24.3164 108.319 24.2902C108.48 24.2377 108.588 24.2771 108.642 24.4082ZM103.183 25.6669C103.129 26.5061 102.886 27.2797 102.455 27.9878C102.374 28.1189 102.266 28.1451 102.131 28.0665C101.997 27.9878 101.97 27.8829 102.05 27.7518C102.428 27.0962 102.644 26.4012 102.697 25.6669C102.697 25.5096 102.778 25.4309 102.94 25.4309C103.102 25.4309 103.183 25.5096 103.183 25.6669ZM111.918 5.99884C112.08 5.99884 112.16 6.07752 112.16 6.23486C112.16 6.3922 112.08 6.47088 111.918 6.47088C111.756 6.47088 111.675 6.3922 111.675 6.23486C111.675 6.07752 111.756 5.99884 111.918 5.99884ZM111.149 16.5803C111.311 16.5803 111.392 16.659 111.392 16.8163C111.392 16.9736 111.311 17.0523 111.149 17.0523C110.988 17.0523 110.907 16.9736 110.907 16.8163C110.907 16.659 110.988 16.5803 111.149 16.5803ZM90.8486 19.9632C90.8486 19.937 90.862 19.9107 90.889 19.8845C90.916 19.8583 90.9294 19.8321 90.9294 19.8058C91.0373 19.7534 91.1721 19.701 91.3338 19.6485C91.226 18.4946 91.3338 17.3277 91.6574 16.1476L90.6059 16.6196C90.6598 17.957 90.7407 19.0716 90.8486 19.9632Z" fill="black"/>
<path d="M123.484 2.22245L121.704 3.16652L120.167 5.92005L119.925 7.65084L121.704 9.69633L126.476 10.0897L128.417 10.6404L128.66 11.8205L128.417 14.9674L127.851 20.7891L128.983 26.9256L130.116 28.8924L131.976 30.3872H133.755L135.13 28.8924L136.182 26.3749L135.939 19.5304L135.373 12.9219L136.182 10.6404L138.042 10.0897L141.843 9.69633L143.38 8.43757L143.946 6.31341L143.056 3.95324L140.064 1.90776L131.733 1.19971L123.484 2.22245Z" fill="#FFD53F"/>
<path d="M129.469 28.6957C128.687 27.6205 128.134 26.2699 127.811 24.644C127.487 22.9919 127.339 21.4578 127.366 20.0417C127.42 18.6256 127.568 17.1833 127.811 15.7147L128.013 14.692C128.121 14.1413 128.188 13.7479 128.215 13.5119C128.242 13.2759 128.256 12.9612 128.256 12.5678C128.256 12.1482 128.215 11.7811 128.134 11.4664C128.053 11.0993 127.703 10.8633 127.083 10.7584C126.867 10.7321 126.058 10.7059 124.656 10.6797C124.09 10.6535 123.591 10.6141 123.16 10.5617C122.756 10.5092 122.311 10.4043 121.826 10.247C121.34 10.0634 120.909 9.80118 120.531 9.46027C120.181 9.09313 119.898 8.63421 119.682 8.0835C119.332 7.16565 119.547 6.06424 120.329 4.77926C120.545 4.35967 120.801 3.99253 121.098 3.67785L121.017 3.59917C120.882 3.36315 120.936 3.17958 121.179 3.04846C121.313 2.99602 121.462 2.90423 121.623 2.77311L122.109 2.45842C122.513 2.16996 122.904 1.97328 123.281 1.86838C124.575 1.55369 126.368 1.29145 128.66 1.08165C130.979 0.871862 133.189 0.832527 135.292 0.963647C137.961 1.14722 140.037 1.60614 141.52 2.34041C143.38 3.31071 144.243 4.70058 144.108 6.51005C144 7.92615 143.515 8.93578 142.652 9.53894C142.032 9.98475 141.115 10.247 139.902 10.3257C139.767 10.3257 139.377 10.3388 138.73 10.365C138.082 10.3912 137.611 10.4174 137.314 10.4437C136.586 10.5748 136.141 10.8633 135.98 11.3091C135.737 12.0171 135.683 13.3939 135.818 15.4394C135.845 16.0163 135.912 16.9866 136.02 18.3502C136.155 19.6877 136.249 20.7235 136.303 21.4578C136.438 23.9229 136.384 25.8241 136.141 27.1616C135.764 29.0497 134.955 30.1904 133.715 30.5838C133.041 30.8198 132.367 30.8067 131.693 30.5445C131.046 30.2822 130.466 29.8889 129.954 29.3644L129.914 29.2857C129.914 29.3119 129.9 29.3382 129.873 29.3644C129.765 29.3906 129.684 29.3644 129.63 29.2857C129.55 29.0759 129.496 28.8792 129.469 28.6957ZM128.822 23.8967C128.849 23.9753 128.889 24.054 128.943 24.1327C128.97 24.2376 128.93 24.3162 128.822 24.3687C128.741 24.3949 128.673 24.3687 128.619 24.29C128.539 24.0802 128.471 23.8704 128.417 23.6606C128.633 25.103 129.01 26.3355 129.55 27.3582L129.711 26.9649C129.711 26.9387 129.779 26.7944 129.914 26.5322C129.968 26.3486 130.021 26.2175 130.075 26.1388C130.156 25.8503 130.17 25.6143 130.116 25.4308C130.062 25.2472 129.887 24.985 129.59 24.644C129.294 24.2769 129.105 24.0147 129.024 23.8573C128.997 23.8835 128.957 23.8967 128.903 23.8967H128.822ZM129.267 23.582C129.32 23.7655 129.509 24.054 129.833 24.4474C130.156 24.8407 130.358 25.1423 130.439 25.3521C130.52 25.5881 130.493 25.8766 130.358 26.2175C130.331 26.3224 130.278 26.4666 130.197 26.6502L129.994 27.0829C129.887 27.3451 129.819 27.568 129.792 27.7516C130.035 28.145 130.305 28.499 130.601 28.8137C131.518 29.8364 132.475 30.1904 133.472 29.8758C134.389 29.5611 135.009 28.6039 135.333 27.0042C135.575 25.7192 135.629 23.8835 135.494 21.4971C135.44 20.7629 135.346 19.727 135.211 18.3896C135.103 17.0259 135.036 16.0687 135.009 15.518C134.874 13.3414 134.955 11.8598 135.252 11.0731C135.494 10.3125 136.141 9.85363 137.193 9.69628C137.408 9.64383 137.665 9.61761 137.961 9.61761C138.285 9.59139 138.635 9.57827 139.013 9.57827C139.39 9.55205 139.673 9.53894 139.862 9.53894C140.886 9.46027 141.655 9.25047 142.167 8.90956C142.841 8.43752 143.218 7.61146 143.299 6.43138C143.407 4.98905 142.679 3.86141 141.115 3.04846C139.741 2.34041 137.786 1.90771 135.252 1.75037C133.176 1.61925 131.005 1.65859 128.741 1.86838C126.476 2.07817 124.71 2.34041 123.443 2.6551H123.362C123.362 2.70755 123.335 2.74689 123.281 2.77311C123.335 2.82556 123.362 2.89112 123.362 2.96979C123.389 3.20581 123.268 3.35004 122.998 3.40249H122.917C123.133 4.00565 123.201 4.42523 123.12 4.66125C123.066 4.76615 123.012 4.87104 122.958 4.97594C122.931 5.05461 122.877 5.13328 122.796 5.21196C122.742 5.2644 122.702 5.30374 122.675 5.32997L122.473 5.44797C122.392 5.50042 122.338 5.52665 122.311 5.52665C122.176 5.60532 122.082 5.71022 122.028 5.84134C121.947 5.99868 121.906 6.22158 121.906 6.51005C121.933 6.51005 121.947 6.52316 121.947 6.54939C122.567 7.5459 123.16 8.14906 123.726 8.35885C124.131 8.5162 124.562 8.46375 125.02 8.20151C125.182 8.09661 125.384 7.95238 125.627 7.76881C125.977 7.48034 126.18 7.323 126.234 7.29678C126.746 6.92964 127.191 6.79852 127.568 6.90341C127.73 6.95586 127.905 7.08698 128.094 7.29678C128.309 7.50657 128.458 7.63769 128.539 7.69014L129.469 8.04416C129.873 8.20151 130.156 8.42441 130.318 8.71288C130.372 8.87022 130.399 9.08002 130.399 9.34226C130.399 9.57827 130.372 9.87985 130.318 10.247C130.237 10.8501 130.089 11.6238 129.873 12.5678C129.28 15.0329 128.983 16.3572 128.983 16.5408C128.795 19.5566 128.808 21.8774 129.024 23.5033C129.132 23.4771 129.213 23.5033 129.267 23.582ZM127.892 3.99253L128.903 4.66125C129.307 4.92349 129.644 5.13328 129.914 5.29063C130.048 5.3693 130.075 5.4742 129.994 5.60532C129.914 5.73644 129.806 5.76266 129.671 5.68399C129.374 5.52665 129.024 5.31685 128.619 5.05461L127.649 4.3859C127.514 4.30722 127.487 4.20233 127.568 4.07121C127.649 3.94009 127.757 3.91386 127.892 3.99253ZM133.796 7.25744V6.98209C133.796 6.87719 133.796 6.79852 133.796 6.74607C133.823 6.69362 133.863 6.62806 133.917 6.54939C134.025 6.47071 134.092 6.39204 134.119 6.31337C134.227 6.20847 134.335 6.20847 134.443 6.31337C134.578 6.39204 134.605 6.49694 134.524 6.62806C134.47 6.68051 134.402 6.75918 134.322 6.86408L134.281 6.90341V7.25744C134.281 7.41478 134.2 7.49346 134.038 7.49346C133.877 7.49346 133.796 7.41478 133.796 7.25744ZM139.013 4.3859C139.04 4.70059 139.053 5.43486 139.053 6.58872C139.053 6.74607 138.972 6.82474 138.81 6.82474C138.649 6.82474 138.568 6.74607 138.568 6.58872C138.568 5.43486 138.554 4.72681 138.527 4.46457C138.5 4.30722 138.568 4.21544 138.73 4.18922C138.891 4.16299 138.986 4.22855 139.013 4.3859ZM132.057 13.3939L132.259 13.7086C132.313 13.8135 132.34 13.879 132.34 13.9053C132.367 13.9315 132.421 14.0888 132.502 14.3773C132.529 14.5346 132.461 14.6395 132.3 14.692C132.165 14.7182 132.07 14.6658 132.016 14.5346L131.895 14.1019C131.895 14.0757 131.868 14.0233 131.814 13.9446L131.653 13.6299C131.572 13.4988 131.599 13.3939 131.733 13.3152C131.868 13.2365 131.976 13.2628 132.057 13.3939ZM130.035 19.609C130.412 19.4254 131.086 19.0583 132.057 18.5076C132.192 18.4289 132.3 18.4551 132.38 18.5863C132.461 18.7174 132.434 18.8223 132.3 18.901C131.329 19.4517 130.655 19.8188 130.278 20.0024C130.116 20.081 129.994 20.0548 129.914 19.9237C129.86 19.7663 129.9 19.6615 130.035 19.609ZM132.461 23.1099C132.488 22.6903 132.502 22.1527 132.502 21.4971C132.502 21.3398 132.583 21.2611 132.744 21.2611C132.906 21.2611 132.987 21.3398 132.987 21.4971C132.987 22.1527 132.974 22.6903 132.947 23.1099C132.947 23.2673 132.866 23.3459 132.704 23.3459C132.542 23.3459 132.461 23.2673 132.461 23.1099ZM133.715 26.6108C133.742 26.742 133.863 27.1484 134.079 27.8303C134.241 28.3023 134.349 28.7088 134.402 29.0497C134.429 29.207 134.362 29.2988 134.2 29.325C134.038 29.3513 133.944 29.2857 133.917 29.1284C133.863 28.8137 133.755 28.4203 133.594 27.9483C133.378 27.2665 133.257 26.8731 133.23 26.7682C133.203 26.6108 133.257 26.5191 133.391 26.4928C133.553 26.4404 133.661 26.4797 133.715 26.6108ZM132.583 10.601L133.108 10.129C133.216 10.0241 133.324 10.0241 133.432 10.129C133.54 10.2339 133.54 10.3388 133.432 10.4437L132.906 10.9157C132.798 11.0206 132.69 11.0206 132.583 10.9157C132.475 10.8108 132.475 10.7059 132.583 10.601ZM136.222 7.45412C137.058 7.63769 137.705 7.92615 138.163 8.31951C138.271 8.42441 138.271 8.52931 138.163 8.63421C138.056 8.7391 137.948 8.7391 137.84 8.63421C137.462 8.31952 136.896 8.0835 136.141 7.92615C135.98 7.89993 135.912 7.80815 135.939 7.6508C135.966 7.49346 136.06 7.4279 136.222 7.45412ZM127.366 9.97163C127.555 9.76184 128.04 9.28981 128.822 8.55553C128.93 8.45064 129.037 8.45064 129.145 8.55553C129.253 8.66043 129.253 8.76533 129.145 8.87022C128.417 9.57827 127.986 10.011 127.851 10.1683C128.444 10.3781 128.808 10.7584 128.943 11.3091C129.024 11.65 129.064 12.0565 129.064 12.5285C129.064 12.9743 129.037 13.3414 128.983 13.6299C128.957 13.8921 128.889 14.3117 128.781 14.8887C128.673 15.4394 128.619 15.7672 128.619 15.8721C128.269 18.0224 128.148 20.0679 128.256 22.0085L128.296 21.9692C128.404 21.943 128.471 21.9823 128.498 22.0872C128.525 22.2445 128.552 22.4674 128.579 22.7559C128.633 23.0181 128.673 23.2017 128.7 23.3066C128.485 21.6807 128.471 19.4254 128.66 16.5408C128.66 16.331 128.957 14.9936 129.55 12.5285C129.765 11.532 129.914 10.7584 129.994 10.2077C130.048 9.86674 130.075 9.57827 130.075 9.34226C130.075 9.10624 130.048 8.94889 129.994 8.87022C129.887 8.6342 129.671 8.45064 129.347 8.31951C128.727 8.0835 128.404 7.95238 128.377 7.92615C128.269 7.87371 128.107 7.72947 127.892 7.49346C127.73 7.33611 127.595 7.24433 127.487 7.2181C127.218 7.13943 126.867 7.24433 126.436 7.53279C126.382 7.58524 126.18 7.74258 125.829 8.00483C125.586 8.21462 125.371 8.37196 125.182 8.47686C124.616 8.79155 124.09 8.85711 123.605 8.67354C122.985 8.43752 122.365 7.80814 121.745 6.7854C121.637 6.7854 121.583 6.73296 121.583 6.62806C121.583 6.2347 121.637 5.93312 121.745 5.72333C121.826 5.53976 121.947 5.39553 122.109 5.29063C122.163 5.2644 122.216 5.23818 122.27 5.21196C122.351 5.15951 122.405 5.12017 122.432 5.09395C122.486 5.06772 122.527 5.02839 122.553 4.97594C122.607 4.92349 122.648 4.87104 122.675 4.81859C122.729 4.73992 122.769 4.66125 122.796 4.58258C122.85 4.39901 122.796 4.04498 122.634 3.5205C122.041 3.78274 121.502 4.33345 121.017 5.17262C120.37 6.24781 120.168 7.11321 120.41 7.76881C120.734 8.60798 121.246 9.1718 121.947 9.46027C122.648 9.72251 123.551 9.86674 124.656 9.89296C126.166 9.91919 127.029 9.95852 127.245 10.011H127.366V9.97163ZM131.612 4.14988C131.774 4.14988 131.855 4.22855 131.855 4.3859C131.855 4.54324 131.774 4.62191 131.612 4.62191C131.45 4.62191 131.369 4.54324 131.369 4.3859C131.369 4.22855 131.45 4.14988 131.612 4.14988ZM130.803 22.1265C130.965 22.1265 131.046 22.2052 131.046 22.3625C131.046 22.5199 130.965 22.5986 130.803 22.5986C130.642 22.5986 130.561 22.5199 130.561 22.3625C130.561 22.2052 130.642 22.1265 130.803 22.1265ZM136.788 3.75652C136.95 3.75652 137.031 3.83519 137.031 3.99253C137.031 4.14988 136.95 4.22855 136.788 4.22855C136.627 4.22855 136.546 4.14988 136.546 3.99253C136.546 3.83519 136.627 3.75652 136.788 3.75652Z" fill="black"/>
<path d="M159.88 8.9882L159.071 9.30289L157.939 9.93227L157.534 11.6631L159.637 13.1578L162.872 13.7872L166.431 15.9114L168.696 18.3502L169.747 22.6772L168.938 25.7454L166.431 28.6563L163.438 30.4658L158.828 31.7245L154.542 31.4098L152.358 30.7805L150.902 30.1511L149.365 29.207L147.99 26.4535L147.586 25.116V23.4639L148.557 21.0251L149.365 19.5303H153.005L154.299 20.317L155.108 21.8118L156.321 22.6772H157.939L159.637 22.2052L159.88 21.3398L159.637 19.7663L156.806 18.9796L153.328 17.9569L149.365 16.2261L147.99 14.1806L146.696 10.247L147.586 10.4043L149.204 9.93227L149.365 8.9882V7.5721L150.579 7.02139V6.31334L150.336 4.97591L152.034 4.73989L152.358 4.11051L151.468 2.30105L152.358 1.43565L156.806 0.648926H161.012L164.733 1.98636L166.997 3.40246L168.453 5.91998V8.35882L167.644 10.4043L166.431 11.6631L165.056 12.1351L162.872 11.6631L161.416 10.5616L159.88 8.9882Z" fill="#FF5757"/>
<path d="M157.049 12.0565C157.21 12.2926 157.44 12.4761 157.736 12.6073C157.493 12.3712 157.345 12.109 157.291 11.8205C157.129 10.9551 157.305 10.2209 157.817 9.6177C158.491 8.83098 159.138 8.47695 159.758 8.55562C158.922 8.03114 158.181 8.13604 157.534 8.87031C157.183 9.23745 156.954 9.68326 156.846 10.2077C156.766 10.7322 156.833 11.3092 157.049 11.9385V12.0565ZM151.387 2.85187L151.185 2.41918C151.077 2.18316 151.131 2.0127 151.347 1.90781C151.374 1.85536 151.414 1.80291 151.468 1.75046C151.657 1.56689 151.886 1.40955 152.155 1.27843C152.452 1.12108 152.681 1.01618 152.843 0.963737C153.032 0.911288 153.315 0.845728 153.692 0.767057C154.07 0.688384 154.299 0.635935 154.38 0.609711C157.615 -0.203237 160.567 -0.203237 163.236 0.609711C166.525 1.60623 168.439 3.67793 168.978 6.82483C169.086 7.50666 169.019 8.24093 168.776 9.02766C168.561 9.81438 168.237 10.47 167.806 10.9945C167.213 11.7025 166.458 12.1483 165.541 12.3319C165.244 12.3843 164.948 12.4237 164.651 12.4499C164.382 12.4499 164.126 12.4237 163.883 12.3712L163.195 12.1746C163.007 12.1221 162.805 12.0303 162.589 11.8992L162.063 11.5452C161.955 11.4665 161.807 11.3223 161.618 11.1125L161.214 10.7191C161.133 10.6404 161.012 10.5093 160.85 10.3258C160.311 9.74882 159.92 9.43413 159.677 9.38168C159.354 9.27679 158.949 9.5128 158.464 10.0897C158.087 10.5093 157.965 11.0338 158.1 11.6632C158.154 11.9516 158.397 12.2139 158.828 12.4499C159.205 12.6597 159.772 12.8564 160.526 13.04L161.173 13.1973L161.942 13.394C162.211 13.4464 162.414 13.4858 162.548 13.512C163.33 13.6956 163.883 13.866 164.206 14.0234C165.851 14.8625 167.172 15.9115 168.17 17.1702C169.167 18.4028 169.76 19.7927 169.949 21.3399C170.138 22.9133 169.801 24.5655 168.938 26.2962C168.075 28.0533 166.552 29.4431 164.368 30.4659C162.184 31.4624 159.852 31.9738 157.372 32C155.728 32 154.204 31.7771 152.802 31.3313C151.427 30.8855 150.214 30.1381 149.163 29.0891C148.111 28.0402 147.451 26.7683 147.181 25.2735C146.966 23.9885 147.019 22.8871 147.343 21.9693C147.693 20.8679 148.529 19.9369 149.85 19.1764C150.309 18.9142 150.983 18.783 151.872 18.783C152.762 18.783 153.49 18.9666 154.056 19.3337C154.46 19.6222 154.811 20.0418 155.107 20.5925L155.674 21.6152C155.701 21.6939 155.768 21.8119 155.876 21.9693C156.011 22.1004 156.132 22.2053 156.24 22.284C156.375 22.3364 156.523 22.3757 156.685 22.402C157.359 22.5593 158.06 22.4282 158.788 22.0086C159.488 21.589 159.745 21.0908 159.556 20.5138C159.367 20.068 158.855 19.7009 158.019 19.4124C157.723 19.3075 156.671 19.0715 154.865 18.7044C153.301 18.3634 151.953 17.9308 150.821 17.4063C149.662 16.8556 148.704 16.0295 147.95 14.9281C146.871 13.3809 146.399 11.873 146.534 10.4044V10.3651C146.534 10.2864 146.548 10.2209 146.575 10.1684C146.575 10.0635 146.588 9.9455 146.615 9.81438C146.669 9.55214 146.831 9.44724 147.1 9.49969C147.316 9.55214 147.424 9.68326 147.424 9.89305C148.071 9.81438 148.543 9.69637 148.839 9.53903C149.055 9.40791 149.176 9.26367 149.203 9.10633C149.203 9.00143 149.149 8.77853 149.041 8.43761C148.88 8.01803 148.866 7.70334 149.001 7.49355C149.136 7.28375 149.338 7.13952 149.608 7.06085C149.689 7.03462 149.783 7.0084 149.891 6.98218C149.999 6.95595 150.066 6.94284 150.093 6.94284C150.174 6.91662 150.228 6.87728 150.255 6.82483C150.309 6.74616 150.336 6.60193 150.336 6.39213L150.295 6.23479C150.268 6.12989 150.214 5.97255 150.133 5.76275C150.052 5.55296 149.999 5.40873 149.972 5.33006C149.945 5.25138 149.931 5.18582 149.931 5.13337C149.904 5.10715 149.891 5.08093 149.891 5.0547C149.891 4.97603 149.904 4.89736 149.931 4.81868C149.985 4.68756 150.079 4.60889 150.214 4.58267C150.268 4.55644 150.336 4.54333 150.416 4.54333C150.47 4.51711 150.592 4.50399 150.78 4.50399C151.158 4.50399 151.427 4.47777 151.589 4.42532C151.751 4.37287 151.845 4.30731 151.872 4.22864C151.899 4.01885 151.764 3.67793 151.468 3.2059C151.414 3.12723 151.4 3.03544 151.427 2.93055C151.4 2.90432 151.387 2.8781 151.387 2.85187ZM160.041 4.0713H163.074C163.236 4.0713 163.317 4.14997 163.317 4.30731C163.317 4.46466 163.236 4.54333 163.074 4.54333H160.041C159.879 4.54333 159.799 4.46466 159.799 4.30731C159.799 4.14997 159.879 4.0713 160.041 4.0713ZM151.549 10.9158C151.737 11.0994 151.967 11.3485 152.236 11.6632C152.587 12.0828 152.816 12.345 152.924 12.4499C153.005 12.581 152.978 12.699 152.843 12.8039C152.735 12.8826 152.627 12.8695 152.519 12.7646C152.438 12.6597 152.223 12.3975 151.872 11.9779C151.63 11.6632 151.414 11.4141 151.225 11.2305C151.117 11.1256 151.117 11.0207 151.225 10.9158C151.333 10.8109 151.441 10.8109 151.549 10.9158ZM156.887 16.9342C156.86 16.8556 156.833 16.7638 156.806 16.6589C156.779 16.5802 156.766 16.5146 156.766 16.4622V16.0295C156.766 15.8722 156.846 15.7935 157.008 15.7935C157.17 15.7935 157.251 15.8722 157.251 16.0295V16.4229L157.291 16.5409L157.372 16.8556C157.399 16.9867 157.332 17.0785 157.17 17.1309C157.035 17.1571 156.941 17.0916 156.887 16.9342ZM154.824 27.0043C155.148 27.0305 155.566 27.0436 156.078 27.0436L157.372 27.0043C157.534 27.0043 157.615 27.083 157.615 27.2403C157.615 27.3977 157.534 27.4763 157.372 27.4763H156.968C156.833 27.4763 156.671 27.4894 156.482 27.5157C156.321 27.5157 156.186 27.5157 156.078 27.5157C155.566 27.5157 155.121 27.5026 154.744 27.4763C154.582 27.4501 154.514 27.3583 154.541 27.201C154.568 27.0436 154.663 26.9781 154.824 27.0043ZM162.67 21.5366C162.724 21.9299 162.939 22.638 163.317 23.6607C163.371 23.8181 163.317 23.923 163.155 23.9754C162.993 24.0279 162.885 23.9754 162.832 23.8181C162.454 22.7167 162.238 21.9824 162.184 21.6152C162.158 21.4579 162.225 21.3661 162.387 21.3399C162.548 21.3137 162.643 21.3792 162.67 21.5366ZM159.475 24.7621V24.2901C159.475 24.1328 159.556 24.0541 159.718 24.0541C159.879 24.0541 159.96 24.1328 159.96 24.2901V24.7621C159.96 24.9195 159.879 24.9982 159.718 24.9982C159.556 24.9982 159.475 24.9195 159.475 24.7621ZM155.714 13.984C155.822 13.9578 155.93 13.9447 156.038 13.9447C156.065 13.9447 156.092 13.9447 156.118 13.9447C156.145 13.9185 156.159 13.9053 156.159 13.9053C156.186 13.9053 156.226 13.8922 156.28 13.866C156.334 13.8136 156.402 13.7742 156.482 13.748C156.644 13.6693 156.752 13.7087 156.806 13.866C156.887 13.9971 156.86 14.0889 156.725 14.1414C156.429 14.2987 156.267 14.3774 156.24 14.3774C156.24 14.3774 156.092 14.4036 155.795 14.4561C155.633 14.4823 155.539 14.4167 155.512 14.2594C155.485 14.102 155.552 14.0102 155.714 13.984ZM153.53 24.0147C153.611 24.4081 153.665 24.7359 153.692 24.9982C153.719 25.1555 153.652 25.2473 153.49 25.2735C153.328 25.2997 153.234 25.2342 153.207 25.0768C153.18 24.8146 153.126 24.4868 153.045 24.0934C153.018 23.9361 153.085 23.8443 153.247 23.8181C153.409 23.7918 153.503 23.8574 153.53 24.0147ZM161.416 6.51014C161.47 6.27412 161.591 6.20856 161.78 6.31346C161.834 6.33968 161.874 6.40524 161.901 6.51014C161.767 7.69023 161.578 8.58185 161.335 9.185C161.254 9.34235 161.147 9.3948 161.012 9.34235C161.093 9.42102 161.241 9.57837 161.457 9.81438C161.888 10.2602 162.225 10.6011 162.468 10.8371C162.737 11.0731 163.128 11.2829 163.64 11.4665C164.18 11.6501 164.759 11.6763 165.379 11.5452C166.107 11.4141 166.7 11.0731 167.159 10.5224C167.536 10.0766 167.833 9.5128 168.048 8.83098C168.237 8.14915 168.277 7.53288 168.17 6.98218C168.035 6.143 167.779 5.3825 167.401 4.70068C167.293 5.27761 167.199 5.74964 167.118 6.11678C167.064 6.27412 166.956 6.33968 166.795 6.31346C166.66 6.26101 166.606 6.16923 166.633 6.03811C166.741 5.61852 166.862 5.02848 166.997 4.26798C166.997 4.21553 167.024 4.17619 167.078 4.14997C166.188 2.83876 164.827 1.90781 162.993 1.3571C160.54 0.622823 157.723 0.635935 154.541 1.39643C154.433 1.42266 154.204 1.47511 153.854 1.55378C153.503 1.63245 153.247 1.69801 153.085 1.75046C152.951 1.77668 152.775 1.84224 152.56 1.94714C152.344 2.05204 152.169 2.17005 152.034 2.30117L152.115 2.53718C152.142 2.61586 152.155 2.69453 152.155 2.7732L152.196 2.81254C152.6 3.44192 152.748 3.9664 152.641 4.38599C152.56 4.77935 152.277 5.04159 151.791 5.17271C151.576 5.25138 151.252 5.29072 150.821 5.29072L150.902 5.4874C150.956 5.72342 151.01 5.88076 151.063 5.95943C151.117 6.16923 151.144 6.31346 151.144 6.39213C151.144 6.78549 151.063 7.08707 150.902 7.29687C150.767 7.48043 150.565 7.61155 150.295 7.69023C150.241 7.69023 150.16 7.70334 150.052 7.72956C149.972 7.75579 149.904 7.78201 149.85 7.80824C149.796 7.80824 149.756 7.83446 149.729 7.88691C149.729 7.96558 149.756 8.07048 149.81 8.2016C149.945 8.62118 150.012 8.93587 150.012 9.14567C149.985 9.59148 149.729 9.9455 149.244 10.2077C148.812 10.4438 148.179 10.6011 147.343 10.6798C147.289 11.8861 147.707 13.1448 148.597 14.4561C149.298 15.4526 150.174 16.2 151.225 16.6982C152.277 17.1965 153.544 17.6029 155.027 17.9176C156.86 18.311 157.938 18.5601 158.262 18.665C159.367 19.0322 160.041 19.5698 160.284 20.2778C160.634 21.2481 160.284 22.0479 159.232 22.6773C158.316 23.228 157.413 23.3985 156.523 23.1887C156.253 23.11 156.024 23.0182 155.835 22.9133C155.647 22.8084 155.471 22.6511 155.31 22.4413L154.946 22.0086C154.865 21.9037 154.757 21.7201 154.622 21.4579C154.487 21.1694 154.407 21.0121 154.38 20.9859C154.137 20.5138 153.867 20.186 153.571 20.0025C153.166 19.714 152.6 19.5698 151.872 19.5698C151.144 19.5698 150.605 19.6747 150.255 19.8844C149.122 20.5138 148.394 21.2874 148.071 22.2053C147.801 22.992 147.774 23.9623 147.99 25.1162C148.341 27.1092 149.378 28.6302 151.104 29.6792C152.856 30.7019 154.946 31.2133 157.372 31.2133C159.718 31.187 161.915 30.7019 163.964 29.7578C166.013 28.8138 167.428 27.555 168.21 25.9816C169.315 23.5689 169.45 21.3923 168.614 19.4517C167.806 17.5112 166.202 15.9377 163.802 14.7314C163.559 14.6003 163.074 14.4561 162.346 14.2987L162.144 14.22C162.279 14.4561 162.414 14.7839 162.548 15.2034C162.791 15.9902 163.02 16.5015 163.236 16.7376C163.532 17.1047 163.869 17.3145 164.247 17.3669C164.867 17.4456 165.285 17.5243 165.501 17.6029C165.77 17.7341 166.026 18.0619 166.269 18.5864L166.592 19.3731C166.646 19.5042 166.687 19.6091 166.714 19.6878C167.927 22.6511 167.361 25.2866 165.015 27.5943C164.045 28.5384 163.101 29.076 162.184 29.2071C162.023 29.2071 161.767 29.2202 161.416 29.2465C161.066 29.2727 160.715 29.312 160.365 29.3645C160.041 29.4169 159.691 29.4956 159.313 29.6005L158.1 29.9939C157.453 30.2299 156.981 30.361 156.685 30.3872C155.795 30.5446 154.824 30.3479 153.773 29.7972C153.503 29.6398 153.18 29.3251 152.802 28.8531C152.425 28.4335 152.128 28.1713 151.913 28.0664C151.832 28.0139 151.697 27.9746 151.508 27.9484C151.454 27.9484 151.36 27.9353 151.225 27.909C151.117 27.8828 151.037 27.8697 150.983 27.8697C150.47 27.791 150.147 27.6075 150.012 27.319C149.877 26.9519 149.85 26.4536 149.931 25.8242C149.958 25.6669 150.012 25.4177 150.093 25.0768C150.147 24.7621 150.187 24.5392 150.214 24.4081C150.241 24.1459 150.228 23.6869 150.174 23.0313C150.093 22.3757 150.093 21.9168 150.174 21.6546C150.255 21.1825 150.538 20.8679 151.023 20.7105C151.508 20.5269 152.277 20.5401 153.328 20.7498C153.436 20.7761 153.476 20.8416 153.449 20.9465C153.422 21.0514 153.355 21.0908 153.247 21.0645C152.277 20.881 151.562 20.8547 151.104 20.9859C150.753 21.117 150.538 21.353 150.457 21.6939C150.403 21.9562 150.416 22.3889 150.497 22.992C150.578 23.6738 150.592 24.1721 150.538 24.4868C150.511 24.6179 150.47 24.8408 150.416 25.1555C150.336 25.4702 150.282 25.7062 150.255 25.8636C150.174 26.4405 150.201 26.8732 150.336 27.1616C150.416 27.3714 150.646 27.5026 151.023 27.555C151.104 27.5812 151.198 27.6075 151.306 27.6337C151.441 27.6337 151.522 27.6337 151.549 27.6337C151.764 27.6599 151.94 27.6992 152.074 27.7517C152.344 27.8828 152.668 28.1844 153.045 28.6564C153.396 29.1022 153.692 29.3776 153.935 29.4825C154.905 30.0332 155.795 30.243 156.604 30.1119C156.927 30.0594 157.399 29.9283 158.019 29.7185L159.232 29.2858C159.61 29.1809 159.974 29.1022 160.324 29.0498C160.675 28.9973 161.025 28.958 161.376 28.9318C161.726 28.9056 161.982 28.8924 162.144 28.8924C162.98 28.7613 163.856 28.2499 164.773 27.3583C165.635 26.5192 166.242 25.6144 166.592 24.6441C166.565 24.6441 166.525 24.631 166.471 24.6048C166.067 24.395 165.42 24.2901 164.53 24.2901C164.368 24.2901 164.287 24.2114 164.287 24.0541C164.287 23.8967 164.368 23.8181 164.53 23.8181C165.501 23.8181 166.228 23.9492 166.714 24.2114H166.754C167.159 22.8216 167.037 21.3399 166.39 19.7664C166.363 19.714 166.323 19.6222 166.269 19.4911C166.242 19.36 166.202 19.2288 166.148 19.0977L165.986 18.7044C165.77 18.2586 165.554 17.9963 165.339 17.9176C165.177 17.8127 164.8 17.7341 164.206 17.6816C163.748 17.6292 163.344 17.3932 162.993 16.9736C162.751 16.6851 162.495 16.1213 162.225 15.2821C162.063 14.7314 161.874 14.338 161.659 14.102C161.066 13.9971 160.621 13.9053 160.324 13.8267C159.596 13.6169 159.017 13.4071 158.585 13.1973C157.615 13.0137 156.954 12.6204 156.604 12.0172C156.577 11.9385 156.59 11.873 156.644 11.8205C156.267 10.5618 156.482 9.5128 157.291 8.67363C157.669 8.25405 158.1 8.01803 158.585 7.96558C159.098 7.91313 159.623 8.08359 160.162 8.47695C160.243 8.5294 160.243 8.60807 160.162 8.71297C160.378 8.81786 160.621 8.97521 160.89 9.185C160.836 9.13255 160.823 9.08011 160.85 9.02766C161.066 8.5294 161.214 8.05736 161.295 7.61155L161.133 7.69023C160.971 7.71645 160.863 7.664 160.81 7.53288C160.783 7.37554 160.836 7.27064 160.971 7.21819C161.16 7.16574 161.295 7.04774 161.376 6.86417C161.376 6.78549 161.389 6.71993 161.416 6.66749C161.389 6.64126 161.389 6.58881 161.416 6.51014ZM159.879 27.0043C159.852 27.319 159.839 27.6206 159.839 27.909C159.839 28.0664 159.758 28.1451 159.596 28.1451C159.435 28.1451 159.354 28.0664 159.354 27.909C159.354 27.6206 159.367 27.319 159.394 27.0043C159.421 26.847 159.502 26.7814 159.637 26.8076C159.799 26.8076 159.879 26.8732 159.879 27.0043ZM155.755 5.25138C155.916 5.25138 155.997 5.33005 155.997 5.4874C155.997 5.64474 155.916 5.72342 155.755 5.72342C155.593 5.72342 155.512 5.64474 155.512 5.4874C155.512 5.33005 155.593 5.25138 155.755 5.25138ZM164.126 7.88691C164.287 7.88691 164.368 7.96558 164.368 8.12292C164.368 8.28027 164.287 8.35894 164.126 8.35894C163.964 8.35894 163.883 8.28027 163.883 8.12292C163.883 7.96558 163.964 7.88691 164.126 7.88691ZM153.409 15.1248C153.571 15.1248 153.652 15.2034 153.652 15.3608C153.652 15.5181 153.571 15.5968 153.409 15.5968C153.247 15.5968 153.166 15.5181 153.166 15.3608C153.166 15.2034 153.247 15.1248 153.409 15.1248ZM162.265 17.5243C162.427 17.5243 162.508 17.6029 162.508 17.7603C162.508 17.9176 162.427 17.9963 162.265 17.9963C162.104 17.9963 162.023 17.9176 162.023 17.7603C162.023 17.6029 162.104 17.5243 162.265 17.5243ZM162.184 26.5716C162.346 26.5716 162.427 26.6503 162.427 26.8076C162.427 26.965 162.346 27.0436 162.184 27.0436C162.023 27.0436 161.942 26.965 161.942 26.8076C161.942 26.6503 162.023 26.5716 162.184 26.5716ZM158.06 2.18316C158.221 2.18316 158.302 2.26183 158.302 2.41918C158.302 2.57652 158.221 2.65519 158.06 2.65519C157.898 2.65519 157.817 2.57652 157.817 2.41918C157.817 2.26183 157.898 2.18316 158.06 2.18316ZM164.773 21.1432C164.934 21.1432 165.015 21.2219 165.015 21.3792C165.015 21.5366 164.934 21.6152 164.773 21.6152C164.611 21.6152 164.53 21.5366 164.53 21.3792C164.53 21.2219 164.611 21.1432 164.773 21.1432ZM161.295 2.30117C161.457 2.30117 161.537 2.37984 161.537 2.53718C161.537 2.69453 161.457 2.7732 161.295 2.7732C161.133 2.7732 161.052 2.69453 161.052 2.53718C161.052 2.37984 161.133 2.30117 161.295 2.30117ZM154.622 8.24093C155.081 7.7689 155.606 7.30998 156.199 6.86417C156.334 6.78549 156.442 6.81172 156.523 6.94284C156.631 7.04774 156.631 7.15263 156.523 7.25753C155.741 7.83446 155.107 8.4245 154.622 9.02766C154.514 9.13255 154.393 9.14567 154.258 9.06699C154.15 8.9621 154.137 8.84409 154.218 8.71297L154.501 8.39828C154.528 8.31961 154.568 8.26716 154.622 8.24093Z" fill="black"/>
</svg>
