<svg width="211" height="40" viewBox="0 0 211 40" fill="none" xmlns="http://www.w3.org/2000/svg">
<path fill-rule="evenodd" clip-rule="evenodd" d="M1.68144 5.33496L0.476807 8.48186V15.5624L1.38028 30.1168L2.18338 36.8039L3.38801 37.394L8.00579 37.7873L16.1371 36.8039L22.0599 34.8371L25.3726 31.9852L28.4846 26.7732L29.5889 21.0694V17.4308L28.4846 12.0221L27.6815 9.46526L26.1757 9.95696H24.168L23.6661 8.87522L22.5618 8.48186L21.4576 8.28518L20.4537 7.89181L20.1525 6.61339L19.751 5.62998L18.6467 4.4499V3.66317L18.9479 3.26981L16.8398 1.99138L13.8282 1.59802L9.61197 1.99138L4.89381 3.26981L1.68144 5.33496ZM11.8205 14.579L11.2181 17.2342L10.4151 22.1512L11.0174 24.708L12.222 25.9865L13.8282 25.6914L15.8359 24.708L16.9402 22.7412L17.6429 20.7744L17.4421 19.3977L16.9402 17.8242L15.8359 15.9557L13.8282 14.579L12.7239 14.2839L11.8205 14.579Z" fill="#8AFAB7"/>
<path d="M1.53089 6.81006C3.40477 7.69512 4.74326 8.21961 5.54635 8.38351C6.18213 8.51463 6.81791 8.59658 7.45369 8.62936C8.12293 8.66214 8.8591 8.64575 9.66219 8.58019C10.4653 8.51463 11.0843 8.44907 11.5193 8.38351C11.9878 8.31795 12.6905 8.20322 13.6275 8.03932C16.3379 7.61317 18.4125 7.44927 19.8514 7.54761L19.6004 6.56421C19.6004 6.49865 19.5837 6.43309 19.5503 6.36753C19.5168 6.30197 19.4666 6.2528 19.3997 6.22002C19.3328 6.15446 19.2826 6.10528 19.2491 6.0725C19.2156 6.03972 19.132 5.99056 18.9981 5.925C18.8977 5.85943 18.8141 5.79387 18.7472 5.72831C18.4125 5.53163 18.195 5.28578 18.0947 4.99076C17.9608 4.63018 17.9608 4.17125 18.0947 3.61399C18.1281 3.51565 18.2118 3.41731 18.3456 3.31897C16.5387 2.20445 13.7948 1.89303 10.1139 2.38474C8.20659 2.64698 6.48329 3.12229 4.94403 3.81067C3.43823 4.46628 2.41764 5.22022 1.88225 6.0725C1.7484 6.26919 1.63128 6.51504 1.53089 6.81006ZM15.5348 24.118C15.8025 23.8885 16.0033 23.6755 16.1371 23.4788C16.5721 22.7576 16.8398 21.725 16.9402 20.3811C17.0071 19.5288 16.7562 18.6273 16.1873 17.6767C15.6519 16.6933 14.9827 15.9066 14.1796 15.3165C13.4769 14.7593 12.908 14.5298 12.473 14.6281C12.0715 14.7265 11.8707 15.2018 11.8707 16.0541C11.8707 16.1852 11.8205 16.2999 11.7201 16.3983C11.6867 16.6605 11.6365 16.9883 11.5695 17.3817C11.3688 18.6601 11.2516 19.5124 11.2182 19.9385C10.9505 22.0037 11.0174 23.5607 11.419 24.6097C11.6197 25.1014 11.9042 25.3964 12.2722 25.4948C12.5399 25.462 12.8076 25.4128 13.0753 25.3472C13.1757 25.3145 13.2594 25.3472 13.3263 25.4456C13.4267 25.4128 13.5103 25.38 13.5773 25.3472C14.1461 25.1506 14.6982 24.8392 15.2336 24.413V24.3638C15.2671 24.1999 15.3675 24.118 15.5348 24.118ZM19.6506 24.8064C18.3456 24.9703 17.2079 24.9867 16.2375 24.8555C15.5348 25.5111 14.7652 25.9865 13.9286 26.2815C13.1924 26.5437 12.5399 26.5929 11.9711 26.429C11.8038 26.3962 11.6365 26.3307 11.4691 26.2323C10.6995 26.3307 9.84623 26.3962 8.90929 26.429C8.94276 27.6091 9.41123 28.5597 10.3147 29.2809C10.8166 29.6414 11.3018 29.7562 11.7703 29.6251C11.8707 29.5923 11.9878 29.5431 12.1217 29.4775L12.473 29.33C12.8076 29.1989 13.1088 29.117 13.3765 29.0842C13.7111 29.0514 14.0457 29.1497 14.3804 29.3792C14.6146 29.5431 14.8488 29.5923 15.0831 29.5267C15.3173 29.4612 15.5683 29.2481 15.836 28.8875C15.9029 28.8219 16.02 28.658 16.1873 28.3958C16.3212 28.1991 16.4383 28.0516 16.5387 27.9533C16.7729 27.7238 17.2246 27.4124 17.8939 27.019C18.4627 26.6912 18.8308 26.4126 18.9981 26.1831C19.2324 25.8226 19.4499 25.3636 19.6506 24.8064ZM20.2028 20.8236L17.8939 21.2661C17.7266 22.3479 17.4087 23.2493 16.9402 23.9705C16.8733 24.1016 16.8064 24.2163 16.7394 24.3147C17.6095 24.413 18.6468 24.3802 19.8514 24.2163C20.1526 23.1018 20.2697 21.9709 20.2028 20.8236ZM9.31084 21.9545V22.2003C9.31084 22.2659 9.27738 22.3151 9.21045 22.3479C9.24392 22.6757 9.16026 23.6918 8.95949 25.3964V25.8389C9.66219 25.8062 10.298 25.757 10.8668 25.6914C10.733 25.4948 10.6159 25.2653 10.5155 25.0031C10.047 23.7902 9.94662 22.0692 10.2143 19.8402C10.2478 19.3813 10.3649 18.5126 10.5657 17.2342C10.733 16.1524 10.8334 15.3657 10.8668 14.874C10.8668 14.6773 10.9839 14.5298 11.2182 14.4314C11.4524 14.0381 11.787 13.7922 12.222 13.6939C12.9917 13.53 13.8617 13.8086 14.8321 14.5298C15.7021 15.2182 16.455 16.1196 17.0908 17.2342C17.7266 18.3159 18.011 19.3976 17.9441 20.4794V20.6269L20.1526 20.2335C20.0856 19.873 20.002 19.5288 19.9016 19.201C19.7678 18.742 19.4164 18.2176 18.8475 17.6275C17.9441 16.6769 17.4756 16.1852 17.4421 16.1524C17.1075 15.7263 16.7562 15.1362 16.3881 14.3823C15.9865 13.5628 15.7188 13.0383 15.585 12.8088C14.9827 11.891 14.0457 11.3993 12.7742 11.3337C11.9711 11.4648 11.2684 11.5632 10.6661 11.6287C10.3314 11.7926 10.047 12.0221 9.81277 12.3171C9.24392 13.0711 8.99295 14.6281 9.05987 16.9883C9.05987 17.6767 9.11007 18.6437 9.21045 19.8893C9.24392 20.5777 9.27738 21.0694 9.31084 21.3645H9.71239C9.91316 21.3645 10.0135 21.4628 10.0135 21.6595C10.0135 21.8562 9.91316 21.9545 9.71239 21.9545H9.31084ZM20.253 24.1672C20.4872 24.1344 20.7382 24.0852 21.0059 24.0196C23.9171 23.5279 25.7742 23.2821 26.5773 23.2821C26.8785 23.2821 27.3469 23.3804 27.9827 23.5771C28.2839 23.6427 28.5181 23.6918 28.6854 23.7246C28.8862 22.4462 28.9866 21.1186 28.9866 19.7418C27.0123 19.7746 24.2182 20.1188 20.6043 20.7744C20.6712 21.8889 20.5541 23.0199 20.253 24.1672ZM8.65833 21.3645C8.62487 21.1678 8.55794 20.9711 8.45756 20.7744C8.42409 20.6433 8.45756 20.545 8.55794 20.4794C8.69179 20.4466 8.79218 20.4794 8.8591 20.5777L8.80891 19.8893C8.70852 18.5126 8.65833 17.562 8.65833 17.0375C8.5914 14.5462 8.87583 12.9072 9.51161 12.1204L9.81277 11.7271H9.76258C6.14867 12.1532 3.25419 11.9729 1.07915 11.1862C1.07915 13.7758 1.14608 17.0047 1.27993 20.8728C2.95303 21.2006 5.4125 21.3645 8.65833 21.3645ZM8.80891 21.9545C5.49616 21.9545 3.00323 21.7906 1.33012 21.4628C1.33012 22.0528 1.34685 22.6429 1.38031 23.2329C1.41378 24.2163 1.46397 25.167 1.53089 26.0848C2.09975 26.052 3.9569 25.9865 7.10234 25.8881C7.63773 25.8881 8.12293 25.8717 8.55794 25.8389V25.3472C8.75871 23.5116 8.84237 22.3806 8.80891 21.9545ZM14.6815 35.9188L14.8823 36.0172C14.9827 36.05 15.0496 36.0664 15.0831 36.0664C15.1165 36.0991 15.2838 36.2139 15.585 36.4106C18.195 35.9516 20.437 35.1157 22.3109 33.9029C19.7008 33.5095 16.1706 33.28 11.7201 33.2145C9.3443 33.1489 7.30311 33.1817 5.59654 33.3128C4.05728 33.4112 2.88611 33.5751 2.08302 33.8045L2.13321 34.1979C4.27479 33.9029 6.19886 33.8865 7.90543 34.1487C9.64546 34.411 11.8372 34.9191 14.4807 35.673C14.5811 35.7058 14.6481 35.7877 14.6815 35.9188ZM14.0792 36.2139L11.6197 35.5255C10.9839 35.3288 10.231 35.1485 9.36103 34.9846C8.52448 34.8207 7.75485 34.706 7.05215 34.6404C6.3829 34.5749 5.63 34.5585 4.79345 34.5913C3.9569 34.5913 3.10361 34.6568 2.2336 34.7879L2.28379 35.1321C2.35071 35.4927 2.41764 35.7877 2.48456 36.0172L2.58495 36.3614C2.88611 36.722 3.52189 36.9678 4.49229 37.0989C5.36231 37.2301 6.48329 37.2628 7.85524 37.1973C8.25678 37.1973 10.298 37.0006 13.9788 36.6072C14.213 36.5745 14.4305 36.5581 14.6313 36.5581L14.28 36.4106C14.1796 36.345 14.1127 36.2794 14.0792 36.2139ZM22.863 24.3147L21.1062 24.6097C20.7382 24.6753 20.4035 24.7244 20.1024 24.7572C19.8681 25.4128 19.6004 25.9537 19.2993 26.3798C19.0985 26.6748 18.6802 27.0026 18.0445 27.3632C17.4421 27.7238 17.0406 28.0188 16.8398 28.2483C16.7729 28.3139 16.6725 28.445 16.5387 28.6417C16.3714 28.9039 16.2542 29.0678 16.1873 29.1334C15.8527 29.5595 15.5181 29.8217 15.1834 29.9201C14.8154 30.0184 14.464 29.9529 14.1294 29.7234C13.8952 29.5267 13.6776 29.4448 13.4769 29.4775C13.2092 29.5103 12.9248 29.5923 12.6236 29.7234L12.2722 29.8709C12.1049 29.9365 11.9878 29.9856 11.9209 30.0184C11.3186 30.1823 10.7162 30.0348 10.1139 29.5759C9.0766 28.8219 8.54121 27.773 8.50775 26.429C8.1062 26.4618 7.63773 26.4782 7.10234 26.4782C3.9569 26.5765 2.09975 26.6421 1.53089 26.6748C1.63128 28.3794 1.76513 30.1823 1.93244 32.0836C1.9659 32.6408 1.99936 33.0178 2.03282 33.2145C2.86938 32.985 4.04055 32.8211 5.54635 32.7228C7.25292 32.5917 9.31084 32.5589 11.7201 32.6244C16.3714 32.69 19.9853 32.9359 22.5618 33.362C22.6957 33.3948 22.7794 33.4767 22.8128 33.6078C25.0548 32.0016 26.6944 29.8709 27.7317 27.2157C28.0664 26.3962 28.3341 25.5439 28.5348 24.6589C27.029 24.2327 25.2555 24.1999 23.2144 24.5605C23.0136 24.5933 22.8965 24.5114 22.863 24.3147ZM21.1062 20.086C21.1397 19.9877 21.2066 19.9385 21.307 19.9385C21.4743 19.9057 22.8463 19.6107 25.4229 19.0535C26.8952 18.7257 28.0664 18.5781 28.9364 18.6109C28.8025 15.9557 28.2671 13.2022 27.3302 10.3503C25.724 10.7765 24.603 10.6945 23.9673 10.1045C23.9003 10.0717 23.8501 10.0225 23.8167 9.95695C23.2478 10.1864 22.4615 10.3339 21.4576 10.3995C21.1899 10.4323 20.7549 10.4487 20.1526 10.4487C19.5837 10.4487 19.1487 10.465 18.8475 10.4978C17.9106 10.5634 16.4717 10.7601 14.5309 11.0879L14.029 11.137C14.7986 11.3665 15.4344 11.8582 15.9363 12.6121C16.0702 12.8416 16.3379 13.3825 16.7394 14.2348C17.0741 14.9887 17.4087 15.5624 17.7433 15.9557L19.1487 17.3817C19.751 18.0045 20.1358 18.5781 20.3032 19.1026C20.4035 19.4304 20.4705 19.791 20.5039 20.1844L21.1062 20.086ZM28.0831 9.46525C29.2208 12.7105 29.8399 15.8574 29.9403 18.9059C30.0741 21.9217 29.6558 24.8064 28.6854 27.5599C27.6146 30.3462 25.8746 32.6081 23.4653 34.3454C21.0226 36.1155 17.8939 37.1973 14.0792 37.5906C10.3314 37.984 8.27351 38.1807 7.90543 38.1807C6.46656 38.2462 5.27865 38.2135 4.34171 38.0823C3.10361 37.8857 2.25033 37.5087 1.78186 36.9514C1.68147 36.8203 1.58109 36.5908 1.4807 36.263C1.41378 36.0008 1.34685 35.673 1.27993 35.2796C1.14608 34.5585 1.02896 33.5259 0.928574 32.1819C0.727802 29.5923 0.54376 26.6093 0.376449 23.2329C0.0418276 15.3329 -0.0418277 10.4978 0.125483 8.7277C0.192407 8.10488 0.292794 7.51483 0.426642 6.95757L0.225869 6.9084C0.0250966 6.81006 -0.0418277 6.67894 0.0250966 6.51504C0.125483 6.31836 0.259332 6.2528 0.426642 6.31836L0.627415 6.4167C0.727802 6.0889 0.844919 5.81026 0.978768 5.5808C1.64801 4.53184 2.80245 3.64677 4.4421 2.92561C6.11521 2.20445 7.95562 1.71274 9.96335 1.4505C11.7703 1.1227 13.6107 1.10631 15.4846 1.40133C17.3585 1.66357 18.7472 2.23722 19.6506 3.12229C19.8849 3.35175 19.8849 3.58121 19.6506 3.81067C19.4833 3.97457 19.2993 4.00735 19.0985 3.90901C18.9981 4.23682 18.9814 4.48267 19.0483 4.64657C19.0818 4.74491 19.1654 4.84325 19.2993 4.94159L19.5001 5.03993L19.8514 5.23661C19.9183 5.30217 20.002 5.40051 20.1024 5.53163C20.2362 5.62997 20.3366 5.7447 20.4035 5.87582C20.5039 6.00694 20.5709 6.17085 20.6043 6.36753C20.6378 6.49865 20.6712 6.66255 20.7047 6.85923C20.7382 7.05591 20.7716 7.21981 20.8051 7.35093C20.8385 7.44927 20.872 7.54761 20.9055 7.64595C21.2401 7.71151 21.558 7.77707 21.8591 7.84263C21.993 7.87541 22.0766 7.94097 22.1101 8.03932C22.4113 8.03932 22.7292 8.0721 23.0638 8.13765C23.4988 8.20322 23.8669 8.41629 24.168 8.77687L24.3688 9.12106C24.4692 9.25218 24.5528 9.35052 24.6198 9.41608C25.0213 9.74388 25.8746 9.72749 27.1796 9.36691C27.2465 9.26857 27.3469 9.20301 27.4808 9.17023C27.7819 9.03911 27.9827 9.13745 28.0831 9.46525ZM1.22973 10.5962C3.204 10.8912 5.04442 11.0059 6.75099 10.9404C6.95176 10.9404 7.05215 11.0387 7.05215 11.2354C7.05215 11.2682 7.03541 11.3173 7.00195 11.3829C7.83851 11.3501 8.74198 11.2682 9.71239 11.137C10.6493 11.0387 12.222 10.8256 14.4305 10.4978C16.3714 10.17 17.8437 9.97335 18.8475 9.90778C19.1152 9.875 19.5335 9.85861 20.1024 9.85861C20.7047 9.85861 21.1397 9.84223 21.4074 9.80945C22.2774 9.77667 22.9467 9.66193 23.4151 9.46525C23.4151 9.43247 23.3984 9.41608 23.3649 9.41608C23.2311 9.25218 23.0638 9.15384 22.863 9.12106C22.3945 9.0555 21.9428 9.02272 21.5078 9.02272C21.4743 9.02272 21.4074 9.03911 21.307 9.07189C21.2066 9.07189 21.1397 9.07189 21.1062 9.07189C20.9055 9.07189 20.7549 9.03911 20.6545 8.97355C20.3533 8.87521 20.1358 8.61297 20.002 8.18683V8.13765C18.5966 8.00654 16.5052 8.17044 13.7278 8.62936C12.6236 8.82604 11.9209 8.94077 11.6197 8.97355C11.1847 9.00633 10.5489 9.07189 9.71239 9.17023C8.90929 9.23579 8.1564 9.25218 7.45369 9.2194C6.78445 9.18662 6.11521 9.10467 5.44596 8.97355C4.54249 8.77687 3.18727 8.25239 1.38031 7.4001C1.24646 7.82624 1.16281 8.30156 1.12935 8.82604C1.09588 9.12106 1.07915 9.69471 1.07915 10.547L1.17954 10.5962H1.22973ZM14.9827 4.74491L14.5309 5.43329C14.4305 5.59719 14.2967 5.62997 14.1294 5.53163C13.9621 5.43329 13.9286 5.30217 14.029 5.13827L14.4807 4.44989C14.5811 4.28599 14.715 4.25321 14.8823 4.35155C15.0496 4.44989 15.0831 4.58101 14.9827 4.74491ZM23.114 14.874C23.3817 14.579 23.9338 14.0545 24.7703 13.3005C24.9377 13.2022 25.0715 13.235 25.1719 13.3989C25.3057 13.53 25.3057 13.6611 25.1719 13.7922C24.3353 14.4806 23.8167 14.9723 23.6159 15.2673C23.4821 15.3985 23.3315 15.4149 23.1642 15.3165C23.0303 15.1854 23.0136 15.0379 23.114 14.874ZM4.39191 14.6773C4.39191 15.4312 4.40864 15.9721 4.4421 16.2999C4.47556 16.4966 4.39191 16.6113 4.19113 16.6441C3.99036 16.6769 3.87324 16.5949 3.83978 16.3983C3.80632 16.0049 3.78959 15.4312 3.78959 14.6773C3.78959 14.4806 3.88997 14.3823 4.09075 14.3823C4.29152 14.3823 4.39191 14.4806 4.39191 14.6773ZM21.1564 28.8383V30.756C21.1564 30.9527 21.0561 31.051 20.8553 31.051C20.6545 31.051 20.5541 30.9527 20.5541 30.756V28.8383C20.5541 28.6417 20.6545 28.5433 20.8553 28.5433C21.0561 28.5433 21.1564 28.6417 21.1564 28.8383ZM4.39191 30.1168L4.34171 29.33C4.34171 29.1334 4.4421 29.035 4.64287 29.035C4.84364 29.035 4.94403 29.1334 4.94403 29.33L4.99422 30.1168C4.99422 30.3134 4.89384 30.4118 4.69307 30.4118C4.49229 30.4118 4.39191 30.3134 4.39191 30.1168ZM10.2645 4.30237C10.4653 4.30237 10.5657 4.40072 10.5657 4.5974C10.5657 4.79408 10.4653 4.89242 10.2645 4.89242C10.0637 4.89242 9.96335 4.79408 9.96335 4.5974C9.96335 4.40072 10.0637 4.30237 10.2645 4.30237ZM24.168 29.3792C24.3688 29.3792 24.4692 29.4775 24.4692 29.6742C24.4692 29.8709 24.3688 29.9692 24.168 29.9692C23.9673 29.9692 23.8669 29.8709 23.8669 29.6742C23.8669 29.4775 23.9673 29.3792 24.168 29.3792ZM5.09461 23.3804C5.29538 23.3804 5.39577 23.4788 5.39577 23.6755C5.39577 23.8721 5.29538 23.9705 5.09461 23.9705C4.89384 23.9705 4.79345 23.8721 4.79345 23.6755C4.79345 23.4788 4.89384 23.3804 5.09461 23.3804Z" fill="black"/>
<path fill-rule="evenodd" clip-rule="evenodd" d="M38.724 10.6454L36.2144 16.7425L35.6121 21.3645V26.7732L37.7202 31.3952L41.3341 34.4438L45.9519 36.9023L53.2801 38.2791L58.7009 37.1973L64.2222 33.4604L67.5349 28.0516L69.7434 20.3811L68.84 13.6939L65.9288 7.79351L60.3071 3.85989L52.7781 2.28644L46.5542 3.46652L42.0368 6.61342L38.724 10.6454ZM50.5696 17.2341L49.2646 18.9059L48.8631 20.5777L49.2646 22.7412L50.5696 24.708L53.782 25.4947L55.8901 24.708L57.5967 23.1346L58.7009 21.6595V19.9877L56.5928 17.6275L55.087 16.7424L53.3805 16.4474H51.6739L50.5696 17.2341Z" fill="#FAEADB"/>
<path d="M44.5464 4.74489C44.5798 4.61377 44.6635 4.49904 44.7973 4.4007C48.5116 2.30277 52.3932 1.69634 56.4422 2.5814C58.6172 3.0731 60.4911 3.7451 62.0638 4.59738C63.67 5.44967 65.1423 6.64614 66.4808 8.18681C68.2543 10.252 69.3753 12.8088 69.8438 15.8574C70.3457 18.9059 70.2118 21.8398 69.4422 24.6588C68.706 27.6746 67.4345 30.379 65.6275 32.7719C63.854 35.1649 61.7125 36.8695 59.2028 37.8856C57.5631 38.5412 55.7729 38.9182 53.8321 39.0166C51.9248 39.0821 50.0342 38.869 48.1603 38.3773C46.2864 37.8856 44.4962 37.1809 42.7896 36.263C41.1165 35.3452 39.6442 34.1815 38.3726 32.7719C37.101 31.3624 36.1976 29.8217 35.6622 28.1499C34.7587 25.5275 34.8424 21.8561 35.9131 17.1358C36.5824 14.2184 37.8874 11.4812 39.8282 8.92436C41.2671 6.95755 42.8398 5.5644 44.5464 4.74489ZM49.8669 19.0043C49.7665 19.1682 49.6828 19.3321 49.6159 19.496C49.1809 20.6761 49.2813 21.8561 49.917 23.0362C50.5863 24.2491 51.54 24.9539 52.7781 25.1505C54.2504 25.38 55.7729 24.8064 57.3456 23.4296C58.0818 22.7084 58.3662 21.8889 58.1989 20.9711C58.0651 20.0532 57.5464 19.2337 56.6429 18.5126C56.0741 18.0209 55.4383 17.6931 54.7356 17.5292C54.0329 17.3325 53.28 17.3325 52.4769 17.5292C51.7073 17.7258 50.9878 18.1684 50.3186 18.8568C50.2182 18.9879 50.0676 19.037 49.8669 19.0043ZM53.3804 16.3982C54.7858 16.3327 56.0908 16.7752 57.2954 17.7258C57.9647 18.2831 58.4834 18.9223 58.8514 19.6435C59.2195 20.3646 59.3534 21.135 59.253 21.9545C59.1526 22.774 58.7511 23.4951 58.0483 24.118C56.2414 25.7242 54.4344 26.3962 52.6275 26.134C51.0548 25.8717 49.8669 25.003 49.0638 23.5279C48.2607 22.0528 48.1436 20.5941 48.7124 19.1518C49.3147 17.5455 50.6699 16.4802 52.7781 15.9557C53.0792 15.8902 53.28 16.0213 53.3804 16.3491V16.3982ZM47.7085 25.5439C47.8089 25.4783 47.8926 25.4947 47.9595 25.5931C48.0599 25.6586 48.177 25.757 48.3109 25.8881C48.4447 25.9864 48.5618 26.052 48.6622 26.0848C49.3315 26.2159 49.733 26.3142 49.8669 26.3798C50.1346 26.5437 50.6198 26.9043 51.3225 27.4615C51.8244 27.8877 52.3096 28.1499 52.7781 28.2483H52.8283C52.8952 28.2483 52.9788 28.2319 53.0792 28.1991C53.28 28.1335 53.531 28.0352 53.8321 27.9041C54.4679 27.6746 55.2041 27.3796 56.0406 27.019C56.8772 26.6584 57.5966 26.3306 58.1989 26.0356C58.5001 25.8717 58.7511 25.7406 58.9518 25.6423C59.1191 25.5111 59.2195 25.4456 59.253 25.4456C59.4203 25.2161 59.504 24.8883 59.504 24.4622C59.4705 23.9049 59.5207 23.4788 59.6545 23.1837L60.0059 22.7412C60.1397 22.5773 60.307 22.3806 60.5078 22.1512C60.7421 21.9217 60.8926 21.7578 60.9596 21.6595C61.4949 21.0366 61.7125 20.5285 61.6121 20.1352C61.5451 19.8729 61.3276 19.5615 60.9596 19.2009C60.4911 18.742 60.2067 18.4306 60.1063 18.2667C59.9055 18.0045 59.7215 17.4964 59.5541 16.7424C59.3868 16.0868 59.2028 15.6607 59.002 15.464C58.8682 15.3001 58.6172 15.169 58.2491 15.0706C57.8141 14.9067 57.4962 14.7592 57.2954 14.6281L56.3418 13.6939C55.9402 13.2677 55.6223 12.9727 55.3881 12.8088C54.6854 12.3171 53.8823 12.2679 52.9788 12.6613C52.5104 12.858 52.1255 13.3005 51.8244 13.9889C51.4228 14.9067 51.0882 15.4968 50.8205 15.759C50.419 16.1196 50.0174 16.3163 49.6159 16.3491C49.5824 16.3491 49.3147 16.3163 48.8128 16.2507C48.7459 16.2507 48.6957 16.2671 48.6622 16.2999C48.5953 16.2999 48.5284 16.3327 48.4614 16.3982C48.3276 16.6277 48.1937 17.103 48.0599 17.8242C48.0264 17.9553 47.9428 18.0045 47.8089 17.9717C47.7755 17.9717 47.742 17.9553 47.7085 17.9225C47.6751 18.2175 47.558 18.6273 47.3572 19.1518C47.0895 19.8074 46.9556 20.3155 46.9556 20.6761C46.9556 20.84 47.0895 21.7086 47.3572 23.2821L47.6082 24.9047C47.6416 25.1669 47.6751 25.3472 47.7085 25.4456V25.5439ZM47.7587 17.3325C47.8591 16.808 47.993 16.431 48.1603 16.2016C48.2607 16.0704 48.3778 15.9721 48.5116 15.9065C48.612 15.8738 48.7291 15.8574 48.863 15.8574C49.3315 15.9229 49.5824 15.9557 49.6159 15.9557C49.917 15.9229 50.2182 15.759 50.5194 15.464C50.7536 15.2345 51.0548 14.6937 51.4228 13.8414C51.7909 13.0219 52.2427 12.4974 52.7781 12.2679C53.8823 11.8418 54.836 11.9237 55.6391 12.5138C55.8733 12.6777 56.1912 12.9727 56.5927 13.3989C57.0278 13.8578 57.3624 14.1692 57.5966 14.3331C57.7305 14.4314 57.9982 14.5462 58.3997 14.6773C58.8012 14.8084 59.1024 14.9723 59.3032 15.169C59.5374 15.464 59.7549 15.9557 59.9557 16.6441C60.123 17.3653 60.2736 17.8406 60.4074 18.07C60.5078 18.2012 60.7922 18.4962 61.2607 18.9551C61.6623 19.3485 61.9132 19.709 62.0136 20.0368C62.1475 20.5613 61.8965 21.1841 61.2607 21.9053C61.1603 22.0364 61.0097 22.2167 60.809 22.4462C60.6082 22.6429 60.4409 22.8232 60.307 22.9871C60.2067 23.1182 60.123 23.2493 60.0561 23.3804C59.9557 23.5771 59.9055 23.9377 59.9055 24.4622C59.9055 24.9866 59.7884 25.38 59.5541 25.6423C59.5207 25.7406 59.3868 25.8553 59.1526 25.9864C58.9518 26.0848 58.7009 26.2159 58.3997 26.3798L56.1912 27.3632C55.3546 27.7566 54.6185 28.068 53.9827 28.2974C53.6481 28.3958 53.3804 28.4777 53.1796 28.5433C53.0792 28.5761 52.9956 28.6089 52.9286 28.6416H52.6777C52.1757 28.5105 51.6403 28.2155 51.0715 27.7566C50.4022 27.1993 49.9338 26.8715 49.6661 26.7732C49.5657 26.7076 49.1976 26.6093 48.5618 26.4781C48.0264 26.347 47.6416 26.134 47.4074 25.8389L47.3572 25.7406V25.6914C47.3572 25.6586 47.3405 25.5931 47.307 25.4947C47.2735 25.3964 47.2401 25.2161 47.2066 24.9539L46.9556 23.3312C46.688 21.725 46.5541 20.84 46.5541 20.6761C46.5541 20.2827 46.688 19.7254 46.9556 19.0043C47.2233 18.3487 47.3572 17.8242 47.3572 17.4308C47.3572 17.2997 47.4241 17.2341 47.558 17.2341C47.6584 17.2341 47.7253 17.2669 47.7587 17.3325ZM47.307 32.3786C47.5078 32.1491 47.8926 31.8377 48.4614 31.4443C48.8965 31.1165 49.2311 30.8215 49.4653 30.5593C49.6661 30.3298 49.8836 30.3298 50.1178 30.5593C50.3855 30.756 50.4022 30.9854 50.168 31.2477C49.9338 31.5099 49.5657 31.8377 49.0638 32.2311C48.5618 32.5916 48.2105 32.8703 48.0097 33.067C47.7755 33.2964 47.5412 33.2964 47.307 33.067C47.0728 32.8375 47.0728 32.608 47.307 32.3786ZM42.639 25.6423C43.3752 25.8062 44.0946 25.8881 44.7973 25.8881C45.132 25.8881 45.2993 26.052 45.2993 26.3798C45.2993 26.7076 45.132 26.8715 44.7973 26.8715C44.0277 26.8715 43.2414 26.7896 42.4383 26.6257C42.1036 26.5601 41.9698 26.3634 42.0367 26.0356C42.1036 25.7078 42.3044 25.5767 42.639 25.6423ZM43.6429 14.1856C43.7433 13.8906 43.9608 13.4644 44.2954 12.9072C44.5966 12.3827 44.7973 12.0057 44.8977 11.7762C44.9981 11.4484 45.1989 11.3501 45.5 11.4812C45.8347 11.5796 45.9351 11.7762 45.8012 12.0713C45.7008 12.3991 45.4833 12.8416 45.1487 13.3989C44.8475 13.9233 44.6468 14.3167 44.5464 14.5789C44.446 14.874 44.2285 14.9723 43.8939 14.874C43.5927 14.7428 43.509 14.5134 43.6429 14.1856ZM54.9364 6.66253C54.836 7.31814 54.7858 8.30154 54.7858 9.61275C54.7858 9.94055 54.6185 10.1044 54.2839 10.1044C53.9492 10.1044 53.7819 9.94055 53.7819 9.61275C53.7819 8.23598 53.8321 7.2198 53.9325 6.56419C53.9994 6.23639 54.1835 6.10527 54.4846 6.17083C54.8193 6.20361 54.9698 6.36751 54.9364 6.66253ZM64.2723 13.1038C64.5735 12.9727 64.791 13.0547 64.9248 13.3497C65.0587 13.6447 64.975 13.8578 64.6738 13.9889C63.235 14.6445 62.3148 15.0215 61.9132 15.1198C61.5786 15.1854 61.3778 15.0543 61.3109 14.7265C61.244 14.3987 61.3778 14.202 61.7125 14.1364C62.0471 14.0709 62.9004 13.7267 64.2723 13.1038ZM62.365 27.3632C63.0677 28.3138 63.6031 28.9694 63.9711 29.33C64.2054 29.5595 64.2054 29.7889 63.9711 30.0184C63.7369 30.2479 63.5027 30.2479 63.2684 30.0184C62.8669 29.625 62.298 28.9367 61.5619 27.9533C61.3611 27.691 61.3946 27.4615 61.6623 27.2649C61.93 27.0682 62.1642 27.101 62.365 27.3632ZM63.5696 22.3478C64.4062 22.1184 65.3431 21.6922 66.3804 21.0694C66.6481 20.8727 66.8656 20.9219 67.0329 21.2169C67.2337 21.4792 67.1835 21.6922 66.8824 21.8561C65.7781 22.5773 64.7742 23.069 63.8708 23.3312C63.5361 23.3968 63.3186 23.2821 63.2182 22.9871C63.1513 22.6593 63.2684 22.4462 63.5696 22.3478ZM58.6005 8.38349C59.504 8.77685 60.1899 9.13743 60.6584 9.46524C60.9261 9.66192 60.9596 9.89138 60.7588 10.1536C60.558 10.4159 60.3238 10.4486 60.0561 10.252C59.6545 9.95694 59.0355 9.62914 58.1989 9.26856C57.8978 9.13744 57.8141 8.92437 57.948 8.62934C58.0818 8.33432 58.2993 8.25237 58.6005 8.38349ZM39.778 16.7916C40.0123 17.1522 40.5476 17.6931 41.3842 18.4142C41.6184 18.6109 41.6184 18.8404 41.3842 19.1026C41.1834 19.3321 40.9492 19.3321 40.6815 19.1026C39.8115 18.3487 39.2426 17.775 38.9749 17.3816C38.7742 17.0866 38.8076 16.8572 39.0753 16.6933C39.3765 16.4966 39.6107 16.5294 39.778 16.7916ZM49.6159 4.74489C49.7163 4.64655 50.0342 4.28597 50.5696 3.66315C50.6699 3.49925 50.7703 3.36813 50.8707 3.26979C49.8669 3.43369 48.8463 3.69593 47.8089 4.05651C47.9093 4.15485 47.9595 4.25319 47.9595 4.35153C47.993 4.67933 47.8424 4.85962 47.5078 4.8924C45.065 5.12187 42.7729 6.66253 40.6313 9.51441C38.7909 11.9729 37.5528 14.5789 36.917 17.3325C35.8797 21.8889 35.7626 25.3964 36.5657 27.8549C37.101 29.3956 37.9711 30.8215 39.1757 32.1327C40.3803 33.4439 41.769 34.5421 43.3417 35.4271C44.9145 36.2794 46.5876 36.9514 48.3611 37.4431C50.1346 37.902 51.9248 38.0987 53.7317 38.0331C55.5721 37.9676 57.262 37.6234 58.8012 37.0006C61.1436 36.05 63.1681 34.4437 64.8746 32.1819C66.5812 29.9201 67.7858 27.3304 68.4885 24.413C69.2247 21.6595 69.3586 18.8404 68.8901 15.9557C68.4216 13.1038 67.3508 10.7109 65.6777 8.77685C64.4731 7.36731 63.1179 6.25278 61.6121 5.43328C60.1063 4.64655 58.316 4.02373 56.2414 3.56481C54.9364 3.26979 53.7317 3.13867 52.6275 3.17145C52.5606 3.33535 52.4434 3.45008 52.2761 3.51564C52.0084 3.5812 51.7073 3.82705 51.3726 4.25319C50.7703 4.97435 50.3855 5.4005 50.2182 5.53162C49.984 5.7283 49.7497 5.71191 49.5155 5.48245C49.3147 5.22021 49.3482 4.97435 49.6159 4.74489ZM57.1951 34.0012L57.8978 33.067C58.0985 32.8047 58.3328 32.7719 58.6005 32.9686C58.8682 33.1653 58.9016 33.3948 58.7009 33.657L57.9982 34.5912C57.7974 34.8535 57.5631 34.8863 57.2954 34.6896C57.0278 34.4929 56.9943 34.2634 57.1951 34.0012ZM40.1796 29.3792L41.1834 30.9035L42.1371 32.2802C42.3044 32.5753 42.2375 32.8211 41.9363 33.0178C41.6686 33.1817 41.4344 33.1325 41.2336 32.8703L40.3301 31.4443C39.9286 30.7887 39.6107 30.297 39.3765 29.9692C39.1757 29.6742 39.2092 29.4447 39.4769 29.2808C39.778 29.0842 40.0123 29.1169 40.1796 29.3792ZM49.2143 9.66192L49.5155 8.97353C49.6159 8.77685 49.7497 8.72768 49.917 8.82603C50.1178 8.89158 50.1847 9.00632 50.1178 9.17022L49.8167 9.8586C49.7163 10.0553 49.5657 10.1208 49.3649 10.0553C49.1976 9.95694 49.1474 9.82582 49.2143 9.66192ZM54.2337 34.8863C54.4344 34.8863 54.5348 34.9846 54.5348 35.1813C54.5348 35.378 54.4344 35.4763 54.2337 35.4763C54.0329 35.4763 53.9325 35.378 53.9325 35.1813C53.9325 34.9846 54.0329 34.8863 54.2337 34.8863ZM59.4538 27.6091C59.6545 27.6091 59.7549 27.7074 59.7549 27.9041C59.7549 28.1008 59.6545 28.1991 59.4538 28.1991C59.253 28.1991 59.1526 28.1008 59.1526 27.9041C59.1526 27.7074 59.253 27.6091 59.4538 27.6091Z" fill="black"/>
<path d="M78.1759 38.3774L80.284 39.3608L83.3959 38.8691L86.2068 36.3122L86.8091 33.952L85.4037 28.445V19.496L86.8091 20.086L89.4191 23.4296L92.0292 29.6251L95.4423 36.3122L98.0524 38.3774L100.462 38.8691L103.272 37.0006L104.678 34.6404V29.6251V24.708L106.083 16.0541L106.384 6.61338L105.481 4.94159L103.674 2.87644L101.666 2.58142L98.0524 3.56483L96.145 6.61338V11.8254L97.6508 21.7578L96.7473 23.4296L93.535 20.086L88.8168 11.8254L84.5002 4.94159L82.0909 4.15487L78.7782 5.72832L76.3689 8.48185V13.8906L77.0716 19.496L76.7704 23.4296L76.3689 30.8051V34.6404L77.2724 37.689L78.1759 38.3774Z" fill="#FA8596"/>
<path d="M91.8787 30.5102C90.2056 26.806 89.2184 24.6425 88.9173 24.0197C88.248 22.774 87.629 21.8398 87.0601 21.217C86.6251 20.7253 86.2069 20.4139 85.8053 20.2828C85.8722 21.1678 85.9057 22.479 85.9057 24.2164C85.9392 26.2487 86.0061 27.7894 86.1065 28.8384C86.1399 29.199 86.2069 29.5923 86.3072 30.0185C86.3742 30.4118 86.4746 30.8707 86.6084 31.3952C86.7757 31.9197 86.8928 32.3295 86.9598 32.6245C87.3278 34.2963 87.2776 35.6894 86.8092 36.804C86.4746 37.5907 85.8722 38.2627 85.0022 38.8199C84.1322 39.3444 83.1785 39.705 82.1412 39.9017C81.0704 40.0656 80.0498 40.0164 79.0794 39.7542C78.109 39.4919 77.3728 38.9511 76.8709 38.1315C76.4024 37.3776 76.118 36.132 76.0176 34.3946C76.0176 34.1979 76.0009 34.0012 75.9674 33.8046C75.8001 33.739 75.7332 33.6243 75.7667 33.4604C75.8001 33.362 75.8671 33.2801 75.9674 33.2145C75.934 32.0344 76.0344 30.0676 76.2686 27.3141C76.4359 25.3145 76.5363 23.8886 76.5698 23.0363C76.5363 23.0035 76.5196 22.9707 76.5196 22.9379C76.5196 22.8396 76.5363 22.774 76.5698 22.7413C76.6032 21.8562 76.6032 21.0367 76.5698 20.2828C76.5363 19.7583 76.4861 19.201 76.4192 18.611L76.1682 16.5458C76.1013 15.7919 76.0344 15.2018 75.9674 14.7757C75.934 14.2184 75.9005 13.7103 75.8671 13.2514C75.8001 13.1858 75.7667 13.1039 75.7667 13.0056C75.7667 12.94 75.8001 12.8908 75.8671 12.858C75.8001 11.4157 75.8838 10.1537 76.118 9.07193C76.3523 8.02297 77.0884 6.974 78.3265 5.92504C79.5312 4.90885 80.6856 4.31881 81.7899 4.15491C83.028 3.99101 84.1155 4.3352 85.0524 5.18749C85.2866 5.41695 85.8388 6.18728 86.7088 7.49849L89.2686 11.7271C91.5106 15.4641 92.8324 17.7751 93.2339 18.6601C93.4347 19.1191 94.0537 19.9877 95.0911 21.2662C95.5595 21.8562 95.9611 22.3151 96.2957 22.6429C96.4965 22.8068 96.647 22.9379 96.7474 23.0363C96.8813 22.9052 96.9817 22.6757 97.0486 22.3479C97.1155 21.9218 97.1155 21.2662 97.0486 20.3811C96.9817 19.7255 96.8311 18.6765 96.5968 17.2342C96.3626 15.7591 96.212 14.7921 96.1451 14.3332C95.777 11.5468 95.7101 9.33418 95.9443 7.69517C96.2455 5.335 97.1992 3.72877 98.8053 2.87648C100.144 2.1881 101.482 1.95864 102.821 2.1881C104.193 2.45034 105.264 3.45014 106.033 5.18749C106.535 6.26923 106.836 7.4821 106.937 8.82608C107.004 8.85886 107.054 8.90803 107.087 8.97359C107.121 9.10471 107.087 9.21944 106.987 9.31779V9.36696C107.054 10.7437 106.987 12.2352 106.786 13.8414C106.619 15.4477 106.385 17.2178 106.083 19.1518C105.782 21.0531 105.581 22.5118 105.481 23.528C105.581 23.5608 105.682 23.6099 105.782 23.6755C105.95 23.7738 105.983 23.905 105.883 24.0689C105.782 24.2328 105.648 24.2655 105.481 24.1672L105.381 24.118C105.314 25.1998 105.33 26.8552 105.431 29.0842C105.464 29.6087 105.481 30.0185 105.481 30.3135C105.648 30.379 105.782 30.4446 105.883 30.5102C106.083 30.5757 106.134 30.7068 106.033 30.9035C105.966 31.0674 105.849 31.1002 105.682 31.0019L105.531 30.9527C105.565 32.2639 105.531 33.4112 105.431 34.3946C105.33 35.4108 104.728 36.4925 103.624 37.6398C102.486 38.8527 101.365 39.5411 100.261 39.705C99.2236 39.9017 98.203 39.6394 97.1992 38.9183C95.7938 37.8693 94.288 35.6403 92.6818 32.2311L92.1297 31.051C91.9289 31.0838 91.8118 31.0019 91.7783 30.8052C91.7448 30.7068 91.7783 30.6085 91.8787 30.5102ZM96.898 12.1697C97.9353 12.1697 99.4579 12.1369 101.466 12.0713C103.473 11.973 104.962 11.9238 105.933 11.9238C106 11.1371 106.016 10.3667 105.983 9.61281C105.18 9.84227 104.327 10.0226 103.423 10.1537C102.52 10.252 101.449 10.3504 100.211 10.4487C98.9727 10.5143 98.1361 10.5634 97.7011 10.5962C97.5003 10.629 97.3832 10.547 97.3497 10.3504C97.3163 10.1537 97.3999 10.0389 97.6007 10.0062L100.261 9.85866C101.499 9.76032 102.553 9.66198 103.423 9.56364C104.327 9.43252 105.18 9.25222 105.983 9.02277C105.883 7.77712 105.598 6.62981 105.13 5.58085C104.494 4.1713 103.657 3.36819 102.62 3.1715C101.516 2.97482 100.412 3.1715 99.3073 3.76155C98.0023 4.44993 97.1992 5.81031 96.898 7.84268C96.7307 8.98998 96.7307 10.4323 96.898 12.1697ZM97.9521 19.6927C98.4875 19.6599 99.5582 19.4141 101.164 18.9552C102.871 18.4635 104.209 18.2176 105.18 18.2176C105.581 15.7591 105.832 13.8578 105.933 12.5139C104.962 12.5139 103.473 12.563 101.466 12.6614C99.4913 12.7269 97.9855 12.7597 96.9482 12.7597C97.0151 13.1858 97.082 13.6612 97.149 14.1856C97.2494 14.874 97.3832 15.7919 97.5505 16.9392C97.7513 18.1848 97.8851 19.1027 97.9521 19.6927ZM76.8709 12.858C77.3059 12.8908 77.7577 12.9072 78.2261 12.9072C78.7281 12.9072 79.1798 12.8908 79.5814 12.858C80.0164 12.8253 80.4848 12.7761 80.9868 12.7105C81.5222 12.6122 81.9572 12.5302 82.2918 12.4647L83.6972 12.2188C84.266 12.0877 84.7011 11.9894 85.0022 11.9238L86.4076 11.5304C87.0434 11.3665 87.4951 11.2518 87.7628 11.1863L85.8555 8.03936C85.0524 6.76093 84.5505 6.03977 84.3497 5.87587C83.6805 5.25305 82.8606 5.00719 81.8902 5.13831C80.9868 5.26943 80.0164 5.77753 78.979 6.66259C77.9082 7.54766 77.2892 8.41633 77.1219 9.26862C76.8876 10.2848 76.804 11.4813 76.8709 12.858ZM77.1721 16.1524C80.9533 14.8412 84.8851 13.8414 88.9675 13.1531L88.4154 12.2188L88.1142 11.7271C87.7796 11.7927 87.2442 11.9238 86.508 12.1205L84.952 12.5139L83.396 12.858C82.6599 13.0219 82.1245 13.1367 81.7899 13.2022C81.4552 13.235 80.9198 13.3006 80.1837 13.3989C79.4475 13.4973 78.8954 13.53 78.5273 13.4973C78.1927 13.4645 77.6405 13.4481 76.8709 13.4481C76.9044 13.8087 76.9378 14.2184 76.9713 14.6773C77.0382 15.0707 77.1052 15.5624 77.1721 16.1524ZM84.9018 22.1512C84.8684 21.2006 84.8182 20.3647 84.7513 19.6435C84.7178 19.3157 84.8684 19.1354 85.203 19.1027C85.3703 19.1027 85.5041 19.1518 85.6045 19.2502C86.3742 19.3157 87.1103 19.7583 87.813 20.5778C88.1477 20.9384 88.4823 21.3809 88.8169 21.9054C90.1219 21.9054 91.5943 21.6759 93.2339 21.217C93.4347 21.1842 93.5518 21.2662 93.5853 21.4628C93.6522 21.6267 93.602 21.7415 93.4347 21.807C91.862 22.2332 90.4565 22.4626 89.2184 22.4954C89.3858 22.8232 89.5865 23.1838 89.8208 23.5772L89.871 23.7247C91.3433 22.9379 92.9662 22.5118 94.7397 22.4462L94.288 21.8562C93.2172 20.5122 92.5647 19.578 92.3304 19.0535C92.0293 18.4307 91.0087 16.6442 89.2686 13.6939C85.0859 14.3823 81.0704 15.3985 77.2223 16.7425C77.423 18.2832 77.5402 19.4632 77.5736 20.2828C77.6071 21.0039 77.6071 21.7579 77.5736 22.5446C80.2841 22.2823 82.7101 22.1512 84.8516 22.1512H84.9018ZM82.9945 32.5753C82.7268 32.6409 82.0408 32.8376 80.9366 33.1654C79.2969 33.6243 77.9752 33.8537 76.9713 33.8537C77.0048 34.0176 77.0215 34.1651 77.0215 34.2963C77.0215 34.5257 77.0382 34.7224 77.0717 34.8863C77.2725 35.5747 77.5904 36.0172 78.0254 36.2139C78.1592 36.2795 78.3934 36.2959 78.7281 36.2631C79.1296 36.2303 79.414 36.2467 79.5814 36.3123C79.916 36.4434 80.1335 36.5581 80.2339 36.6564C80.3008 36.722 80.3175 36.7876 80.2841 36.8531V36.9023C80.3844 36.9679 80.535 37.0334 80.7358 37.099C81.3381 37.2957 81.8066 37.1481 82.1412 36.6564C82.4424 36.2303 82.6599 35.5255 82.7937 34.5421C82.8941 34.0832 82.961 33.4276 82.9945 32.5753ZM84.8014 24.9048V24.5114C84.8014 24.413 84.8349 24.3475 84.9018 24.3147V22.7413H84.8516C82.7101 22.7413 80.2841 22.8724 77.5736 23.1346C77.5402 24.0197 77.4398 25.3637 77.2725 27.1666C78.0086 27.101 79.1798 26.7404 80.786 26.0848C82.526 25.3637 83.8645 24.9703 84.8014 24.9048ZM84.8516 25.4948C83.9816 25.5604 82.7101 25.9373 81.037 26.6257C79.3638 27.3141 78.0923 27.6911 77.2223 27.7566C77.0215 30.1168 76.9378 31.9525 76.9713 33.2637C77.9082 33.2965 79.1798 33.067 80.786 32.5753L83.0447 31.9361C83.0781 31.51 83.1116 31.1822 83.1451 30.9527C83.1785 30.6249 83.2455 30.3954 83.3458 30.2643C83.4462 30.1004 83.7139 29.9037 84.1489 29.6743C84.4501 29.5104 84.6341 29.3465 84.7011 29.1826C84.8684 28.7236 84.9353 27.9697 84.9018 26.9207C84.9018 26.6913 84.8851 26.216 84.8516 25.4948ZM83.4462 31.8378C84.2493 31.6739 84.9688 31.5919 85.6045 31.5919H85.6547C85.3536 30.5429 85.1863 29.7398 85.1528 29.1826C85.1193 29.2153 85.1026 29.2481 85.1026 29.2809C85.0022 29.5759 84.7345 29.8218 84.2995 30.0185C83.9314 30.2151 83.7139 30.3627 83.647 30.461C83.6135 30.5593 83.5801 30.7396 83.5466 31.0019C83.5132 31.1985 83.4797 31.4772 83.4462 31.8378ZM79.8825 36.8531C79.8156 36.8203 79.6817 36.7712 79.481 36.7056C79.3471 36.6401 79.1129 36.6237 78.7783 36.6564C78.3767 36.6892 78.0588 36.6728 77.8246 36.6073C77.5904 36.4762 77.3896 36.3123 77.2223 36.1156C77.3227 36.7384 77.5067 37.2465 77.7744 37.6398C78.109 38.1971 78.6611 38.5905 79.4308 38.8199C80.2004 39.0494 81.0537 39.0822 81.9906 38.9183C82.8941 38.7544 83.6972 38.443 84.3999 37.984C85.1361 37.5251 85.638 37.0006 85.9057 36.4106C86.2738 35.5255 86.2905 34.3454 85.9559 32.8703C85.9224 32.6409 85.8722 32.395 85.8053 32.1328C85.7384 32.1656 85.6715 32.182 85.6045 32.182C84.9688 32.182 84.2326 32.2803 83.396 32.477C83.3291 33.362 83.2622 34.0668 83.1953 34.5913C83.0614 35.6403 82.8272 36.4106 82.4926 36.9023C82.0575 37.5579 81.4385 37.7546 80.6354 37.4923C80.3008 37.3612 80.0833 37.2629 79.9829 37.1973C79.916 37.1318 79.8658 37.0498 79.8323 36.9515L79.8825 36.8531ZM103.373 30.2643C102.603 30.1332 101.817 30.0512 101.014 30.0185C100.211 29.9529 99.3407 29.9693 98.4038 30.0676C97.4669 30.166 96.6638 30.2643 95.9945 30.3627C95.3587 30.461 94.5055 30.6085 93.4347 30.8052C94.5389 33.1654 95.9611 34.5421 97.7011 34.9355C98.0692 35.0338 98.3703 34.9683 98.6046 34.7388C99.0396 34.3782 99.3742 34.1815 99.6084 34.1488C99.8427 34.116 100.06 34.1979 100.261 34.3946C100.294 34.4274 100.445 34.6077 100.713 34.9355C100.88 35.1322 101.031 35.2469 101.164 35.2797C101.298 35.3452 101.466 35.3288 101.666 35.2305C102.737 34.7388 103.306 33.5259 103.373 31.5919V30.2643ZM104.276 23.6755C103.54 23.4133 102.386 23.1838 100.813 22.9871C99.2404 22.7904 98.3369 22.6757 98.1026 22.6429C98.0692 22.6429 98.0357 22.6265 98.0023 22.5938C97.8684 23.3149 97.5505 23.7738 97.0486 23.9705C96.8144 24.0689 96.5467 24.0361 96.2455 23.8722C96.0447 23.7411 95.8272 23.5772 95.593 23.3805C95.4926 23.2494 95.3755 23.1182 95.2416 22.9871C93.3343 23.0527 91.6445 23.4788 90.1721 24.2655L92.8826 30.3135C94.0872 30.084 94.9739 29.9201 95.5428 29.8218C96.1451 29.7234 96.9649 29.6251 98.0023 29.5268C99.0396 29.3956 99.9765 29.3465 100.813 29.3792C101.683 29.412 102.536 29.5104 103.373 29.6743L103.323 29.1334C103.289 28.1828 103.306 27.478 103.373 27.0191C103.54 26.0357 103.841 24.9211 104.276 23.6755ZM104.477 23.1346L104.527 23.0363C104.628 22.0529 104.829 20.6433 105.13 18.8076C104.226 18.8076 102.955 19.0535 101.315 19.5452C99.7088 20.0041 98.6213 20.25 98.0525 20.2828C98.1194 21.0039 98.1194 21.594 98.0525 22.0529H98.203C98.3369 22.0857 99.2069 22.2004 100.813 22.3971C102.453 22.5938 103.674 22.8396 104.477 23.1346ZM103.774 29.7726L104.477 29.9693C104.477 29.7398 104.46 29.4612 104.427 29.1334C104.327 27.1338 104.31 25.6423 104.377 24.6589C104.109 25.5112 103.908 26.3307 103.774 27.1174C103.708 27.5108 103.691 28.1828 103.724 29.1334L103.774 29.7726ZM103.774 30.3627V31.5919C103.708 33.6898 103.072 35.0338 101.867 35.6239C101.533 35.755 101.231 35.7714 100.964 35.673C100.796 35.5747 100.612 35.4108 100.412 35.1813L100.01 34.6896C99.8761 34.5913 99.7758 34.5421 99.7088 34.5421C99.5081 34.5749 99.2236 34.7388 98.8555 35.0338C98.5209 35.3288 98.1026 35.4272 97.6007 35.3288C96.0949 34.9683 94.8401 33.9685 93.8362 32.3295C95.2751 35.3125 96.5968 37.2465 97.8015 38.1315C98.5711 38.6888 99.324 38.9019 100.06 38.7708C100.964 38.6069 101.917 38.0004 102.921 36.9515C103.825 35.9681 104.327 35.083 104.427 34.2963C104.527 33.3129 104.561 32.0836 104.527 30.6085C104.26 30.5102 104.009 30.4282 103.774 30.3627ZM87.4617 17.0375L88.0138 17.4309C88.1477 17.562 88.1477 17.7095 88.0138 17.8734C87.9134 18.0045 87.7796 18.0209 87.6123 17.9226L87.0601 17.5292C86.9263 17.3981 86.9096 17.267 87.0099 17.1359C87.1438 16.972 87.2944 16.9392 87.4617 17.0375ZM102.771 4.84329V6.56425C102.771 6.76093 102.67 6.85927 102.469 6.85927C102.269 6.85927 102.168 6.76093 102.168 6.56425V4.84329C102.168 4.64661 102.269 4.54827 102.469 4.54827C102.67 4.54827 102.771 4.64661 102.771 4.84329ZM81.037 8.48189C81.3381 8.51467 81.7062 8.61301 82.1412 8.77691L83.1953 9.17027C83.396 9.23584 83.463 9.36696 83.396 9.56364C83.3291 9.76032 83.1953 9.82588 82.9945 9.76032C82.9945 9.72754 82.6431 9.58003 81.9404 9.31779C81.5723 9.18666 81.2377 9.10471 80.9366 9.07193C80.7358 9.03915 80.6521 8.92442 80.6856 8.72774C80.7191 8.53106 80.8362 8.44911 81.037 8.48189ZM81.8902 16.3983L82.091 16.6933L82.1914 16.7425C82.1914 16.7753 82.1914 16.8081 82.1914 16.8408C82.1914 16.8408 82.2249 16.8572 82.2918 16.89C82.3587 16.9228 82.4424 16.972 82.5427 17.0375C82.6766 17.1686 82.6766 17.3161 82.5427 17.48C82.4424 17.6112 82.3085 17.6276 82.1412 17.5292C81.8735 17.2998 81.7229 17.185 81.6895 17.185L81.3883 16.6933C81.2879 16.5294 81.3214 16.3983 81.4887 16.3C81.656 16.2016 81.7899 16.2344 81.8902 16.3983ZM79.23 30.2151L79.6315 29.8709C79.7989 29.7726 79.9327 29.8054 80.0331 29.9693C80.1669 30.1004 80.1669 30.2315 80.0331 30.3627L79.6315 30.7068C79.4642 30.8052 79.3137 30.7888 79.1798 30.6577C79.0794 30.4938 79.0961 30.3463 79.23 30.2151ZM99.9096 31.5919C99.7423 32.0836 99.6586 32.6409 99.6586 33.2637C99.6586 33.4604 99.5582 33.5587 99.3575 33.5587C99.1567 33.5587 99.0563 33.4604 99.0563 33.2637C99.0563 32.5753 99.14 31.9525 99.3073 31.3952C99.3742 31.2313 99.4913 31.1822 99.6586 31.2477C99.8594 31.2805 99.9431 31.3952 99.9096 31.5919ZM96.8478 27.5108C97.0486 27.5108 97.149 27.6091 97.149 27.8058C97.149 28.0025 97.0486 28.1008 96.8478 28.1008C96.647 28.1008 96.5467 28.0025 96.5467 27.8058C96.5467 27.6091 96.647 27.5108 96.8478 27.5108ZM102.118 13.9398C102.319 13.9398 102.419 14.0381 102.419 14.2348C102.419 14.4315 102.319 14.5298 102.118 14.5298C101.917 14.5298 101.817 14.4315 101.817 14.2348C101.817 14.0381 101.917 13.9398 102.118 13.9398ZM80.4346 19.1027C80.6354 19.1027 80.7358 19.201 80.7358 19.3977C80.7358 19.5944 80.6354 19.6927 80.4346 19.6927C80.2339 19.6927 80.1335 19.5944 80.1335 19.3977C80.1335 19.201 80.2339 19.1027 80.4346 19.1027Z" fill="black"/>
<path d="M121.041 2.48309L118.23 1.59802L114.215 3.07313L112.508 9.76028L112.106 18.6109L113.01 27.9533L114.616 30.1168H116.624L118.23 31.4935L121.041 32.3786L121.442 34.2471L123.35 36.5089L122.045 38.3774L124.956 39.3608L130.276 38.8691L136.5 37.0989L141.419 32.3786L142.825 27.9533L143.728 16.8408V7.40011L142.524 3.66317L139.412 2.28641H137.103L135.396 3.07313L134.091 5.13828L133.69 12.4155L134.091 21.7578L132.083 26.9699L131.381 27.9533L130.276 28.5433H128.369L126.763 27.9533L125.558 25.3964V21.3645L124.956 11.6288L122.647 4.25322L121.041 2.48309Z" fill="#82BCC7"/>
<path d="M142.925 28.74C142.758 29.4284 142.574 30.0676 142.373 30.6577C140.666 35.4108 137.203 38.2791 131.983 39.2625C127.332 40.1475 123.885 40.0328 121.643 38.9183C121.342 38.7544 121.258 38.5413 121.392 38.2791C121.459 38.1152 121.576 38.0168 121.744 37.984L121.794 37.9349C122.195 37.4432 122.413 37.0334 122.446 36.7056C122.48 36.5089 122.43 36.3286 122.296 36.1647C122.262 36.0992 122.028 35.8533 121.593 35.4272C121.191 35.0338 120.907 34.6568 120.74 34.2963C120.673 34.1979 120.589 33.8209 120.489 33.1653C120.455 32.9687 120.338 32.7884 120.137 32.6245C119.97 32.5589 119.569 32.4934 118.933 32.4278C118.565 32.395 118.297 32.3622 118.13 32.3295C117.795 32.2639 117.544 32.1492 117.377 31.9853C117.109 31.6902 116.892 31.3952 116.724 31.1002C116.624 30.8707 116.557 30.756 116.523 30.756H116.423L116.473 30.8052C116.507 30.9035 116.457 30.9855 116.323 31.051C116.222 31.0838 116.139 31.0346 116.072 30.9035L116.022 30.756C115.821 30.756 115.52 30.7724 115.118 30.8052C114.884 30.838 114.716 30.756 114.616 30.5593L114.516 30.6577C114.248 30.8543 114.014 30.8216 113.813 30.5593C112.876 29.3137 112.274 28.0844 112.006 26.8716C111.772 25.7243 111.605 23.9869 111.504 21.6595C111.37 19.3649 111.354 16.9883 111.454 14.5298C111.554 11.7435 111.789 9.41612 112.157 7.54765C112.592 5.25304 113.194 3.71237 113.964 2.92565C114.432 2.43394 115.085 2.05697 115.921 1.79473C116.758 1.53249 117.544 1.40137 118.28 1.40137C120.121 1.40137 121.626 2.38477 122.798 4.35158C123.701 5.85947 124.387 7.99018 124.856 10.7437C125.023 11.6616 125.157 12.6286 125.257 13.6448C125.357 14.6609 125.424 15.6771 125.458 16.6933L125.608 19.2993C125.642 19.9877 125.659 20.8072 125.659 21.7579C125.692 22.6757 125.709 23.2493 125.709 23.4788C125.709 23.9705 125.742 24.4458 125.809 24.9047C125.91 24.9375 125.993 24.9539 126.06 24.9539C126.227 25.0195 126.294 25.1506 126.261 25.3473C126.227 25.4784 126.127 25.544 125.96 25.544C126.127 26.3635 126.378 27.0027 126.713 27.4616C127.047 27.9205 127.466 28.1992 127.968 28.2975C128.57 28.4286 129.306 28.3139 130.176 27.9533C130.611 27.7566 130.962 27.4944 131.23 27.1666C131.13 27.101 131.079 27.0191 131.079 26.9207C131.079 26.724 131.18 26.6257 131.381 26.6257H131.581C131.648 26.4618 131.849 26.0193 132.184 25.2981C133.221 22.8724 133.606 19.6927 133.338 15.7591C133.338 15.3985 133.288 14.6118 133.188 13.3989C133.087 12.186 133.02 11.301 132.987 10.7437C132.953 10.1537 132.937 9.38334 132.937 8.43271C132.97 7.44931 133.037 6.56424 133.137 5.77752C133.271 4.82689 133.673 4.04017 134.342 3.41735C135.011 2.76174 135.814 2.31921 136.751 2.08975C137.588 1.86029 138.491 1.8439 139.462 2.04058C140.432 2.23726 141.269 2.61423 141.971 3.1715C142.674 3.72876 143.21 4.66299 143.578 5.9742C143.879 6.99039 144.08 8.26881 144.18 9.80948C144.28 11.4813 144.264 13.8578 144.13 16.9392C143.929 21.0039 143.762 23.6755 143.628 24.9539C143.661 25.0195 143.678 25.085 143.678 25.1506C143.645 25.2162 143.611 25.2653 143.578 25.2981C143.444 26.3799 143.276 27.3796 143.076 28.2975C143.143 28.3958 143.159 28.4942 143.126 28.5925C143.092 28.6581 143.025 28.7072 142.925 28.74ZM114.616 19.201C117.862 17.9226 121.175 17.2834 124.554 17.2834C124.521 17.0539 124.504 16.8244 124.504 16.595C122.262 16.0049 119.368 15.8574 115.821 16.1524C115.821 16.3819 115.804 16.6114 115.771 16.8408C115.704 17.267 115.436 17.857 114.967 18.611L114.616 19.201ZM115.419 16.2016L112.408 16.4966C112.408 17.7095 112.424 18.9224 112.458 20.1352C112.993 19.873 113.529 19.6435 114.064 19.4468C114.164 19.2174 114.348 18.8732 114.616 18.4143C115.051 17.7259 115.302 17.1686 115.369 16.7425C115.402 16.5786 115.419 16.3983 115.419 16.2016ZM115.068 28.9367L114.566 28.1992C114.432 28.2319 114.332 28.1992 114.265 28.1008C113.863 27.183 113.596 26.2323 113.462 25.2489C113.361 25.2817 113.278 25.2981 113.211 25.2981H112.96L112.759 25.1014C112.826 25.7243 112.91 26.2487 113.01 26.6749C113.177 27.5272 113.529 28.3631 114.064 29.1826L115.068 28.9367ZM115.419 29.4776L114.415 29.6743L114.616 29.9693C114.616 30.0021 114.633 30.0185 114.666 30.0185C114.733 29.8873 114.85 29.8218 115.018 29.8218C115.252 29.789 115.436 29.7726 115.57 29.7726C115.536 29.6743 115.486 29.5759 115.419 29.4776ZM141.67 25.0523C140.265 24.7245 139.11 24.495 138.207 24.3639C136.3 24.1016 134.76 24.1016 133.589 24.3639C133.455 24.8228 133.288 25.2653 133.087 25.6915L132.736 26.5765C135.513 26.511 138.441 26.9043 141.52 27.7566V27.1174C141.553 26.2979 141.587 25.7243 141.62 25.3964C141.62 25.2653 141.637 25.1506 141.67 25.0523ZM142.373 23.9213C142.473 23.9541 142.59 23.9705 142.724 23.9705C142.758 23.5772 142.791 23.151 142.825 22.6921L142.774 22.8396C142.574 23.3313 142.44 23.6919 142.373 23.9213ZM142.172 24.5114V24.5606L142.624 24.6589L142.674 24.5606C142.507 24.5606 142.339 24.5442 142.172 24.5114ZM141.921 27.9041L142.122 27.9533C142.289 27.1338 142.44 26.2323 142.574 25.2489L142.072 25.1014C142.038 25.1998 142.022 25.2981 142.022 25.3964C141.988 25.7243 141.955 26.2979 141.921 27.1174V27.9041ZM141.871 28.4942C141.838 28.6253 141.821 28.7564 141.821 28.8875C141.787 29.117 141.754 29.3301 141.72 29.5267C141.787 29.1989 141.871 28.8711 141.971 28.5433L141.871 28.4942ZM114.616 15.6607C113.746 15.6607 113.01 15.6935 112.408 15.7591V15.9066L114.616 15.6607ZM140.717 16.9392C140.315 16.9064 139.863 16.9064 139.361 16.9392C138.96 16.9392 138.357 16.9556 137.554 16.9883C136.751 17.0211 136.182 17.0375 135.848 17.0375C135.547 17.0375 135.095 17.0047 134.493 16.9392H134.442C134.543 19.3649 134.376 21.4464 133.94 23.1838C135.078 23.0527 136.517 23.1182 138.257 23.3805C140.432 23.7083 141.67 23.8886 141.971 23.9213C142.038 23.6591 142.189 23.2493 142.423 22.6921C142.657 22.0365 142.825 21.5448 142.925 21.217C142.959 20.6925 143.009 19.4796 143.076 17.5784C141.804 17.2178 141.018 17.0047 140.717 16.9392ZM135.998 14.0381C135.965 14.0053 135.948 13.9562 135.948 13.8906C135.948 13.6939 136.049 13.5956 136.249 13.5956C138.525 13.5956 140.8 13.3989 143.076 13.0055C142.841 9.20305 142.724 7.23624 142.724 7.10512C142.724 7.03956 142.741 6.99039 142.774 6.9576C142.708 6.69536 142.641 6.44951 142.574 6.22005C142.273 5.13831 141.871 4.38436 141.369 3.95822C140.131 2.94203 138.675 2.64701 137.002 3.07315C136.233 3.26984 135.58 3.61403 135.045 4.10573C134.543 4.56465 134.242 5.1547 134.141 5.87586C133.907 7.61321 133.94 10.4487 134.242 14.3823L135.998 14.0381ZM142.473 13.6939C142.708 13.7267 142.925 13.7759 143.126 13.8414L143.076 13.5956L142.473 13.6939ZM122.095 25.1014C120.689 25.0359 119.133 25.0031 117.427 25.0031C117.059 25.0031 116.54 25.0359 115.871 25.1014C115.202 25.1342 114.783 25.1506 114.616 25.1506C114.482 25.1506 114.231 25.1834 113.863 25.2489C113.964 25.9701 114.148 26.6913 114.415 27.4124C114.449 27.4124 114.466 27.4288 114.466 27.4616C115.001 28.1172 115.352 28.5761 115.52 28.8384C119.602 27.9861 122.948 27.5435 125.558 27.5108C125.257 26.9207 125.04 26.1996 124.906 25.3473C124.605 25.3145 124.27 25.2817 123.902 25.2489C123.835 25.3801 123.735 25.4456 123.601 25.4456C123.199 25.4128 122.697 25.2981 122.095 25.1014ZM122.195 24.5114C123.233 24.5769 124.103 24.6589 124.805 24.7572C124.738 24.3311 124.705 23.905 124.705 23.4788C124.705 23.2166 124.688 22.7413 124.655 22.0529V19.9877C124.621 19.2666 124.588 18.5618 124.554 17.8734C121.041 17.8734 117.594 18.5782 114.215 19.9877C114.215 20.0861 114.198 20.168 114.164 20.2336C113.763 21.6431 113.629 23.0527 113.763 24.4622C113.964 24.3967 114.181 24.3475 114.415 24.3147C115.051 24.2491 115.837 24.1836 116.774 24.118C118.682 24.0525 120.037 24.0689 120.84 24.1672C121.175 24.2 121.626 24.3147 122.195 24.5114ZM120.689 4.35158C119.719 3.85988 118.799 3.72876 117.929 3.95822C117.059 4.25324 116.44 4.89245 116.072 5.87586C115.871 6.36756 115.955 6.95761 116.323 7.64599L116.423 7.7935C116.925 7.7935 117.46 7.77711 118.029 7.74433C119.435 7.61321 120.974 7.40014 122.647 7.10512C122.848 7.07234 122.965 7.15429 122.998 7.35097C123.032 7.54765 122.948 7.66238 122.747 7.69516C121.074 7.99018 119.518 8.20325 118.079 8.33437C117.578 8.36715 117.126 8.38354 116.724 8.38354C116.858 8.7769 116.892 9.13749 116.825 9.46529C116.724 9.82587 116.473 10.4487 116.072 11.3338C115.771 12.0877 115.587 12.7105 115.52 13.2022C115.486 13.5956 115.536 14.1856 115.67 14.9724V15.1199H116.624C116.825 15.1199 116.925 15.2182 116.925 15.4149V15.4641C119.87 15.2674 122.379 15.4313 124.454 15.9558C124.32 14.0873 124.119 12.4155 123.852 10.9404C123.417 8.2852 122.764 6.25283 121.894 4.84328C120.957 3.20428 119.753 2.38477 118.28 2.38477C117.644 2.38477 116.975 2.4995 116.272 2.72896C115.57 2.95842 115.034 3.25345 114.666 3.61403C114.031 4.23685 113.529 5.59723 113.161 7.69516C112.792 9.56363 112.558 11.8419 112.458 14.5298V15.169C113.127 15.1035 114.064 15.0871 115.269 15.1199V15.0215C115.135 14.202 115.085 13.5956 115.118 13.2022C115.185 12.645 115.386 11.973 115.72 11.1862C116.122 10.3012 116.356 9.69475 116.423 9.36695C116.49 9.07193 116.44 8.74412 116.272 8.38354C115.001 8.41632 114.064 8.31798 113.462 8.08852C113.261 7.99018 113.194 7.85906 113.261 7.69516C113.361 7.49848 113.495 7.43292 113.662 7.49848C114.164 7.69516 114.934 7.7935 115.971 7.7935C115.57 7.03956 115.469 6.36756 115.67 5.77752C116.105 4.63021 116.825 3.90905 117.828 3.61403C118.799 3.31901 119.819 3.46652 120.89 4.05656C120.991 4.08934 121.007 4.17129 120.94 4.30241C120.907 4.40075 120.823 4.41714 120.689 4.35158ZM125.056 38.2791C126.562 38.2791 127.432 38.1152 127.666 37.7873C127.666 37.7546 127.717 37.6562 127.817 37.4923C127.917 37.3612 128.001 37.2465 128.068 37.1481C128.336 36.8531 128.771 36.5909 129.373 36.3614C129.774 36.1975 130.377 36.1975 131.18 36.3614C132.016 36.5253 132.585 36.5745 132.886 36.5089C133.556 36.4106 134.158 35.9189 134.693 35.0338C134.76 34.9683 134.844 34.8535 134.944 34.6896L135.195 34.3454C135.229 34.2471 135.296 34.116 135.396 33.9521L135.697 33.6079C135.798 33.5095 135.898 33.4112 135.998 33.3129C136.132 33.2145 136.266 33.1326 136.4 33.067C136.735 32.8703 137.37 32.6736 138.307 32.477C139.077 32.3458 139.629 32.1164 139.964 31.7886C140.767 31.1002 141.252 30.1168 141.419 28.8384C141.419 28.7072 141.436 28.5597 141.469 28.3958C138.324 27.478 135.312 27.0682 132.435 27.1666C131.966 27.9533 131.347 28.5106 130.578 28.8384C129.54 29.2973 128.603 29.4448 127.767 29.2809C127.064 29.117 126.462 28.7236 125.96 28.1008C123.283 28.1336 119.903 28.5597 115.821 29.3792L116.022 29.7726H116.423C116.791 29.7726 117.076 29.8709 117.276 30.0676C117.343 30.166 117.46 30.3626 117.628 30.6577C117.728 30.8871 117.879 31.1002 118.079 31.2969C118.113 31.3297 118.197 31.3624 118.33 31.3952C118.464 31.428 118.698 31.4444 119.033 31.4444C119.836 31.5099 120.372 31.6411 120.639 31.8378C121.141 32.1328 121.426 32.5261 121.493 33.0178C121.593 33.5751 121.643 33.8701 121.643 33.9029C121.777 34.1651 121.995 34.4438 122.296 34.7388C122.764 35.1977 123.032 35.4763 123.099 35.5747C123.4 35.9681 123.517 36.3942 123.45 36.8531C123.383 37.2793 123.149 37.771 122.747 38.3282C124.789 39.0494 127.8 39.033 131.782 38.2791C136.5 37.394 139.663 34.8699 141.269 30.7068C141.034 31.2313 140.7 31.6902 140.265 32.0836C139.83 32.4442 139.211 32.7064 138.408 32.8703C137.504 33.067 136.902 33.2309 136.601 33.362L136.199 33.6571C136.099 33.7226 135.998 33.8373 135.898 34.0012L135.597 34.3454C135.563 34.411 135.463 34.5749 135.296 34.8371C135.162 35.0994 135.078 35.2305 135.045 35.2305C134.442 36.2139 133.756 36.7712 132.987 36.9023C132.619 36.9678 132 36.9187 131.13 36.7548C130.394 36.6237 129.841 36.6237 129.473 36.7548C128.971 36.9515 128.603 37.1645 128.369 37.394L128.168 37.689C128.068 37.8529 128.001 37.9513 127.968 37.984C127.666 38.443 126.696 38.6724 125.056 38.6724C124.922 38.6724 124.856 38.6069 124.856 38.4757C124.856 38.3446 124.922 38.2791 125.056 38.2791ZM134.593 16.3491C135.061 16.4147 136.032 16.4311 137.504 16.3983C137.471 16.3327 137.454 16.2836 137.454 16.2508C137.454 16.0541 137.554 15.9558 137.755 15.9558C138.625 15.9558 139.646 16.0869 140.817 16.3491C141.252 16.3819 141.637 16.4311 141.971 16.4966C142.406 16.595 142.791 16.7261 143.126 16.89C143.159 16.2016 143.176 15.7755 143.176 15.6116C143.176 15.251 143.159 14.8576 143.126 14.4315C141.352 14.0053 138.408 14.1856 134.292 14.9724C134.325 15.2346 134.342 15.4804 134.342 15.7099C134.376 15.9394 134.392 16.1688 134.392 16.3983C134.459 16.3655 134.526 16.3491 134.593 16.3491ZM119.686 11.0879C119.686 11.4157 119.853 11.9566 120.188 12.7105C120.288 12.8744 120.238 13.0055 120.037 13.1039C119.87 13.1694 119.753 13.1039 119.686 12.9072C119.284 12.0877 119.083 11.4813 119.083 11.0879C119.083 10.8912 119.184 10.7929 119.384 10.7929C119.585 10.7929 119.686 10.8912 119.686 11.0879ZM120.288 21.8562C120.656 21.5612 121.124 21.2498 121.693 20.922C121.861 20.8236 121.995 20.8564 122.095 21.0203C122.195 21.1842 122.162 21.3153 121.995 21.4137C121.493 21.7415 121.058 22.0529 120.689 22.3479C120.522 22.4462 120.372 22.4298 120.238 22.2987C120.137 22.1348 120.154 21.9873 120.288 21.8562ZM134.844 30.5102C135.045 31.1985 135.145 31.7558 135.145 32.1819C135.145 32.3786 135.045 32.477 134.844 32.477C134.643 32.477 134.543 32.3786 134.543 32.1819C134.543 31.8214 134.442 31.3297 134.242 30.7068C134.208 30.5102 134.275 30.3954 134.442 30.3626C134.643 30.2971 134.777 30.3463 134.844 30.5102ZM128.068 32.0836C128.001 33.1326 127.7 34.0996 127.164 34.9846C127.064 35.1485 126.93 35.1813 126.763 35.083C126.596 34.9846 126.562 34.8535 126.662 34.6896C127.131 33.8701 127.399 33.0014 127.466 32.0836C127.466 31.8869 127.566 31.7886 127.767 31.7886C127.968 31.7886 128.068 31.8869 128.068 32.0836ZM138.91 7.49848C139.11 7.49848 139.211 7.59682 139.211 7.7935C139.211 7.99018 139.11 8.08852 138.91 8.08852C138.709 8.08852 138.608 7.99018 138.608 7.7935C138.608 7.59682 138.709 7.49848 138.91 7.49848ZM137.956 20.7253C138.157 20.7253 138.257 20.8236 138.257 21.0203C138.257 21.217 138.157 21.3153 137.956 21.3153C137.755 21.3153 137.655 21.217 137.655 21.0203C137.655 20.8236 137.755 20.7253 137.956 20.7253ZM112.759 24.9539C112.759 24.9211 112.776 24.8884 112.809 24.8556C112.843 24.8228 112.859 24.79 112.859 24.7572C112.993 24.6917 113.161 24.6261 113.361 24.5606C113.227 23.1182 113.361 21.6595 113.763 20.1844L112.458 20.7744C112.525 22.4462 112.625 23.8394 112.759 24.9539Z" fill="black"/>
<path d="M153.265 2.77812L151.056 3.95821L149.149 7.40013L148.848 9.56362L151.056 12.1205L156.979 12.6122L159.388 13.3006L159.69 14.7757L159.388 18.7093L158.686 25.9865L160.091 33.657L161.497 36.1156L163.805 37.984H166.014L167.721 36.1156L169.026 32.9687L168.724 24.413L168.022 16.1524L169.026 13.3006L171.334 12.6122L176.053 12.1205L177.96 10.547L178.663 7.89183L177.558 4.94161L173.844 2.38476L163.504 1.49969L153.265 2.77812Z" fill="#FFD53F"/>
<path d="M160.693 35.8698C159.723 34.5258 159.037 32.8376 158.636 30.8052C158.234 28.7401 158.05 26.8224 158.083 25.0523C158.15 23.2822 158.334 21.4793 158.636 19.6436L158.886 18.3651C159.02 17.6768 159.104 17.1851 159.137 16.89C159.171 16.595 159.188 16.2017 159.188 15.71C159.188 15.1855 159.137 14.7265 159.037 14.3332C158.937 13.8743 158.502 13.5792 157.732 13.4481C157.464 13.4153 156.46 13.3826 154.72 13.3498C154.018 13.317 153.399 13.2678 152.863 13.2023C152.361 13.1367 151.809 13.0056 151.207 12.8089C150.605 12.5794 150.069 12.2516 149.601 11.8255C149.166 11.3666 148.814 10.7929 148.547 10.1045C148.112 8.95724 148.379 7.58047 149.35 5.97424C149.617 5.44976 149.935 4.99084 150.303 4.59747L150.203 4.49913C150.036 4.20411 150.103 3.97465 150.404 3.81075C150.571 3.74519 150.755 3.63046 150.956 3.46656L151.558 3.0732C152.06 2.71261 152.545 2.46676 153.014 2.33564C154.62 1.94228 156.845 1.61448 159.69 1.35224C162.567 1.09 165.311 1.04083 167.921 1.20473C171.234 1.43419 173.811 2.00784 175.651 2.92568C177.96 4.13855 179.031 5.8759 178.863 8.13773C178.73 9.90786 178.127 11.1699 177.056 11.9238C176.287 12.4811 175.149 12.8089 173.643 12.9072C173.476 12.9072 172.991 12.9236 172.188 12.9564C171.385 12.9892 170.799 13.022 170.431 13.0548C169.527 13.2187 168.975 13.5792 168.775 14.1365C168.473 15.0216 168.406 16.7425 168.574 19.2994C168.607 20.0205 168.691 21.2334 168.825 22.938C168.992 24.6098 169.109 25.9046 169.176 26.8224C169.343 29.9038 169.276 32.2803 168.975 33.9521C168.507 36.3123 167.503 37.7382 165.964 38.2299C165.127 38.5249 164.291 38.5086 163.454 38.1808C162.651 37.853 161.932 37.3613 161.296 36.7057L161.246 36.6073C161.246 36.6401 161.229 36.6729 161.195 36.7057C161.062 36.7384 160.961 36.7057 160.894 36.6073C160.794 36.3451 160.727 36.0992 160.693 35.8698ZM159.89 29.871C159.924 29.9693 159.974 30.0677 160.041 30.166C160.074 30.2971 160.024 30.3955 159.89 30.461C159.79 30.4938 159.706 30.461 159.639 30.3627C159.539 30.1004 159.455 29.8382 159.388 29.576C159.656 31.3789 160.125 32.9195 160.794 34.198L160.995 33.7063C160.995 33.6735 161.078 33.4932 161.246 33.1654C161.313 32.9359 161.379 32.772 161.446 32.6737C161.547 32.3131 161.563 32.0181 161.497 31.7886C161.43 31.5592 161.212 31.2314 160.844 30.8052C160.476 30.3463 160.242 30.0185 160.141 29.8218C160.108 29.8546 160.058 29.871 159.991 29.871H159.89ZM160.442 29.4776C160.509 29.7071 160.744 30.0677 161.145 30.5594C161.547 31.0511 161.798 31.428 161.898 31.6903C161.998 31.9853 161.965 32.3459 161.798 32.772C161.764 32.9032 161.697 33.0834 161.597 33.3129L161.346 33.8538C161.212 34.1816 161.128 34.4602 161.095 34.6897C161.396 35.1814 161.731 35.6239 162.099 36.0173C163.237 37.2957 164.424 37.7382 165.663 37.3449C166.8 36.9515 167.57 35.755 167.971 33.7554C168.273 32.1492 168.34 29.8546 168.172 26.8716C168.105 25.9538 167.988 24.6589 167.821 22.9871C167.687 21.2826 167.603 20.0861 167.57 19.3977C167.403 16.677 167.503 14.8249 167.871 13.8415C168.172 12.8909 168.975 12.3172 170.28 12.1205C170.548 12.055 170.866 12.0222 171.234 12.0222C171.636 11.9894 172.071 11.973 172.539 11.973C173.008 11.9402 173.359 11.9238 173.593 11.9238C174.865 11.8255 175.818 11.5633 176.454 11.1371C177.291 10.5471 177.759 9.5145 177.86 8.03939C177.993 6.23648 177.09 4.82693 175.149 3.81075C173.443 2.92568 171.017 2.38481 167.871 2.18813C165.294 2.02423 162.601 2.0734 159.79 2.33564C156.979 2.59788 154.787 2.92569 153.215 3.31905H153.114C153.114 3.38461 153.081 3.43378 153.014 3.46656C153.081 3.53212 153.114 3.61407 153.114 3.71241C153.148 4.00743 152.997 4.18772 152.663 4.25328H152.562C152.83 5.00723 152.914 5.53171 152.813 5.82673C152.746 5.95785 152.679 6.08897 152.612 6.22009C152.579 6.31843 152.512 6.41677 152.412 6.51511C152.345 6.58067 152.294 6.62985 152.261 6.66262L152.01 6.81014C151.91 6.8757 151.843 6.90848 151.809 6.90848C151.642 7.00682 151.525 7.13794 151.458 7.30184C151.358 7.49852 151.307 7.77715 151.307 8.13773C151.341 8.13773 151.358 8.15412 151.358 8.1869C152.127 9.43255 152.863 10.1865 153.566 10.4487C154.068 10.6454 154.603 10.5799 155.172 10.2521C155.373 10.1209 155.624 9.94064 155.925 9.71118C156.36 9.3506 156.611 9.15392 156.678 9.12114C157.314 8.66222 157.866 8.49831 158.334 8.62944C158.535 8.69499 158.753 8.8589 158.987 9.12114C159.255 9.38338 159.439 9.54728 159.539 9.61284L160.693 10.0554C161.195 10.2521 161.547 10.5307 161.748 10.8913C161.814 11.0879 161.848 11.3502 161.848 11.678C161.848 11.973 161.814 12.35 161.748 12.8089C161.647 13.5628 161.463 14.5299 161.195 15.71C160.459 18.7913 160.091 20.4467 160.091 20.6761C159.857 24.4459 159.874 27.3469 160.141 29.3793C160.275 29.3465 160.376 29.3793 160.442 29.4776ZM158.736 4.99083L159.991 5.82673C160.493 6.15453 160.911 6.41677 161.246 6.61346C161.413 6.71179 161.446 6.84291 161.346 7.00681C161.246 7.17072 161.112 7.2035 160.944 7.10516C160.576 6.90848 160.141 6.64623 159.639 6.31843L158.435 5.48254C158.267 5.3842 158.234 5.25308 158.334 5.08918C158.435 4.92528 158.569 4.8925 158.736 4.99083ZM166.064 9.07197V8.72778C166.064 8.59665 166.064 8.49831 166.064 8.43275C166.098 8.36719 166.148 8.28524 166.215 8.1869C166.349 8.08856 166.432 7.99022 166.466 7.89188C166.6 7.76076 166.733 7.76076 166.867 7.89188C167.035 7.99022 167.068 8.12134 166.968 8.28524C166.901 8.3508 166.817 8.44914 166.717 8.58026L166.666 8.62944V9.07197C166.666 9.26865 166.566 9.36699 166.365 9.36699C166.165 9.36699 166.064 9.26865 166.064 9.07197ZM172.539 5.48254C172.573 5.8759 172.589 6.79374 172.589 8.23607C172.589 8.43275 172.489 8.53109 172.288 8.53109C172.087 8.53109 171.987 8.43275 171.987 8.23607C171.987 6.79374 171.97 5.90868 171.937 5.58088C171.903 5.3842 171.987 5.26947 172.188 5.23669C172.388 5.20391 172.506 5.28586 172.539 5.48254ZM163.906 16.7425L164.157 17.1359C164.224 17.267 164.257 17.349 164.257 17.3817C164.291 17.4145 164.358 17.6112 164.458 17.9718C164.491 18.1685 164.408 18.2996 164.207 18.3651C164.04 18.3979 163.923 18.3324 163.856 18.1685L163.705 17.6276C163.705 17.5948 163.672 17.5293 163.605 17.4309L163.404 17.0375C163.303 16.8736 163.337 16.7425 163.504 16.6442C163.672 16.5458 163.805 16.5786 163.906 16.7425ZM161.396 24.5114C161.865 24.282 162.701 23.823 163.906 23.1347C164.073 23.0363 164.207 23.0691 164.307 23.233C164.408 23.3969 164.374 23.528 164.207 23.6264C163.002 24.3147 162.166 24.7737 161.697 25.0031C161.497 25.1015 161.346 25.0687 161.246 24.9048C161.179 24.7081 161.229 24.577 161.396 24.5114ZM164.408 28.8876C164.441 28.3631 164.458 27.6911 164.458 26.8716C164.458 26.6749 164.558 26.5766 164.759 26.5766C164.96 26.5766 165.06 26.6749 165.06 26.8716C165.06 27.6911 165.044 28.3631 165.01 28.8876C165.01 29.0843 164.91 29.1826 164.709 29.1826C164.508 29.1826 164.408 29.0843 164.408 28.8876ZM165.964 33.2637C165.997 33.4276 166.148 33.9357 166.415 34.788C166.616 35.3781 166.75 35.8861 166.817 36.3123C166.85 36.509 166.767 36.6237 166.566 36.6565C166.365 36.6893 166.248 36.6073 166.215 36.4106C166.148 36.0173 166.014 35.5256 165.813 34.9355C165.545 34.0832 165.395 33.5915 165.361 33.4604C165.328 33.2637 165.395 33.149 165.562 33.1162C165.763 33.0507 165.897 33.0998 165.964 33.2637ZM164.558 13.2514L165.211 12.6614C165.345 12.5303 165.479 12.5303 165.612 12.6614C165.746 12.7925 165.746 12.9236 165.612 13.0548L164.96 13.6448C164.826 13.7759 164.692 13.7759 164.558 13.6448C164.424 13.5137 164.424 13.3826 164.558 13.2514ZM169.076 9.31782C170.113 9.54728 170.916 9.90786 171.485 10.3996C171.619 10.5307 171.619 10.6618 171.485 10.7929C171.351 10.924 171.217 10.924 171.083 10.7929C170.615 10.3996 169.912 10.1045 168.975 9.90786C168.775 9.87508 168.691 9.76035 168.724 9.56367C168.758 9.36699 168.875 9.28504 169.076 9.31782ZM158.083 12.4647C158.318 12.2025 158.92 11.6124 159.89 10.6946C160.024 10.5635 160.158 10.5635 160.292 10.6946C160.426 10.8257 160.426 10.9568 160.292 11.0879C159.388 11.973 158.853 12.5139 158.686 12.7106C159.422 12.9728 159.874 13.4481 160.041 14.1365C160.141 14.5626 160.192 15.0707 160.192 15.6608C160.192 16.218 160.158 16.677 160.091 17.0375C160.058 17.3653 159.974 17.8898 159.84 18.611C159.706 19.2994 159.639 19.7091 159.639 19.8403C159.204 22.5282 159.054 25.0851 159.188 27.5108L159.238 27.4616C159.372 27.4289 159.455 27.478 159.489 27.6092C159.522 27.8058 159.556 28.0845 159.589 28.445C159.656 28.7728 159.706 29.0023 159.74 29.1334C159.472 27.1011 159.455 24.282 159.69 20.6761C159.69 20.4139 160.058 18.7421 160.794 15.6608C161.062 14.4151 161.246 13.4481 161.346 12.7597C161.413 12.3336 161.446 11.973 161.446 11.678C161.446 11.383 161.413 11.1863 161.346 11.0879C161.212 10.7929 160.944 10.5635 160.543 10.3996C159.773 10.1045 159.372 9.94064 159.338 9.90786C159.204 9.8423 159.004 9.66201 158.736 9.36699C158.535 9.17031 158.368 9.05558 158.234 9.0228C157.899 8.92446 157.464 9.05558 156.929 9.41616C156.862 9.48172 156.611 9.6784 156.176 10.0062C155.875 10.2684 155.607 10.4651 155.373 10.5962C154.67 10.9896 154.018 11.0716 153.415 10.8421C152.646 10.5471 151.876 9.76035 151.107 8.48192C150.973 8.48192 150.906 8.41636 150.906 8.28524C150.906 7.79354 150.973 7.41657 151.107 7.15433C151.207 6.92487 151.358 6.74458 151.558 6.61346C151.625 6.58067 151.692 6.54789 151.759 6.51511C151.859 6.44955 151.926 6.40038 151.96 6.3676C152.027 6.33482 152.077 6.28565 152.11 6.22009C152.177 6.15453 152.228 6.08897 152.261 6.02341C152.328 5.92507 152.378 5.82673 152.412 5.72839C152.478 5.49893 152.412 5.0564 152.211 4.40079C151.475 4.72859 150.805 5.41698 150.203 6.46594C149.4 7.80993 149.149 8.89168 149.45 9.71118C149.852 10.7601 150.487 11.4649 151.358 11.8255C152.228 12.1533 153.349 12.3336 154.72 12.3664C156.594 12.3992 157.665 12.4483 157.933 12.5139H158.083V12.4647ZM163.354 5.18752C163.554 5.18752 163.655 5.28586 163.655 5.48254C163.655 5.67922 163.554 5.77756 163.354 5.77756C163.153 5.77756 163.053 5.67922 163.053 5.48254C163.053 5.28586 163.153 5.18752 163.354 5.18752ZM162.35 27.6583C162.551 27.6583 162.651 27.7567 162.651 27.9533C162.651 28.15 162.551 28.2484 162.35 28.2484C162.149 28.2484 162.049 28.15 162.049 27.9533C162.049 27.7567 162.149 27.6583 162.35 27.6583ZM169.778 4.69581C169.979 4.69581 170.08 4.79415 170.08 4.99083C170.08 5.18752 169.979 5.28586 169.778 5.28586C169.578 5.28586 169.477 5.18752 169.477 4.99083C169.477 4.79415 169.578 4.69581 169.778 4.69581Z" fill="black"/>
<path d="M198.439 11.2354L197.435 11.6287L196.03 12.4155L195.528 14.5789L198.138 16.4474L202.153 17.2341L206.57 19.8893L209.381 22.9379L210.686 28.3466L209.682 32.1819L206.57 35.8205L202.856 38.0823L197.134 39.6558L191.813 39.2624L189.103 38.4757L187.296 37.689L185.389 36.5089L183.682 33.067L183.18 31.3952V29.33L184.385 26.2815L185.389 24.413H189.906L191.512 25.3964L192.516 27.2649L194.022 28.3466H196.03L198.138 27.7566L198.439 26.6748L198.138 24.708L194.624 23.7246L190.308 22.4462L185.389 20.2827L183.682 17.7258L182.076 12.8088L183.18 13.0055L185.188 12.4155L185.389 11.2354V9.46524L186.894 8.77686V7.8918L186.593 6.22001L188.701 5.92499L189.103 5.13826L187.999 2.87643L189.103 1.79468L194.624 0.811279H199.844L204.462 2.48307L207.273 4.2532L209.08 7.40009V10.4486L208.076 13.0055L206.57 14.5789L204.864 15.169L202.153 14.5789L200.346 13.2022L198.439 11.2354Z" fill="#FF5757"/>
<path d="M194.925 15.0707C195.126 15.3657 195.41 15.5952 195.779 15.7591C195.477 15.464 195.293 15.1362 195.226 14.7757C195.026 13.6939 195.243 12.7761 195.879 12.0221C196.716 11.0387 197.519 10.5962 198.288 10.6945C197.251 10.0389 196.331 10.17 195.528 11.0879C195.093 11.5468 194.808 12.1041 194.674 12.7597C194.574 13.4153 194.658 14.1364 194.925 14.9232V15.0707ZM187.898 3.56484L187.647 3.02397C187.513 2.72895 187.58 2.51588 187.848 2.38476C187.882 2.3192 187.932 2.25364 187.999 2.18808C188.233 1.95862 188.517 1.76194 188.852 1.59803C189.22 1.40135 189.504 1.27023 189.705 1.20467C189.939 1.13911 190.291 1.05716 190.759 0.958821C191.228 0.860479 191.512 0.794919 191.613 0.762139C195.628 -0.254046 199.292 -0.254046 202.605 0.762139C206.687 2.00779 209.063 4.59742 209.732 8.53104C209.866 9.38332 209.782 10.3012 209.481 11.2846C209.214 12.268 208.812 13.0875 208.277 13.7431C207.541 14.6281 206.604 15.1854 205.466 15.4149C205.098 15.4804 204.73 15.5296 204.362 15.5624C204.027 15.5624 203.709 15.5296 203.408 15.464L202.555 15.2182C202.32 15.1526 202.069 15.0379 201.802 14.874L201.149 14.4315C201.015 14.3331 200.831 14.1528 200.597 13.8906L200.095 13.3989C199.995 13.3006 199.844 13.1367 199.643 12.9072C198.974 12.186 198.489 11.7927 198.188 11.7271C197.786 11.596 197.284 11.891 196.682 12.6122C196.214 13.1367 196.063 13.7923 196.23 14.579C196.297 14.9396 196.598 15.2674 197.134 15.5624C197.602 15.8246 198.305 16.0705 199.242 16.2999L200.045 16.4966L200.999 16.7425C201.333 16.808 201.584 16.8572 201.752 16.89C202.722 17.1194 203.408 17.3325 203.809 17.5292C205.851 18.5782 207.49 19.8894 208.728 21.4628C209.967 23.0035 210.703 24.7408 210.937 26.6749C211.171 28.6417 210.753 30.7068 209.682 32.8703C208.611 35.0666 206.721 36.8039 204.01 38.0824C201.3 39.328 198.405 39.9672 195.327 40C193.286 40 191.395 39.7214 189.655 39.1641C187.948 38.6068 186.443 37.6726 185.138 36.3614C183.833 35.0502 183.013 33.4604 182.678 31.5919C182.41 29.9857 182.477 28.6089 182.879 27.4616C183.314 26.0848 184.351 24.9211 185.991 23.9705C186.56 23.6427 187.396 23.4788 188.501 23.4788C189.605 23.4788 190.508 23.7083 191.211 24.1672C191.713 24.5278 192.148 25.0522 192.516 25.7406L193.219 27.0191C193.252 27.1174 193.336 27.2649 193.47 27.4616C193.637 27.6255 193.788 27.7566 193.921 27.8549C194.089 27.9205 194.273 27.9697 194.474 28.0025C195.31 28.1991 196.18 28.0352 197.084 27.5108C197.954 26.9863 198.272 26.3634 198.037 25.6423C197.803 25.085 197.167 24.6261 196.13 24.2655C195.762 24.1344 194.457 23.8394 192.215 23.3805C190.274 22.9543 188.601 22.4134 187.196 21.7578C185.757 21.0695 184.569 20.0369 183.632 18.6601C182.293 16.7261 181.708 14.8412 181.875 13.0055V12.9564C181.875 12.858 181.892 12.7761 181.925 12.7105C181.925 12.5794 181.942 12.4319 181.975 12.268C182.042 11.9402 182.243 11.8091 182.578 11.8746C182.845 11.9402 182.979 12.1041 182.979 12.3663C183.782 12.268 184.368 12.1205 184.736 11.9238C185.004 11.7599 185.154 11.5796 185.188 11.3829C185.188 11.2518 185.121 10.9732 184.987 10.547C184.786 10.0225 184.77 9.62918 184.937 9.36693C185.104 9.10469 185.355 8.9244 185.69 8.82606C185.79 8.79328 185.907 8.7605 186.041 8.72772C186.175 8.69494 186.259 8.67855 186.292 8.67855C186.392 8.64577 186.459 8.5966 186.493 8.53104C186.56 8.4327 186.593 8.25241 186.593 7.99017L186.543 7.79349C186.51 7.66236 186.443 7.46568 186.342 7.20344C186.242 6.9412 186.175 6.76091 186.141 6.66257C186.108 6.56423 186.091 6.48228 186.091 6.41672C186.058 6.38394 186.041 6.35116 186.041 6.31838C186.041 6.22004 186.058 6.1217 186.091 6.02336C186.158 5.85945 186.275 5.76111 186.443 5.72833C186.51 5.69556 186.593 5.67917 186.694 5.67917C186.761 5.64638 186.911 5.62999 187.145 5.62999C187.614 5.62999 187.948 5.59721 188.149 5.53165C188.35 5.46609 188.467 5.38414 188.501 5.2858C188.534 5.02356 188.367 4.59742 187.999 4.00737C187.932 3.90904 187.915 3.79431 187.948 3.66318C187.915 3.6304 187.898 3.59762 187.898 3.56484ZM198.64 5.08912H202.404C202.605 5.08912 202.705 5.18746 202.705 5.38414C202.705 5.58082 202.605 5.67917 202.404 5.67917H198.64C198.439 5.67917 198.338 5.58082 198.338 5.38414C198.338 5.18746 198.439 5.08912 198.64 5.08912ZM188.099 13.6447C188.333 13.8742 188.618 14.1856 188.952 14.579C189.387 15.1035 189.672 15.4313 189.806 15.5624C189.906 15.7263 189.873 15.8738 189.705 16.0049C189.571 16.1033 189.437 16.0869 189.304 15.9557C189.203 15.8246 188.936 15.4968 188.501 14.9723C188.199 14.579 187.932 14.2676 187.697 14.0381C187.564 13.907 187.564 13.7759 187.697 13.6447C187.831 13.5136 187.965 13.5136 188.099 13.6447ZM194.725 21.1678C194.691 21.0695 194.658 20.9547 194.624 20.8236C194.591 20.7253 194.574 20.6433 194.574 20.5777V20.0369C194.574 19.8402 194.674 19.7419 194.875 19.7419C195.076 19.7419 195.176 19.8402 195.176 20.0369V20.5286L195.226 20.6761L195.327 21.0695C195.36 21.2334 195.277 21.3481 195.076 21.4136C194.909 21.4464 194.791 21.3645 194.725 21.1678ZM192.165 33.7554C192.566 33.7882 193.085 33.8045 193.721 33.8045L195.327 33.7554C195.528 33.7554 195.628 33.8537 195.628 34.0504C195.628 34.2471 195.528 34.3454 195.327 34.3454H194.825C194.658 34.3454 194.457 34.3618 194.223 34.3946C194.022 34.3946 193.854 34.3946 193.721 34.3946C193.085 34.3946 192.533 34.3782 192.064 34.3454C191.864 34.3126 191.78 34.1979 191.813 34.0012C191.847 33.8045 191.964 33.7226 192.165 33.7554ZM201.902 26.9207C201.969 27.4124 202.237 28.2975 202.705 29.5759C202.772 29.7726 202.705 29.9037 202.504 29.9693C202.304 30.0348 202.17 29.9693 202.103 29.7726C201.634 28.3958 201.367 27.478 201.3 27.0191C201.266 26.8224 201.35 26.7076 201.551 26.6749C201.752 26.6421 201.869 26.724 201.902 26.9207ZM197.937 30.9527V30.3626C197.937 30.1659 198.037 30.0676 198.238 30.0676C198.439 30.0676 198.539 30.1659 198.539 30.3626V30.9527C198.539 31.1494 198.439 31.2477 198.238 31.2477C198.037 31.2477 197.937 31.1494 197.937 30.9527ZM193.269 17.48C193.403 17.4472 193.537 17.4309 193.67 17.4309C193.704 17.4309 193.737 17.4309 193.771 17.4309C193.804 17.3981 193.821 17.3817 193.821 17.3817C193.854 17.3817 193.905 17.3653 193.972 17.3325C194.039 17.267 194.122 17.2178 194.223 17.185C194.423 17.0867 194.557 17.1358 194.624 17.3325C194.725 17.4964 194.691 17.6111 194.524 17.6767C194.156 17.8734 193.955 17.9717 193.921 17.9717C193.921 17.9717 193.737 18.0045 193.369 18.0701C193.169 18.1028 193.051 18.0209 193.018 17.8242C192.984 17.6275 193.068 17.5128 193.269 17.48ZM190.558 30.0184C190.659 30.5101 190.726 30.9199 190.759 31.2477C190.793 31.4444 190.709 31.5591 190.508 31.5919C190.308 31.6247 190.19 31.5427 190.157 31.346C190.123 31.0182 190.057 30.6085 189.956 30.1168C189.923 29.9201 190.006 29.8054 190.207 29.7726C190.408 29.7398 190.525 29.8218 190.558 30.0184ZM200.346 8.13768C200.413 7.84265 200.564 7.7607 200.798 7.89182C200.865 7.92461 200.915 8.00656 200.948 8.13768C200.781 9.61278 200.547 10.7273 200.246 11.4813C200.145 11.6779 200.012 11.7435 199.844 11.6779C199.945 11.7763 200.129 11.973 200.396 12.268C200.932 12.8252 201.35 13.2514 201.651 13.5464C201.986 13.8414 202.471 14.1037 203.107 14.3331C203.776 14.5626 204.495 14.5954 205.265 14.4315C206.169 14.2676 206.905 13.8414 207.474 13.153C207.942 12.5958 208.31 11.891 208.578 11.0387C208.812 10.1864 208.862 9.4161 208.728 8.72772C208.561 7.67875 208.243 6.72813 207.775 5.87584C207.641 6.59701 207.524 7.18705 207.423 7.64597C207.356 7.84266 207.223 7.92461 207.022 7.89182C206.855 7.82626 206.788 7.71153 206.821 7.54763C206.955 7.02315 207.106 6.2856 207.273 5.33497C207.273 5.26941 207.306 5.22024 207.373 5.18746C206.269 3.54845 204.579 2.38476 202.304 1.69637C199.259 0.778529 195.762 0.794919 191.813 1.74554C191.679 1.77832 191.395 1.84388 190.96 1.94222C190.525 2.04057 190.207 2.12252 190.006 2.18808C189.839 2.22086 189.622 2.30281 189.354 2.43393C189.086 2.56505 188.869 2.71256 188.701 2.87646L188.802 3.17148C188.835 3.26982 188.852 3.36816 188.852 3.4665L188.902 3.51567C189.404 4.3024 189.588 4.958 189.454 5.48248C189.354 5.97419 189.002 6.30199 188.4 6.46589C188.132 6.56423 187.731 6.6134 187.196 6.6134L187.296 6.85925C187.363 7.15427 187.43 7.35095 187.497 7.44929C187.564 7.71153 187.597 7.89183 187.597 7.99017C187.597 8.48187 187.497 8.85884 187.296 9.12108C187.129 9.35054 186.878 9.51444 186.543 9.61278C186.476 9.61278 186.376 9.62917 186.242 9.66195C186.141 9.69473 186.058 9.72751 185.991 9.7603C185.924 9.7603 185.874 9.79308 185.84 9.85864C185.84 9.95698 185.874 10.0881 185.941 10.252C186.108 10.7765 186.192 11.1698 186.192 11.4321C186.158 11.9893 185.84 12.4319 185.238 12.7597C184.703 13.0547 183.916 13.2514 182.879 13.3497C182.812 14.8576 183.331 16.4311 184.435 18.0701C185.305 19.3157 186.392 20.2499 187.697 20.8728C189.002 21.4956 190.575 22.0037 192.416 22.397C194.691 22.8888 196.03 23.2002 196.431 23.3313C197.803 23.7902 198.64 24.4622 198.941 25.3473C199.376 26.5601 198.941 27.5599 197.636 28.3466C196.498 29.035 195.377 29.2481 194.273 28.9859C193.938 28.8875 193.654 28.7728 193.419 28.6417C193.185 28.5105 192.968 28.3139 192.767 28.0516L192.315 27.5108C192.215 27.3796 192.081 27.1502 191.914 26.8224C191.746 26.4618 191.646 26.2651 191.613 26.2323C191.311 25.6423 190.977 25.2325 190.609 25.0031C190.107 24.6425 189.404 24.4622 188.501 24.4622C187.597 24.4622 186.928 24.5933 186.493 24.8556C185.087 25.6423 184.184 26.6093 183.782 27.7566C183.448 28.74 183.414 29.9529 183.682 31.3952C184.117 33.8865 185.405 35.7878 187.547 37.099C189.722 38.3774 192.315 39.0166 195.327 39.0166C198.238 38.9838 200.965 38.3774 203.508 37.1973C206.051 36.0172 207.808 34.4438 208.779 32.477C210.151 29.4612 210.318 26.7404 209.281 24.3147C208.277 21.889 206.286 19.9221 203.308 18.4143C203.006 18.2504 202.404 18.0701 201.501 17.8734L201.25 17.775C201.417 18.0701 201.584 18.4798 201.752 19.0043C202.053 19.9877 202.337 20.6269 202.605 20.9219C202.973 21.3809 203.391 21.6431 203.86 21.7087C204.629 21.807 205.148 21.9053 205.416 22.0037C205.75 22.1676 206.068 22.5773 206.369 23.2329L206.771 24.2163C206.838 24.3802 206.888 24.5114 206.921 24.6097C208.427 28.3139 207.725 31.6083 204.813 34.4929C203.609 35.673 202.438 36.345 201.3 36.5089C201.099 36.5089 200.781 36.5253 200.346 36.5581C199.911 36.5909 199.476 36.64 199.041 36.7056C198.64 36.7712 198.205 36.8695 197.736 37.0006L196.23 37.4923C195.427 37.7873 194.842 37.9512 194.474 37.984C193.369 38.1807 192.165 37.9348 190.86 37.2465C190.525 37.0498 190.123 36.6564 189.655 36.0664C189.187 35.5419 188.818 35.2141 188.551 35.083C188.45 35.0174 188.283 34.9682 188.049 34.9355C187.982 34.9355 187.865 34.9191 187.697 34.8863C187.564 34.8535 187.463 34.8371 187.396 34.8371C186.761 34.7388 186.359 34.5093 186.192 34.1487C186.024 33.6898 185.991 33.067 186.091 32.2803C186.125 32.0836 186.192 31.7722 186.292 31.346C186.359 30.9527 186.409 30.674 186.443 30.5101C186.476 30.1823 186.459 29.6087 186.392 28.7892C186.292 27.9697 186.292 27.396 186.392 27.0682C186.493 26.4782 186.844 26.0848 187.446 25.8881C188.049 25.6587 189.002 25.6751 190.308 25.9373C190.441 25.9701 190.492 26.052 190.458 26.1832C190.425 26.3143 190.341 26.3634 190.207 26.3307C189.002 26.1012 188.116 26.0684 187.547 26.2323C187.112 26.3962 186.844 26.6912 186.744 27.1174C186.677 27.4452 186.694 27.9861 186.794 28.74C186.894 29.5923 186.911 30.2151 186.844 30.6085C186.811 30.7724 186.761 31.051 186.694 31.4444C186.593 31.8377 186.526 32.1328 186.493 32.3294C186.392 33.0506 186.426 33.5915 186.593 33.9521C186.694 34.2143 186.978 34.3782 187.446 34.4438C187.547 34.4765 187.664 34.5093 187.798 34.5421C187.965 34.5421 188.066 34.5421 188.099 34.5421C188.367 34.5749 188.584 34.6241 188.752 34.6896C189.086 34.8535 189.488 35.2305 189.956 35.8205C190.391 36.3778 190.759 36.722 191.06 36.8531C192.265 37.5415 193.369 37.8037 194.373 37.6398C194.775 37.5743 195.36 37.4104 196.13 37.1481L197.636 36.6073C198.104 36.4761 198.556 36.3778 198.991 36.3122C199.426 36.2467 199.861 36.1975 200.296 36.1647C200.731 36.1319 201.049 36.1156 201.25 36.1156C202.287 35.9516 203.374 35.3124 204.512 34.1979C205.583 33.1489 206.336 32.018 206.771 30.8052C206.737 30.8052 206.687 30.7888 206.62 30.756C206.118 30.4937 205.315 30.3626 204.211 30.3626C204.01 30.3626 203.91 30.2643 203.91 30.0676C203.91 29.8709 204.01 29.7726 204.211 29.7726C205.416 29.7726 206.319 29.9365 206.921 30.2643H206.972C207.474 28.5269 207.323 26.6749 206.52 24.7081C206.486 24.6425 206.436 24.5278 206.369 24.3639C206.336 24.2 206.286 24.0361 206.219 23.8722L206.018 23.3805C205.75 22.8232 205.483 22.4954 205.215 22.397C205.014 22.2659 204.546 22.1676 203.809 22.102C203.241 22.0365 202.739 21.7414 202.304 21.217C202.003 20.8564 201.685 20.1516 201.35 19.1026C201.149 18.4143 200.915 17.9226 200.647 17.6275C199.911 17.4964 199.359 17.3817 198.991 17.2833C198.087 17.0211 197.368 16.7589 196.833 16.4966C195.628 16.2672 194.808 15.7755 194.373 15.0215C194.34 14.9232 194.356 14.8412 194.423 14.7757C193.955 13.2022 194.223 11.891 195.226 10.842C195.695 10.3176 196.23 10.0225 196.833 9.95697C197.468 9.89141 198.121 10.1045 198.79 10.5962C198.891 10.6617 198.891 10.7601 198.79 10.8912C199.058 11.0223 199.359 11.219 199.694 11.4813C199.627 11.4157 199.61 11.3501 199.643 11.2846C199.911 10.6617 200.095 10.0717 200.196 9.51444L199.995 9.61278C199.794 9.64556 199.66 9.58 199.593 9.4161C199.56 9.21942 199.627 9.0883 199.794 9.02274C200.028 8.95718 200.196 8.80967 200.296 8.58021C200.296 8.48187 200.313 8.39992 200.346 8.33436C200.313 8.30158 200.313 8.23602 200.346 8.13768ZM198.439 33.7554C198.405 34.1487 198.389 34.5257 198.389 34.8863C198.389 35.083 198.288 35.1813 198.087 35.1813C197.887 35.1813 197.786 35.083 197.786 34.8863C197.786 34.5257 197.803 34.1487 197.836 33.7554C197.87 33.5587 197.97 33.4767 198.138 33.5095C198.338 33.5095 198.439 33.5915 198.439 33.7554ZM193.319 6.56423C193.52 6.56423 193.62 6.66257 193.62 6.85925C193.62 7.05593 193.52 7.15427 193.319 7.15427C193.118 7.15427 193.018 7.05593 193.018 6.85925C193.018 6.66257 193.118 6.56423 193.319 6.56423ZM203.709 9.85864C203.91 9.85864 204.01 9.95698 204.01 10.1537C204.01 10.3503 203.91 10.4487 203.709 10.4487C203.508 10.4487 203.408 10.3503 203.408 10.1537C203.408 9.95698 203.508 9.85864 203.709 9.85864ZM190.408 18.906C190.609 18.906 190.709 19.0043 190.709 19.201C190.709 19.3977 190.609 19.496 190.408 19.496C190.207 19.496 190.107 19.3977 190.107 19.201C190.107 19.0043 190.207 18.906 190.408 18.906ZM201.4 21.9053C201.601 21.9053 201.701 22.0037 201.701 22.2004C201.701 22.397 201.601 22.4954 201.4 22.4954C201.199 22.4954 201.099 22.397 201.099 22.2004C201.099 22.0037 201.199 21.9053 201.4 21.9053ZM201.3 33.2145C201.501 33.2145 201.601 33.3128 201.601 33.5095C201.601 33.7062 201.501 33.8045 201.3 33.8045C201.099 33.8045 200.999 33.7062 200.999 33.5095C200.999 33.3128 201.099 33.2145 201.3 33.2145ZM196.18 2.72895C196.381 2.72895 196.481 2.82729 196.481 3.02397C196.481 3.22065 196.381 3.31899 196.18 3.31899C195.979 3.31899 195.879 3.22065 195.879 3.02397C195.879 2.82729 195.979 2.72895 196.18 2.72895ZM204.512 26.429C204.713 26.429 204.813 26.5273 204.813 26.724C204.813 26.9207 204.713 27.0191 204.512 27.0191C204.311 27.0191 204.211 26.9207 204.211 26.724C204.211 26.5273 204.311 26.429 204.512 26.429ZM200.196 2.87646C200.396 2.87646 200.497 2.9748 200.497 3.17148C200.497 3.36816 200.396 3.4665 200.196 3.4665C199.995 3.4665 199.894 3.36816 199.894 3.17148C199.894 2.9748 199.995 2.87646 200.196 2.87646ZM191.914 10.3012C192.483 9.71112 193.135 9.13747 193.871 8.58021C194.039 8.48187 194.172 8.51465 194.273 8.67855C194.407 8.80967 194.407 8.94079 194.273 9.07191C193.302 9.79307 192.516 10.5306 191.914 11.2846C191.78 11.4157 191.629 11.4321 191.462 11.3337C191.328 11.2026 191.311 11.0551 191.412 10.8912L191.763 10.4978C191.797 10.3995 191.847 10.3339 191.914 10.3012Z" fill="black"/>
</svg>
