<svg width="23" height="23" viewBox="0 0 23 23" fill="none" xmlns="http://www.w3.org/2000/svg">
<path d="M11.9912 0.500189C10.5579 0.448037 9.12898 0.686885 7.79059 1.20231C6.4522 1.71774 5.23215 2.49906 4.20409 3.49909C3.17604 4.49913 2.36132 5.69713 1.80911 7.02077C1.2569 8.34441 0.978666 9.76623 0.991202 11.2004C0.97241 12.6782 1.26695 14.1432 1.85541 15.4988C2.44388 16.8545 3.31291 18.0702 4.40526 19.0656L4.45699 20.756C4.47165 21.2234 4.6676 21.6666 5.00335 21.992C5.3391 22.3173 5.78829 22.4992 6.25582 22.4992C6.5059 22.4989 6.75323 22.447 6.98238 22.3469L8.90328 21.5002C9.91059 21.7684 10.9488 21.903 11.9912 21.9006C13.4245 21.9528 14.8535 21.7139 16.192 21.1985C17.5304 20.6831 18.7505 19.9018 19.7787 18.9018C20.8068 17.9018 21.6216 16.7038 22.1739 15.3801C22.7263 14.0564 23.0046 12.6346 22.9922 11.2004C23.0046 9.76617 22.7263 8.34432 22.1739 7.02067C21.6216 5.69702 20.8068 4.49902 19.7787 3.49899C18.7506 2.49897 17.5304 1.71767 16.192 1.20226C14.8535 0.68685 13.4245 0.448019 11.9912 0.500189ZM11.9912 19.9006C11.1012 19.9031 10.2149 19.7852 9.35644 19.55C8.95893 19.4428 8.53665 19.4752 8.16015 19.6418L6.44628 20.3976L6.40136 18.9045C6.39142 18.6626 6.33306 18.4252 6.22973 18.2063C6.1264 17.9874 5.9802 17.7915 5.79979 17.6301C4.90035 16.8205 4.18441 15.828 3.70001 14.719C3.21561 13.6101 2.97393 12.4104 2.9912 11.2004C2.9848 10.0305 3.21549 8.87155 3.66936 7.79334C4.12323 6.71512 4.79086 5.74005 5.63196 4.92697C6.47306 4.11389 7.47018 3.47967 8.56315 3.06257C9.65611 2.64548 10.8223 2.45417 11.9912 2.50019C13.1586 2.46051 14.3221 2.65617 15.4123 3.07553C16.5025 3.49489 17.4971 4.12937 18.337 4.94118C19.1769 5.75298 19.8448 6.72551 20.3009 7.80084C20.7571 8.87617 20.9922 10.0323 20.9922 11.2004C20.9922 12.3685 20.7571 13.5246 20.3009 14.5999C19.8448 15.6753 19.1769 16.6478 18.337 17.4596C17.4971 18.2714 16.5025 18.9059 15.4123 19.3252C14.3221 19.7446 13.1586 19.9403 11.9912 19.9006ZM15.7256 8.08515L13.4131 10.84L10.0664 8.78339C9.86215 8.65767 9.61947 8.60971 9.38275 8.64827C9.14603 8.68683 8.93112 8.80935 8.77733 8.99339L5.72558 12.6301C5.64072 12.7305 5.57652 12.8468 5.53667 12.9721C5.49682 13.0975 5.48209 13.2294 5.49334 13.3605C5.50458 13.4915 5.54158 13.6191 5.60221 13.7358C5.66283 13.8525 5.7459 13.9561 5.84664 14.0406C5.94738 14.1252 6.06382 14.189 6.18928 14.2285C6.31475 14.268 6.44676 14.2823 6.57777 14.2706C6.70877 14.259 6.83619 14.2216 6.95272 14.1606C7.06925 14.0996 7.17259 14.0162 7.25683 13.9152L9.75483 10.9396L13.1015 12.9953C13.3057 13.1211 13.5483 13.1692 13.785 13.1308C14.0217 13.0925 14.2366 12.9702 14.3906 12.7863L17.2568 9.37031C17.3422 9.2699 17.4068 9.15359 17.4471 9.02809C17.4873 8.90259 17.5023 8.77037 17.4913 8.63904C17.4802 8.50771 17.4433 8.37986 17.3827 8.26285C17.322 8.14584 17.2388 8.04199 17.1379 7.95726C17.0369 7.87253 16.9202 7.8086 16.7944 7.76915C16.6687 7.7297 16.5364 7.71551 16.4051 7.7274C16.2739 7.73929 16.1462 7.77701 16.0296 7.83841C15.913 7.89981 15.8097 7.98366 15.7256 8.08515Z" fill="#8F3046"/>
</svg>
