<svg width="15" height="23" viewBox="0 0 15 23" fill="none" xmlns="http://www.w3.org/2000/svg">
<path d="M13.83 8.93976C13.7383 8.80405 13.6146 8.69295 13.4699 8.61623C13.3252 8.53951 13.1638 8.49951 13 8.49976H10V6.49976H12.2C12.4652 6.49976 12.7196 6.3944 12.9071 6.20686C13.0946 6.01933 13.2 5.76497 13.2 5.49976V1.49976C13.2 1.23454 13.0946 0.980185 12.9071 0.792649C12.7196 0.605113 12.4652 0.499756 12.2 0.499756H9C7.46174 0.499756 5.98649 1.11083 4.89878 2.19854C3.81107 3.28625 3.2 4.7615 3.2 6.29976V8.49976H1C0.734784 8.49976 0.48043 8.60511 0.292893 8.79265C0.105357 8.98019 0 9.23454 0 9.49976V13.4998C0 13.765 0.105357 14.0193 0.292893 14.2069C0.48043 14.3944 0.734784 14.4998 1 14.4998H3.2V21.4998C3.2 21.765 3.30536 22.0193 3.49289 22.2069C3.68043 22.3944 3.93478 22.4998 4.2 22.4998H9C9.26522 22.4998 9.51957 22.3944 9.70711 22.2069C9.89464 22.0193 10 21.765 10 21.4998V14.4998H11.4C11.6003 14.4999 11.796 14.44 11.9618 14.3277C12.1276 14.2153 12.2559 14.0558 12.33 13.8698L13.93 9.86976C13.9904 9.71833 14.0129 9.55444 13.9954 9.39234C13.978 9.23025 13.9212 9.07488 13.83 8.93976ZM10.72 12.4998H9C8.73478 12.4998 8.48043 12.6051 8.29289 12.7926C8.10536 12.9802 8 13.2345 8 13.4998V20.4998H5.2V13.4998C5.2 13.2345 5.09464 12.9802 4.90711 12.7926C4.71957 12.6051 4.46522 12.4998 4.2 12.4998H2V10.4998H4.2C4.46522 10.4998 4.71957 10.3944 4.90711 10.2069C5.09464 10.0193 5.2 9.76497 5.2 9.49976V6.29976C5.20264 5.29274 5.60384 4.32773 6.31591 3.61567C7.02798 2.9036 7.99299 2.5024 9 2.49976H11.2V4.49976H10.4C10.0614 4.45043 9.71631 4.47113 9.38605 4.56058C9.0558 4.65002 8.74741 4.80631 8.48 5.01976C8.31772 5.18965 8.19153 5.39065 8.10903 5.61064C8.02654 5.83063 7.98945 6.06505 8 6.29976V9.49976C8 9.76497 8.10536 10.0193 8.29289 10.2069C8.48043 10.3944 8.73478 10.4998 9 10.4998H11.52L10.72 12.4998Z" fill="#8F3046"/>
</svg>
