<svg width="25" height="29" viewBox="0 0 25 29" fill="none" xmlns="http://www.w3.org/2000/svg">
<path fill-rule="evenodd" clip-rule="evenodd" d="M5.5729 7.57291V7.39809C5.5729 4.23679 7.71316 1.47655 10.7749 0.68926C11.9065 0.398258 13.0934 0.398258 14.2251 0.68926C17.2868 1.47655 19.4271 4.2368 19.4271 7.39809V7.57291H21.6162C22.4493 7.57291 23.1564 8.18392 23.2772 9.00824L23.5961 11.1847C24.2239 15.47 24.2239 19.8239 23.5961 24.1091C23.2928 26.1785 21.6241 27.7784 19.5437 27.9941L18.6266 28.0892C14.5531 28.5117 10.4468 28.5117 6.37333 28.0892L5.45623 27.9941C3.37586 27.7784 1.7071 26.1785 1.40389 24.1091C0.776014 19.8239 0.776015 15.47 1.40389 11.1847L1.72279 9.00824C1.84357 8.18392 2.55064 7.57291 3.38375 7.57291H5.5729ZM11.3196 2.80784C12.0939 2.60873 12.906 2.60873 13.6803 2.80784C15.7752 3.34651 17.2396 5.2351 17.2396 7.39809V7.57291H7.7604V7.39809C7.7604 5.2351 9.22479 3.34651 11.3196 2.80784ZM5.5729 9.76041V13.0417C5.5729 13.6457 6.06259 14.1354 6.66665 14.1354C7.27071 14.1354 7.7604 13.6457 7.7604 13.0417V9.76041H17.2396V13.0417C17.2396 13.6457 17.7293 14.1354 18.3333 14.1354C18.9374 14.1354 19.4271 13.6457 19.4271 13.0417V9.76041H21.1765L21.4317 11.5019C22.0287 15.5768 22.0287 19.717 21.4317 23.792C21.2735 24.8713 20.4031 25.7058 19.3181 25.8183L18.401 25.9134C14.4775 26.3203 10.5225 26.3203 6.59897 25.9134L5.68187 25.8183C4.59681 25.7058 3.72643 24.8713 3.56828 23.792C2.97122 19.717 2.97122 15.5768 3.56828 11.5019L3.82344 9.76041H5.5729Z" fill="black"/>
</svg>
