<svg width="27" height="27" viewBox="0 0 27 27" fill="none" xmlns="http://www.w3.org/2000/svg">
<path fill-rule="evenodd" clip-rule="evenodd" d="M3.87291 17.7941C7.45572 21.3769 13.1132 21.6206 16.9782 18.525L24.4968 26.0437C24.924 26.4708 25.6165 26.4708 26.0436 26.0437C26.4708 25.6165 26.4708 24.924 26.0436 24.4969L18.525 16.9783C21.6205 13.1133 21.3769 7.45578 17.7941 3.87297C13.9499 0.0287517 7.71714 0.028751 3.87291 3.87297C0.0286905 7.7172 0.0286905 13.9499 3.87291 17.7941ZM5.41971 5.41977C2.42976 8.40972 2.42976 13.2574 5.41971 16.2473C8.40747 19.2351 13.2502 19.2373 16.2407 16.2539L16.2473 16.2473L16.2539 16.2408C19.2372 13.2503 19.235 8.40753 16.2473 5.41977C13.2573 2.42982 8.40966 2.42982 5.41971 5.41977Z" fill="black"/>
</svg>
