<svg width="20" height="21" viewBox="0 0 20 21" fill="none" xmlns="http://www.w3.org/2000/svg">
<path d="M10 5.49976C9.01109 5.49976 8.04439 5.793 7.22215 6.34241C6.3999 6.89181 5.75904 7.67271 5.3806 8.58634C5.00216 9.49997 4.90315 10.5053 5.09607 11.4752C5.289 12.4451 5.7652 13.336 6.46447 14.0353C7.16373 14.7346 8.05464 15.2108 9.02455 15.4037C9.99445 15.5966 10.9998 15.4976 11.9134 15.1192C12.827 14.7407 13.6079 14.0999 14.1573 13.2776C14.7068 12.4554 15 11.4887 15 10.4998C15 9.17367 14.4732 7.9019 13.5355 6.96422C12.5979 6.02654 11.3261 5.49976 10 5.49976ZM10 13.4998C9.40666 13.4998 8.82664 13.3238 8.33329 12.9942C7.83994 12.6645 7.45542 12.196 7.22836 11.6478C7.0013 11.0996 6.94189 10.4964 7.05764 9.91448C7.1734 9.33254 7.45912 8.79799 7.87868 8.37844C8.29824 7.95888 8.83279 7.67316 9.41473 7.5574C9.99667 7.44164 10.5999 7.50105 11.1481 7.72812C11.6962 7.95518 12.1648 8.3397 12.4944 8.83305C12.8241 9.32639 13 9.90641 13 10.4998C13 11.2954 12.6839 12.0585 12.1213 12.6211C11.5587 13.1837 10.7956 13.4998 10 13.4998ZM15 4.49976C14.8022 4.49976 14.6089 4.5584 14.4444 4.66829C14.28 4.77817 14.1518 4.93435 14.0761 5.11707C14.0004 5.2998 13.9806 5.50086 14.0192 5.69485C14.0578 5.88883 14.153 6.06701 14.2929 6.20686C14.4327 6.34671 14.6109 6.44196 14.8049 6.48054C14.9989 6.51913 15.2 6.49932 15.3827 6.42364C15.5654 6.34795 15.7216 6.21978 15.8315 6.05533C15.9414 5.89088 16 5.69754 16 5.49976C16 5.23454 15.8946 4.98019 15.7071 4.79265C15.5196 4.60511 15.2652 4.49976 15 4.49976ZM19.94 6.73976C19.9234 5.88518 19.7611 5.0397 19.46 4.23976C19.1808 3.51182 18.7516 2.85075 18.2003 2.29945C17.649 1.74816 16.9879 1.31897 16.26 1.03976C15.4601 0.738655 14.6146 0.576323 13.76 0.559756C12.79 0.499756 12.47 0.499756 10 0.499756C7.53 0.499756 7.21 0.499756 6.24 0.559756C5.38542 0.576323 4.53995 0.738655 3.74 1.03976C3.01207 1.31897 2.35099 1.74816 1.7997 2.29945C1.2484 2.85075 0.819216 3.51182 0.54 4.23976C0.238899 5.0397 0.0765676 5.88518 0.0599999 6.73976C-5.58794e-08 7.71976 0 8.03976 0 10.4998C0 12.9598 -5.58794e-08 13.2798 0.0599999 14.2598C0.0765676 15.1143 0.238899 15.9598 0.54 16.7598C0.819216 17.4877 1.2484 18.1488 1.7997 18.7001C2.35099 19.2514 3.01207 19.6805 3.74 19.9598C4.53995 20.2609 5.38542 20.4232 6.24 20.4398C7.24 20.4398 7.53 20.4998 10 20.4998C12.47 20.4998 12.79 20.4998 13.76 20.4398C14.6146 20.4232 15.4601 20.2609 16.26 19.9598C16.9879 19.6805 17.649 19.2514 18.2003 18.7001C18.7516 18.1488 19.1808 17.4877 19.46 16.7598C19.7611 15.9598 19.9234 15.1143 19.94 14.2598C19.94 13.2598 20 12.9598 20 10.4998C20 8.03976 20 7.71976 19.94 6.73976ZM17.94 14.1698C17.9225 14.8044 17.8043 15.4322 17.59 16.0298C17.4128 16.5021 17.1327 16.9291 16.77 17.2798C16.4214 17.6426 15.9936 17.9198 15.52 18.0898C14.921 18.3129 14.289 18.4345 13.65 18.4498C12.71 18.4498 12.42 18.4998 9.99 18.4998C7.56 18.4998 7.28 18.4998 6.34 18.4998C5.70202 18.4833 5.07075 18.3651 4.47 18.1498C3.99766 17.9725 3.57067 17.6924 3.22 17.3298C2.85715 16.9812 2.57992 16.5533 2.41 16.0798C2.1878 15.484 2.06615 14.8554 2.05 14.2198C2.05 13.2198 2.05 12.9698 2.05 10.5498C2.05 8.12976 2.05 7.83976 2.05 6.87976C2.06724 6.24096 2.18884 5.60929 2.41 5.00976C2.58256 4.54039 2.85953 4.11638 3.22 3.76976C3.56858 3.40691 3.99641 3.12967 4.47 2.95976C5.06899 2.73665 5.70099 2.61498 6.34 2.59976C7.28 2.49976 7.57 2.49976 10 2.49976C12.43 2.49976 12.72 2.49976 13.66 2.49976C14.3021 2.51608 14.9373 2.6377 15.54 2.85976C16.0094 3.03231 16.4334 3.30929 16.78 3.66976C17.1428 4.01833 17.4201 4.44616 17.59 4.91976C17.8348 5.52832 17.9735 6.17434 18 6.82976C18 7.82976 18.05 8.07976 18.05 10.4998C18.05 12.9198 18 13.2098 18 14.1698H17.94Z" fill="#8F3046"/>
</svg>
