<svg width="22" height="21" viewBox="0 0 22 21" fill="none" xmlns="http://www.w3.org/2000/svg">
<path d="M21.2647 0.927535C20.98 0.690669 20.6364 0.535431 20.2704 0.47834C19.9045 0.42125 19.5299 0.464444 19.1866 0.603325L1.26566 7.83868C0.88241 7.99636 0.556176 8.26687 0.33026 8.61429C0.104343 8.96172 -0.0105725 9.36964 0.000764965 9.7839C0.0121025 10.1982 0.149157 10.5992 0.393738 10.9337C0.638319 11.2683 0.978859 11.5206 1.37016 11.657L4.99516 12.9178L7.01566 19.5994C7.04312 19.6887 7.08297 19.7736 7.13404 19.8518C7.14179 19.8638 7.15272 19.8727 7.16096 19.8844C7.21996 19.9667 7.29127 20.0395 7.37239 20.1002C7.39546 20.1177 7.41755 20.1342 7.44221 20.1498C7.53714 20.2128 7.64228 20.2589 7.75294 20.2859L7.76478 20.2869L7.77149 20.2898C7.83802 20.3034 7.90574 20.3102 7.97364 20.3103C7.98017 20.3103 7.98597 20.3072 7.99244 20.3071C8.0949 20.3053 8.19647 20.2877 8.29353 20.2548C8.31611 20.2471 8.33546 20.2342 8.35737 20.2249C8.42975 20.1949 8.49832 20.1565 8.56166 20.1104C8.61238 20.0676 8.66312 20.0249 8.71388 19.9822L11.416 16.9988L15.4463 20.1209C15.8011 20.3971 16.2379 20.5473 16.6875 20.5476C17.1587 20.547 17.6154 20.3845 17.9809 20.0872C18.3465 19.7899 18.5987 19.376 18.6954 18.9148L21.958 2.89825C22.032 2.53776 22.0065 2.16396 21.8844 1.81683C21.7623 1.4697 21.5481 1.16231 21.2647 0.927535ZM8.37016 13.2361C8.2315 13.3742 8.13672 13.5502 8.0977 13.742L7.78819 15.246L7.00413 12.6529L11.0694 10.536L8.37016 13.2361ZM16.6719 18.5398L11.9092 14.8504C11.71 14.6964 11.46 14.6231 11.2092 14.6452C10.9583 14.6673 10.725 14.7831 10.5557 14.9695L9.69029 15.9247L9.99613 14.4382L17.0791 7.35525C17.2482 7.18641 17.3512 6.9626 17.3695 6.72437C17.3878 6.48614 17.3201 6.24923 17.1788 6.05656C17.0375 5.86389 16.8319 5.72821 16.5992 5.67408C16.3664 5.61995 16.122 5.65096 15.9102 5.7615L5.74491 11.0541L2.02055 9.69122L19.999 2.49881L16.6719 18.5398Z" fill="#8F3046"/>
</svg>
