<svg width="20" height="22" viewBox="0 0 20 22" fill="none" xmlns="http://www.w3.org/2000/svg">
<path d="M5.96472 4.70166C5.77897 4.67452 5.58952 4.7118 5.42791 4.80731H5.41413C5.03892 5.02725 4.70092 5.30522 4.41269 5.63091C4.17316 5.90785 4.04322 6.18806 4.0091 6.45778C3.98875 6.61856 4.00253 6.77935 4.05044 6.93291L4.0675 6.94341C4.33722 7.73616 4.68963 8.49872 5.12013 9.21666C5.67467 10.2253 6.35713 11.1581 7.15057 11.9919L7.17419 12.0261L7.2116 12.0536L7.23522 12.0812L7.26278 12.1048C8.09965 12.9006 9.03472 13.5862 10.0453 14.1451C11.2003 14.7738 11.9012 15.0711 12.3218 15.1944V15.201C12.4452 15.2384 12.5574 15.2555 12.6703 15.2555C13.0288 15.2292 13.3682 15.0837 13.6343 14.842C13.9585 14.5537 14.2334 14.2143 14.4481 13.8373V13.8308C14.6495 13.4514 14.5813 13.0925 14.2906 12.8497C13.7083 12.3407 13.0788 11.8887 12.4104 11.4998C11.9628 11.2569 11.5081 11.4039 11.3237 11.65L10.9306 12.1455C10.7291 12.3916 10.3629 12.3575 10.3629 12.3575L10.3524 12.364C7.62175 11.6664 6.89332 8.90166 6.89332 8.90166C6.89332 8.90166 6.85919 8.52563 7.11185 8.334L7.60403 7.93763C7.83963 7.746 8.00369 7.29188 7.75103 6.84366C7.36477 6.17438 6.91373 5.54464 6.40441 4.9635C6.29306 4.8265 6.13685 4.73328 5.96341 4.70035L5.96472 4.70166Z" fill="#8F3046"/>
<path d="M10.5792 3.49985C10.3031 3.49985 10.0792 3.72371 10.0792 3.99985C10.0792 4.27599 10.3031 4.49985 10.5792 4.49985C11.8437 4.49985 12.8944 4.91316 13.7245 5.7046C14.1518 6.13799 14.4844 6.65099 14.7028 7.21239C14.922 7.77589 15.0217 8.37676 14.9961 8.97861C14.9844 9.2545 15.1985 9.48767 15.4744 9.4994C15.7503 9.51113 15.9835 9.29698 15.9952 9.02109C16.0267 8.28065 15.9039 7.54189 15.6347 6.84985C15.3655 6.15783 14.9558 5.52722 14.4307 4.99632L14.4207 4.98671C13.3907 4.00169 12.0851 3.49985 10.5792 3.49985Z" fill="#8F3046"/>
<path d="M10.5452 5.14417C10.2691 5.14417 10.0452 5.36803 10.0452 5.64417C10.0452 5.92032 10.2691 6.14417 10.5452 6.14417H10.5615C11.474 6.20847 12.1379 6.51262 12.6034 7.01185C13.0799 7.52602 13.3267 8.16465 13.3084 8.95481C13.302 9.23088 13.5207 9.45986 13.7967 9.46625C14.0728 9.47264 14.3018 9.25403 14.3082 8.97796C14.3322 7.94046 13.9985 7.04583 13.3363 6.3315L13.3354 6.33056C12.6588 5.60447 11.7305 5.22036 10.6122 5.1453L10.5955 5.14417H10.5452Z" fill="#8F3046"/>
<path d="M10.5263 6.81853C10.2505 6.80401 10.0152 7.01579 10.0007 7.29155C9.98619 7.56731 10.198 7.80263 10.4737 7.81714C10.8924 7.83918 11.1592 7.96475 11.327 8.13419C11.4956 8.30436 11.6216 8.57683 11.6446 9.00407C11.6595 9.27981 11.895 9.49132 12.1708 9.47649C12.4465 9.46166 12.658 9.22611 12.6432 8.95036C12.6109 8.35034 12.4231 7.81986 12.0376 7.43053C11.6513 7.04047 11.1238 6.84998 10.5263 6.81853Z" fill="#8F3046"/>
<path fill-rule="evenodd" clip-rule="evenodd" d="M5.06673 0.883324C8.24883 0.17203 11.5487 0.17203 14.7308 0.883324L15.0699 0.959107C16.9667 1.38309 18.4637 2.83792 18.9418 4.72179C19.7495 7.90464 19.7495 11.2388 18.9418 14.4217C18.4637 16.3055 16.9666 17.7604 15.0699 18.1843L14.7308 18.2601C12.732 18.7069 10.6867 18.8731 8.6533 18.7586L6.0001 21.1325C5.79637 21.3148 5.50959 21.3718 5.25164 21.2812C4.99369 21.1907 4.80543 20.967 4.76029 20.6974L4.32148 18.076C2.61909 17.547 1.29919 16.1689 0.855788 14.4217C0.0480704 11.2388 0.0480706 7.90464 0.855788 4.72179C1.33386 2.83792 2.83092 1.38309 4.7277 0.959107L5.06673 0.883324ZM14.4036 2.3472C11.437 1.68407 8.36057 1.68407 5.39395 2.3472L5.05492 2.42298C3.71009 2.72359 2.64866 3.75507 2.3097 5.09076C1.56343 8.03146 1.56343 11.112 2.3097 14.0527C2.64866 15.3884 3.71008 16.4199 5.05492 16.7205L5.14448 16.7405C5.44237 16.8071 5.67018 17.0476 5.72058 17.3486L6.01485 19.1065L7.88722 17.4312C8.0384 17.296 8.23793 17.2277 8.44029 17.242C10.4338 17.3832 12.4427 17.2346 14.4036 16.7963L14.7426 16.7205C16.0875 16.4199 17.1489 15.3884 17.4879 14.0527C18.2341 11.112 18.2341 8.03146 17.4879 5.09076C17.1489 3.75507 16.0875 2.72359 14.7426 2.42298L14.4036 2.3472Z" fill="#8F3046"/>
</svg>
